M48
; DRILL file {KiCad 7.0.10-7.0.10~ubuntu22.04.1} date Wed 07 Feb 2024 11:43:54 AM
; FORMAT={-:-/ absolute / inch / decimal}
; #@! TF.CreationDate,2024-02-07T11:43:54+07:00
; #@! TF.GenerationSoftware,Kicad,Pcbnew,7.0.10-7.0.10~ubuntu22.04.1
; #@! TF.FileFunction,Plated,1,2,PTH
FMAT,2
INCH
; #@! TA.AperFunction,Plated,PTH,ComponentDrill
T1C0.0079
; #@! TA.AperFunction,Plated,PTH,ComponentDrill
T2C0.0236
; #@! TA.AperFunction,Plated,PTH,ComponentDrill
T3C0.0315
; #@! TA.AperFunction,Plated,PTH,ComponentDrill
T4C0.0354
; #@! TA.AperFunction,Plated,PTH,ComponentDrill
T5C0.0374
; #@! TA.AperFunction,Plated,PTH,ComponentDrill
T6C0.0394
; #@! TA.AperFunction,Plated,PTH,ComponentDrill
T7C0.0433
; #@! TA.AperFunction,Plated,PTH,ComponentDrill
T8C0.0630
%
G90
G05
T1
X6.8409Y-5.1905
X6.8409Y-5.2495
X6.9Y-5.1905
X6.9Y-5.2495
X6.9591Y-5.1905
X6.9591Y-5.2495
X7.1006Y-3.81
X7.9858Y-5.6956
X7.9858Y-5.7507
X8.0134Y-5.668
X8.0134Y-5.7231
X8.0134Y-5.7783
X8.0409Y-5.6956
X8.0409Y-5.7507
X8.0685Y-5.668
X8.0685Y-5.7231
X8.0685Y-5.7783
X8.0961Y-5.6956
X8.0961Y-5.7507
X8.2587Y-5.0987
X8.2587Y-5.14
X8.2587Y-5.1813
X8.3Y-5.0987
X8.3Y-5.14
X8.3Y-5.1813
X8.3413Y-5.0987
X8.3413Y-5.14
X8.3413Y-5.1813
T3
X6.9583Y-5.9296
X6.9583Y-6.0296
X6.9583Y-6.1296
X6.9583Y-6.2296
X6.9583Y-6.5202
X6.9583Y-6.6202
X7.0104Y-6.9
X7.1104Y-6.9
X7.2104Y-6.9
X7.2583Y-5.9296
X7.2583Y-6.0296
X7.2583Y-6.1296
X7.2583Y-6.2296
X7.2583Y-6.5202
X7.2583Y-6.6202
X9.0167Y-5.9204
X9.0167Y-6.0204
X9.0167Y-6.1204
X9.0167Y-6.2204
X9.02Y-6.495
X9.02Y-6.595
X9.02Y-6.695
X9.02Y-6.795
X9.02Y-6.895
X9.3167Y-5.9204
X9.3167Y-6.0204
X9.3167Y-6.1204
X9.3167Y-6.2204
X9.32Y-6.495
X9.32Y-6.595
X9.32Y-6.695
X9.32Y-6.795
X9.32Y-6.895
X9.4717Y-4.55
X9.4717Y-4.65
X9.4717Y-4.75
X9.4717Y-4.85
X9.4717Y-4.95
X9.4717Y-5.05
X9.7717Y-4.55
X9.7717Y-4.65
X9.7717Y-4.75
X9.7717Y-4.85
X9.7717Y-4.95
X9.7717Y-5.05
T4
X7.88Y-7.84
X7.98Y-7.84
X8.22Y-7.84
X8.32Y-7.84
T5
X9.5216Y-6.0118
X9.5216Y-6.2318
X9.5231Y-6.4518
X9.62Y-6.0118
X9.62Y-6.2318
X9.6216Y-6.4518
X9.7184Y-6.0118
X9.7184Y-6.2318
X9.72Y-6.4518
T6
X6.29Y-6.8617
X6.29Y-7.0783
X6.39Y-6.8617
X6.39Y-7.0783
X6.4704Y-4.795
X6.7696Y-4.795
X6.9Y-7.1517
X6.9Y-7.3683
X7.0Y-7.1517
X7.0Y-7.3683
X7.11Y-4.7402
X7.11Y-4.8402
X7.11Y-4.9402
X7.11Y-5.0402
X7.11Y-5.1402
X7.11Y-5.2402
X7.11Y-5.3402
X7.11Y-5.4402
X7.11Y-5.5402
X7.11Y-5.6402
X7.215Y-4.7402
X7.215Y-4.8402
X7.215Y-4.9402
X7.215Y-5.0402
X7.215Y-5.1402
X7.215Y-5.2402
X7.215Y-5.3402
X7.215Y-5.4402
X7.215Y-5.5402
X7.215Y-5.6402
X8.05Y-7.2167
X8.05Y-7.4333
X8.15Y-7.2167
X8.15Y-7.4333
X9.04Y-4.7302
X9.04Y-4.8302
X9.04Y-4.9302
X9.04Y-5.0302
X9.04Y-5.1302
X9.04Y-5.2302
X9.04Y-5.3302
X9.04Y-5.4302
X9.04Y-5.5302
X9.04Y-5.6302
X9.075Y-7.1417
X9.075Y-7.3583
X9.145Y-4.7302
X9.145Y-4.8302
X9.145Y-4.9302
X9.145Y-5.0302
X9.145Y-5.1302
X9.145Y-5.2302
X9.145Y-5.3302
X9.145Y-5.4302
X9.145Y-5.5302
X9.145Y-5.6302
X9.175Y-7.1417
X9.175Y-7.3583
X9.81Y-6.8617
X9.81Y-7.0783
X9.91Y-6.8617
X9.91Y-7.0783
T7
X6.07Y-5.06
X6.17Y-5.06
X10.03Y-5.04
X10.13Y-5.04
T8
X7.7445Y-3.8965
X7.7445Y-6.7665
X8.5043Y-3.8965
X8.5043Y-6.7665
T2
G00X7.9299Y-3.1469
M15
G01X7.9299Y-3.1705
M16
G05
G00X7.9299Y-3.3016
M15
G01X7.9299Y-3.3449
M16
G05
G00X8.2701Y-3.1469
M15
G01X8.2701Y-3.1705
M16
G05
G00X8.2701Y-3.3016
M15
G01X8.2701Y-3.3449
M16
G05
T6
G00X9.2738Y-3.4986
M15
G01X9.2519Y-3.5314
M16
G05
G00X9.4309Y-3.6036
M15
G01X9.4091Y-3.6364
M16
G05
G00X9.5881Y-3.7086
M15
G01X9.5662Y-3.7414
M16
G05
M30
