%TF.GenerationSoftware,KiCad,Pcbnew,7.0.10-7.0.10~ubuntu22.04.1*%
%TF.CreationDate,2024-02-07T11:44:01+07:00*%
%TF.ProjectId,NomobotSK,4e6f6d6f-626f-4745-934b-2e6b69636164,rev?*%
%TF.SameCoordinates,Original*%
%TF.FileFunction,Paste,Bot*%
%TF.FilePolarity,Positive*%
%FSLAX46Y46*%
G04 Gerber Fmt 4.6, Leading zero omitted, Abs format (unit mm)*
G04 Created by KiCad (PCBNEW 7.0.10-7.0.10~ubuntu22.04.1) date 2024-02-07 11:44:01*
%MOMM*%
%LPD*%
G01*
G04 APERTURE LIST*
G04 Aperture macros list*
%AMRoundRect*
0 Rectangle with rounded corners*
0 $1 Rounding radius*
0 $2 $3 $4 $5 $6 $7 $8 $9 X,Y pos of 4 corners*
0 Add a 4 corners polygon primitive as box body*
4,1,4,$2,$3,$4,$5,$6,$7,$8,$9,$2,$3,0*
0 Add four circle primitives for the rounded corners*
1,1,$1+$1,$2,$3*
1,1,$1+$1,$4,$5*
1,1,$1+$1,$6,$7*
1,1,$1+$1,$8,$9*
0 Add four rect primitives between the rounded corners*
20,1,$1+$1,$2,$3,$4,$5,0*
20,1,$1+$1,$4,$5,$6,$7,0*
20,1,$1+$1,$6,$7,$8,$9,0*
20,1,$1+$1,$8,$9,$2,$3,0*%
G04 Aperture macros list end*
%ADD10C,0.100000*%
%ADD11C,0.150000*%
%ADD12C,0.300000*%
%ADD13C,0.400000*%
%ADD14C,0.010000*%
%ADD15RoundRect,0.150000X0.512500X0.150000X-0.512500X0.150000X-0.512500X-0.150000X0.512500X-0.150000X0*%
%ADD16RoundRect,0.140000X0.170000X-0.140000X0.170000X0.140000X-0.170000X0.140000X-0.170000X-0.140000X0*%
%ADD17RoundRect,0.200000X0.275000X-0.200000X0.275000X0.200000X-0.275000X0.200000X-0.275000X-0.200000X0*%
%ADD18RoundRect,0.250000X0.450000X-0.262500X0.450000X0.262500X-0.450000X0.262500X-0.450000X-0.262500X0*%
%ADD19RoundRect,0.225000X0.250000X-0.225000X0.250000X0.225000X-0.250000X0.225000X-0.250000X-0.225000X0*%
%ADD20RoundRect,0.225000X0.225000X0.250000X-0.225000X0.250000X-0.225000X-0.250000X0.225000X-0.250000X0*%
%ADD21RoundRect,0.200000X-0.200000X-0.275000X0.200000X-0.275000X0.200000X0.275000X-0.200000X0.275000X0*%
%ADD22RoundRect,0.250000X0.262500X0.450000X-0.262500X0.450000X-0.262500X-0.450000X0.262500X-0.450000X0*%
%ADD23RoundRect,0.200000X-0.275000X0.200000X-0.275000X-0.200000X0.275000X-0.200000X0.275000X0.200000X0*%
%ADD24RoundRect,0.250000X-0.450000X0.262500X-0.450000X-0.262500X0.450000X-0.262500X0.450000X0.262500X0*%
%ADD25RoundRect,0.243750X0.243750X0.456250X-0.243750X0.456250X-0.243750X-0.456250X0.243750X-0.456250X0*%
%ADD26RoundRect,0.250000X0.650000X-0.325000X0.650000X0.325000X-0.650000X0.325000X-0.650000X-0.325000X0*%
%ADD27RoundRect,0.150000X-0.512500X-0.150000X0.512500X-0.150000X0.512500X0.150000X-0.512500X0.150000X0*%
%ADD28RoundRect,0.150000X-0.587500X-0.150000X0.587500X-0.150000X0.587500X0.150000X-0.587500X0.150000X0*%
%ADD29R,0.600000X1.450000*%
%ADD30R,0.300000X1.450000*%
%ADD31RoundRect,0.042000X0.943000X0.258000X-0.943000X0.258000X-0.943000X-0.258000X0.943000X-0.258000X0*%
%ADD32R,1.500000X2.000000*%
%ADD33R,3.800000X2.000000*%
%ADD34RoundRect,0.150000X0.800000X0.150000X-0.800000X0.150000X-0.800000X-0.150000X0.800000X-0.150000X0*%
%ADD35RoundRect,0.250000X-0.475000X0.250000X-0.475000X-0.250000X0.475000X-0.250000X0.475000X0.250000X0*%
%ADD36RoundRect,0.140000X-0.170000X0.140000X-0.170000X-0.140000X0.170000X-0.140000X0.170000X0.140000X0*%
%ADD37RoundRect,0.243750X-0.456250X0.243750X-0.456250X-0.243750X0.456250X-0.243750X0.456250X0.243750X0*%
%ADD38RoundRect,0.250000X-0.650000X0.325000X-0.650000X-0.325000X0.650000X-0.325000X0.650000X0.325000X0*%
%ADD39R,2.000000X1.500000*%
%ADD40R,2.000000X3.800000*%
%ADD41RoundRect,0.225000X-0.225000X-0.250000X0.225000X-0.250000X0.225000X0.250000X-0.225000X0.250000X0*%
%ADD42R,1.500000X0.900000*%
%ADD43R,0.900000X1.500000*%
%ADD44R,0.900000X0.900000*%
%ADD45R,0.800000X0.600000*%
%ADD46RoundRect,0.200000X0.200000X0.275000X-0.200000X0.275000X-0.200000X-0.275000X0.200000X-0.275000X0*%
%ADD47RoundRect,0.225000X-0.250000X0.225000X-0.250000X-0.225000X0.250000X-0.225000X0.250000X0.225000X0*%
%ADD48RoundRect,0.250000X-0.650000X1.500000X-0.650000X-1.500000X0.650000X-1.500000X0.650000X1.500000X0*%
%ADD49RoundRect,0.250000X0.312500X0.625000X-0.312500X0.625000X-0.312500X-0.625000X0.312500X-0.625000X0*%
%ADD50RoundRect,0.042000X-0.258000X0.943000X-0.258000X-0.943000X0.258000X-0.943000X0.258000X0.943000X0*%
%ADD51R,3.200000X2.200000*%
%ADD52R,0.400000X1.500000*%
%ADD53R,0.450000X1.475000*%
%ADD54RoundRect,0.250000X0.650000X-1.500000X0.650000X1.500000X-0.650000X1.500000X-0.650000X-1.500000X0*%
%ADD55RoundRect,0.012500X-0.112500X0.262500X-0.112500X-0.262500X0.112500X-0.262500X0.112500X0.262500X0*%
%ADD56R,3.400000X0.980000*%
%ADD57RoundRect,0.250000X0.475000X-0.250000X0.475000X0.250000X-0.475000X0.250000X-0.475000X-0.250000X0*%
%ADD58RoundRect,0.250000X-0.315000X0.315000X-0.315000X-0.315000X0.315000X-0.315000X0.315000X0.315000X0*%
%ADD59RoundRect,0.062500X-0.062500X0.350000X-0.062500X-0.350000X0.062500X-0.350000X0.062500X0.350000X0*%
%ADD60RoundRect,0.062500X-0.350000X0.062500X-0.350000X-0.062500X0.350000X-0.062500X0.350000X0.062500X0*%
%ADD61RoundRect,0.100000X0.100000X-0.637500X0.100000X0.637500X-0.100000X0.637500X-0.100000X-0.637500X0*%
%ADD62RoundRect,0.232500X0.232500X-0.757500X0.232500X0.757500X-0.232500X0.757500X-0.232500X-0.757500X0*%
%ADD63RoundRect,0.100000X0.100000X-0.687500X0.100000X0.687500X-0.100000X0.687500X-0.100000X-0.687500X0*%
%ADD64RoundRect,0.140000X0.140000X0.170000X-0.140000X0.170000X-0.140000X-0.170000X0.140000X-0.170000X0*%
G04 APERTURE END LIST*
D10*
D11*
X299989000Y-253002200D02*
X407989000Y-253002200D01*
X407989000Y-285002200D01*
X299989000Y-285002200D01*
X299989000Y-253002200D01*
D10*
D11*
X10000000Y-10000000D02*
X409989000Y-10000000D01*
X409989000Y-287002200D01*
X10000000Y-287002200D01*
X10000000Y-10000000D01*
D10*
D11*
X12000000Y-12000000D02*
X407989000Y-12000000D01*
X407989000Y-285002200D01*
X12000000Y-285002200D01*
X12000000Y-12000000D01*
D10*
D11*
X60000000Y-12000000D02*
X60000000Y-10000000D01*
D10*
D11*
X110000000Y-12000000D02*
X110000000Y-10000000D01*
D10*
D11*
X160000000Y-12000000D02*
X160000000Y-10000000D01*
D10*
D11*
X210000000Y-12000000D02*
X210000000Y-10000000D01*
D10*
D11*
X260000000Y-12000000D02*
X260000000Y-10000000D01*
D10*
D11*
X310000000Y-12000000D02*
X310000000Y-10000000D01*
D10*
D11*
X360000000Y-12000000D02*
X360000000Y-10000000D01*
D10*
D11*
X36089160Y-11593604D02*
X35346303Y-11593604D01*
X35717731Y-11593604D02*
X35717731Y-10293604D01*
X35717731Y-10293604D02*
X35593922Y-10479319D01*
X35593922Y-10479319D02*
X35470112Y-10603128D01*
X35470112Y-10603128D02*
X35346303Y-10665033D01*
D10*
D11*
X85346303Y-10417414D02*
X85408207Y-10355509D01*
X85408207Y-10355509D02*
X85532017Y-10293604D01*
X85532017Y-10293604D02*
X85841541Y-10293604D01*
X85841541Y-10293604D02*
X85965350Y-10355509D01*
X85965350Y-10355509D02*
X86027255Y-10417414D01*
X86027255Y-10417414D02*
X86089160Y-10541223D01*
X86089160Y-10541223D02*
X86089160Y-10665033D01*
X86089160Y-10665033D02*
X86027255Y-10850747D01*
X86027255Y-10850747D02*
X85284398Y-11593604D01*
X85284398Y-11593604D02*
X86089160Y-11593604D01*
D10*
D11*
X135284398Y-10293604D02*
X136089160Y-10293604D01*
X136089160Y-10293604D02*
X135655826Y-10788842D01*
X135655826Y-10788842D02*
X135841541Y-10788842D01*
X135841541Y-10788842D02*
X135965350Y-10850747D01*
X135965350Y-10850747D02*
X136027255Y-10912652D01*
X136027255Y-10912652D02*
X136089160Y-11036461D01*
X136089160Y-11036461D02*
X136089160Y-11345985D01*
X136089160Y-11345985D02*
X136027255Y-11469795D01*
X136027255Y-11469795D02*
X135965350Y-11531700D01*
X135965350Y-11531700D02*
X135841541Y-11593604D01*
X135841541Y-11593604D02*
X135470112Y-11593604D01*
X135470112Y-11593604D02*
X135346303Y-11531700D01*
X135346303Y-11531700D02*
X135284398Y-11469795D01*
D10*
D11*
X185965350Y-10726938D02*
X185965350Y-11593604D01*
X185655826Y-10231700D02*
X185346303Y-11160271D01*
X185346303Y-11160271D02*
X186151064Y-11160271D01*
D10*
D11*
X236027255Y-10293604D02*
X235408207Y-10293604D01*
X235408207Y-10293604D02*
X235346303Y-10912652D01*
X235346303Y-10912652D02*
X235408207Y-10850747D01*
X235408207Y-10850747D02*
X235532017Y-10788842D01*
X235532017Y-10788842D02*
X235841541Y-10788842D01*
X235841541Y-10788842D02*
X235965350Y-10850747D01*
X235965350Y-10850747D02*
X236027255Y-10912652D01*
X236027255Y-10912652D02*
X236089160Y-11036461D01*
X236089160Y-11036461D02*
X236089160Y-11345985D01*
X236089160Y-11345985D02*
X236027255Y-11469795D01*
X236027255Y-11469795D02*
X235965350Y-11531700D01*
X235965350Y-11531700D02*
X235841541Y-11593604D01*
X235841541Y-11593604D02*
X235532017Y-11593604D01*
X235532017Y-11593604D02*
X235408207Y-11531700D01*
X235408207Y-11531700D02*
X235346303Y-11469795D01*
D10*
D11*
X285965350Y-10293604D02*
X285717731Y-10293604D01*
X285717731Y-10293604D02*
X285593922Y-10355509D01*
X285593922Y-10355509D02*
X285532017Y-10417414D01*
X285532017Y-10417414D02*
X285408207Y-10603128D01*
X285408207Y-10603128D02*
X285346303Y-10850747D01*
X285346303Y-10850747D02*
X285346303Y-11345985D01*
X285346303Y-11345985D02*
X285408207Y-11469795D01*
X285408207Y-11469795D02*
X285470112Y-11531700D01*
X285470112Y-11531700D02*
X285593922Y-11593604D01*
X285593922Y-11593604D02*
X285841541Y-11593604D01*
X285841541Y-11593604D02*
X285965350Y-11531700D01*
X285965350Y-11531700D02*
X286027255Y-11469795D01*
X286027255Y-11469795D02*
X286089160Y-11345985D01*
X286089160Y-11345985D02*
X286089160Y-11036461D01*
X286089160Y-11036461D02*
X286027255Y-10912652D01*
X286027255Y-10912652D02*
X285965350Y-10850747D01*
X285965350Y-10850747D02*
X285841541Y-10788842D01*
X285841541Y-10788842D02*
X285593922Y-10788842D01*
X285593922Y-10788842D02*
X285470112Y-10850747D01*
X285470112Y-10850747D02*
X285408207Y-10912652D01*
X285408207Y-10912652D02*
X285346303Y-11036461D01*
D10*
D11*
X335284398Y-10293604D02*
X336151064Y-10293604D01*
X336151064Y-10293604D02*
X335593922Y-11593604D01*
D10*
D11*
X385593922Y-10850747D02*
X385470112Y-10788842D01*
X385470112Y-10788842D02*
X385408207Y-10726938D01*
X385408207Y-10726938D02*
X385346303Y-10603128D01*
X385346303Y-10603128D02*
X385346303Y-10541223D01*
X385346303Y-10541223D02*
X385408207Y-10417414D01*
X385408207Y-10417414D02*
X385470112Y-10355509D01*
X385470112Y-10355509D02*
X385593922Y-10293604D01*
X385593922Y-10293604D02*
X385841541Y-10293604D01*
X385841541Y-10293604D02*
X385965350Y-10355509D01*
X385965350Y-10355509D02*
X386027255Y-10417414D01*
X386027255Y-10417414D02*
X386089160Y-10541223D01*
X386089160Y-10541223D02*
X386089160Y-10603128D01*
X386089160Y-10603128D02*
X386027255Y-10726938D01*
X386027255Y-10726938D02*
X385965350Y-10788842D01*
X385965350Y-10788842D02*
X385841541Y-10850747D01*
X385841541Y-10850747D02*
X385593922Y-10850747D01*
X385593922Y-10850747D02*
X385470112Y-10912652D01*
X385470112Y-10912652D02*
X385408207Y-10974557D01*
X385408207Y-10974557D02*
X385346303Y-11098366D01*
X385346303Y-11098366D02*
X385346303Y-11345985D01*
X385346303Y-11345985D02*
X385408207Y-11469795D01*
X385408207Y-11469795D02*
X385470112Y-11531700D01*
X385470112Y-11531700D02*
X385593922Y-11593604D01*
X385593922Y-11593604D02*
X385841541Y-11593604D01*
X385841541Y-11593604D02*
X385965350Y-11531700D01*
X385965350Y-11531700D02*
X386027255Y-11469795D01*
X386027255Y-11469795D02*
X386089160Y-11345985D01*
X386089160Y-11345985D02*
X386089160Y-11098366D01*
X386089160Y-11098366D02*
X386027255Y-10974557D01*
X386027255Y-10974557D02*
X385965350Y-10912652D01*
X385965350Y-10912652D02*
X385841541Y-10850747D01*
D10*
D11*
X60000000Y-285002200D02*
X60000000Y-287002200D01*
D10*
D11*
X110000000Y-285002200D02*
X110000000Y-287002200D01*
D10*
D11*
X160000000Y-285002200D02*
X160000000Y-287002200D01*
D10*
D11*
X210000000Y-285002200D02*
X210000000Y-287002200D01*
D10*
D11*
X260000000Y-285002200D02*
X260000000Y-287002200D01*
D10*
D11*
X310000000Y-285002200D02*
X310000000Y-287002200D01*
D10*
D11*
X360000000Y-285002200D02*
X360000000Y-287002200D01*
D10*
D11*
X36089160Y-286595804D02*
X35346303Y-286595804D01*
X35717731Y-286595804D02*
X35717731Y-285295804D01*
X35717731Y-285295804D02*
X35593922Y-285481519D01*
X35593922Y-285481519D02*
X35470112Y-285605328D01*
X35470112Y-285605328D02*
X35346303Y-285667233D01*
D10*
D11*
X85346303Y-285419614D02*
X85408207Y-285357709D01*
X85408207Y-285357709D02*
X85532017Y-285295804D01*
X85532017Y-285295804D02*
X85841541Y-285295804D01*
X85841541Y-285295804D02*
X85965350Y-285357709D01*
X85965350Y-285357709D02*
X86027255Y-285419614D01*
X86027255Y-285419614D02*
X86089160Y-285543423D01*
X86089160Y-285543423D02*
X86089160Y-285667233D01*
X86089160Y-285667233D02*
X86027255Y-285852947D01*
X86027255Y-285852947D02*
X85284398Y-286595804D01*
X85284398Y-286595804D02*
X86089160Y-286595804D01*
D10*
D11*
X135284398Y-285295804D02*
X136089160Y-285295804D01*
X136089160Y-285295804D02*
X135655826Y-285791042D01*
X135655826Y-285791042D02*
X135841541Y-285791042D01*
X135841541Y-285791042D02*
X135965350Y-285852947D01*
X135965350Y-285852947D02*
X136027255Y-285914852D01*
X136027255Y-285914852D02*
X136089160Y-286038661D01*
X136089160Y-286038661D02*
X136089160Y-286348185D01*
X136089160Y-286348185D02*
X136027255Y-286471995D01*
X136027255Y-286471995D02*
X135965350Y-286533900D01*
X135965350Y-286533900D02*
X135841541Y-286595804D01*
X135841541Y-286595804D02*
X135470112Y-286595804D01*
X135470112Y-286595804D02*
X135346303Y-286533900D01*
X135346303Y-286533900D02*
X135284398Y-286471995D01*
D10*
D11*
X185965350Y-285729138D02*
X185965350Y-286595804D01*
X185655826Y-285233900D02*
X185346303Y-286162471D01*
X185346303Y-286162471D02*
X186151064Y-286162471D01*
D10*
D11*
X236027255Y-285295804D02*
X235408207Y-285295804D01*
X235408207Y-285295804D02*
X235346303Y-285914852D01*
X235346303Y-285914852D02*
X235408207Y-285852947D01*
X235408207Y-285852947D02*
X235532017Y-285791042D01*
X235532017Y-285791042D02*
X235841541Y-285791042D01*
X235841541Y-285791042D02*
X235965350Y-285852947D01*
X235965350Y-285852947D02*
X236027255Y-285914852D01*
X236027255Y-285914852D02*
X236089160Y-286038661D01*
X236089160Y-286038661D02*
X236089160Y-286348185D01*
X236089160Y-286348185D02*
X236027255Y-286471995D01*
X236027255Y-286471995D02*
X235965350Y-286533900D01*
X235965350Y-286533900D02*
X235841541Y-286595804D01*
X235841541Y-286595804D02*
X235532017Y-286595804D01*
X235532017Y-286595804D02*
X235408207Y-286533900D01*
X235408207Y-286533900D02*
X235346303Y-286471995D01*
D10*
D11*
X285965350Y-285295804D02*
X285717731Y-285295804D01*
X285717731Y-285295804D02*
X285593922Y-285357709D01*
X285593922Y-285357709D02*
X285532017Y-285419614D01*
X285532017Y-285419614D02*
X285408207Y-285605328D01*
X285408207Y-285605328D02*
X285346303Y-285852947D01*
X285346303Y-285852947D02*
X285346303Y-286348185D01*
X285346303Y-286348185D02*
X285408207Y-286471995D01*
X285408207Y-286471995D02*
X285470112Y-286533900D01*
X285470112Y-286533900D02*
X285593922Y-286595804D01*
X285593922Y-286595804D02*
X285841541Y-286595804D01*
X285841541Y-286595804D02*
X285965350Y-286533900D01*
X285965350Y-286533900D02*
X286027255Y-286471995D01*
X286027255Y-286471995D02*
X286089160Y-286348185D01*
X286089160Y-286348185D02*
X286089160Y-286038661D01*
X286089160Y-286038661D02*
X286027255Y-285914852D01*
X286027255Y-285914852D02*
X285965350Y-285852947D01*
X285965350Y-285852947D02*
X285841541Y-285791042D01*
X285841541Y-285791042D02*
X285593922Y-285791042D01*
X285593922Y-285791042D02*
X285470112Y-285852947D01*
X285470112Y-285852947D02*
X285408207Y-285914852D01*
X285408207Y-285914852D02*
X285346303Y-286038661D01*
D10*
D11*
X335284398Y-285295804D02*
X336151064Y-285295804D01*
X336151064Y-285295804D02*
X335593922Y-286595804D01*
D10*
D11*
X385593922Y-285852947D02*
X385470112Y-285791042D01*
X385470112Y-285791042D02*
X385408207Y-285729138D01*
X385408207Y-285729138D02*
X385346303Y-285605328D01*
X385346303Y-285605328D02*
X385346303Y-285543423D01*
X385346303Y-285543423D02*
X385408207Y-285419614D01*
X385408207Y-285419614D02*
X385470112Y-285357709D01*
X385470112Y-285357709D02*
X385593922Y-285295804D01*
X385593922Y-285295804D02*
X385841541Y-285295804D01*
X385841541Y-285295804D02*
X385965350Y-285357709D01*
X385965350Y-285357709D02*
X386027255Y-285419614D01*
X386027255Y-285419614D02*
X386089160Y-285543423D01*
X386089160Y-285543423D02*
X386089160Y-285605328D01*
X386089160Y-285605328D02*
X386027255Y-285729138D01*
X386027255Y-285729138D02*
X385965350Y-285791042D01*
X385965350Y-285791042D02*
X385841541Y-285852947D01*
X385841541Y-285852947D02*
X385593922Y-285852947D01*
X385593922Y-285852947D02*
X385470112Y-285914852D01*
X385470112Y-285914852D02*
X385408207Y-285976757D01*
X385408207Y-285976757D02*
X385346303Y-286100566D01*
X385346303Y-286100566D02*
X385346303Y-286348185D01*
X385346303Y-286348185D02*
X385408207Y-286471995D01*
X385408207Y-286471995D02*
X385470112Y-286533900D01*
X385470112Y-286533900D02*
X385593922Y-286595804D01*
X385593922Y-286595804D02*
X385841541Y-286595804D01*
X385841541Y-286595804D02*
X385965350Y-286533900D01*
X385965350Y-286533900D02*
X386027255Y-286471995D01*
X386027255Y-286471995D02*
X386089160Y-286348185D01*
X386089160Y-286348185D02*
X386089160Y-286100566D01*
X386089160Y-286100566D02*
X386027255Y-285976757D01*
X386027255Y-285976757D02*
X385965350Y-285914852D01*
X385965350Y-285914852D02*
X385841541Y-285852947D01*
D10*
D11*
X10000000Y-60000000D02*
X12000000Y-60000000D01*
D10*
D11*
X10000000Y-110000000D02*
X12000000Y-110000000D01*
D10*
D11*
X10000000Y-160000000D02*
X12000000Y-160000000D01*
D10*
D11*
X10000000Y-210000000D02*
X12000000Y-210000000D01*
D10*
D11*
X10000000Y-260000000D02*
X12000000Y-260000000D01*
D10*
D11*
X10690476Y-35222176D02*
X11309523Y-35222176D01*
X10566666Y-35593604D02*
X10999999Y-34293604D01*
X10999999Y-34293604D02*
X11433333Y-35593604D01*
D10*
D11*
X11092857Y-84912652D02*
X11278571Y-84974557D01*
X11278571Y-84974557D02*
X11340476Y-85036461D01*
X11340476Y-85036461D02*
X11402380Y-85160271D01*
X11402380Y-85160271D02*
X11402380Y-85345985D01*
X11402380Y-85345985D02*
X11340476Y-85469795D01*
X11340476Y-85469795D02*
X11278571Y-85531700D01*
X11278571Y-85531700D02*
X11154761Y-85593604D01*
X11154761Y-85593604D02*
X10659523Y-85593604D01*
X10659523Y-85593604D02*
X10659523Y-84293604D01*
X10659523Y-84293604D02*
X11092857Y-84293604D01*
X11092857Y-84293604D02*
X11216666Y-84355509D01*
X11216666Y-84355509D02*
X11278571Y-84417414D01*
X11278571Y-84417414D02*
X11340476Y-84541223D01*
X11340476Y-84541223D02*
X11340476Y-84665033D01*
X11340476Y-84665033D02*
X11278571Y-84788842D01*
X11278571Y-84788842D02*
X11216666Y-84850747D01*
X11216666Y-84850747D02*
X11092857Y-84912652D01*
X11092857Y-84912652D02*
X10659523Y-84912652D01*
D10*
D11*
X11402380Y-135469795D02*
X11340476Y-135531700D01*
X11340476Y-135531700D02*
X11154761Y-135593604D01*
X11154761Y-135593604D02*
X11030952Y-135593604D01*
X11030952Y-135593604D02*
X10845238Y-135531700D01*
X10845238Y-135531700D02*
X10721428Y-135407890D01*
X10721428Y-135407890D02*
X10659523Y-135284080D01*
X10659523Y-135284080D02*
X10597619Y-135036461D01*
X10597619Y-135036461D02*
X10597619Y-134850747D01*
X10597619Y-134850747D02*
X10659523Y-134603128D01*
X10659523Y-134603128D02*
X10721428Y-134479319D01*
X10721428Y-134479319D02*
X10845238Y-134355509D01*
X10845238Y-134355509D02*
X11030952Y-134293604D01*
X11030952Y-134293604D02*
X11154761Y-134293604D01*
X11154761Y-134293604D02*
X11340476Y-134355509D01*
X11340476Y-134355509D02*
X11402380Y-134417414D01*
D10*
D11*
X10659523Y-185593604D02*
X10659523Y-184293604D01*
X10659523Y-184293604D02*
X10969047Y-184293604D01*
X10969047Y-184293604D02*
X11154761Y-184355509D01*
X11154761Y-184355509D02*
X11278571Y-184479319D01*
X11278571Y-184479319D02*
X11340476Y-184603128D01*
X11340476Y-184603128D02*
X11402380Y-184850747D01*
X11402380Y-184850747D02*
X11402380Y-185036461D01*
X11402380Y-185036461D02*
X11340476Y-185284080D01*
X11340476Y-185284080D02*
X11278571Y-185407890D01*
X11278571Y-185407890D02*
X11154761Y-185531700D01*
X11154761Y-185531700D02*
X10969047Y-185593604D01*
X10969047Y-185593604D02*
X10659523Y-185593604D01*
D10*
D11*
X10721428Y-234912652D02*
X11154762Y-234912652D01*
X11340476Y-235593604D02*
X10721428Y-235593604D01*
X10721428Y-235593604D02*
X10721428Y-234293604D01*
X10721428Y-234293604D02*
X11340476Y-234293604D01*
D10*
D11*
X11185714Y-284912652D02*
X10752380Y-284912652D01*
X10752380Y-285593604D02*
X10752380Y-284293604D01*
X10752380Y-284293604D02*
X11371428Y-284293604D01*
D10*
D11*
X409989000Y-60000000D02*
X407989000Y-60000000D01*
D10*
D11*
X409989000Y-110000000D02*
X407989000Y-110000000D01*
D10*
D11*
X409989000Y-160000000D02*
X407989000Y-160000000D01*
D10*
D11*
X409989000Y-210000000D02*
X407989000Y-210000000D01*
D10*
D11*
X409989000Y-260000000D02*
X407989000Y-260000000D01*
D10*
D11*
X408679476Y-35222176D02*
X409298523Y-35222176D01*
X408555666Y-35593604D02*
X408988999Y-34293604D01*
X408988999Y-34293604D02*
X409422333Y-35593604D01*
D10*
D11*
X409081857Y-84912652D02*
X409267571Y-84974557D01*
X409267571Y-84974557D02*
X409329476Y-85036461D01*
X409329476Y-85036461D02*
X409391380Y-85160271D01*
X409391380Y-85160271D02*
X409391380Y-85345985D01*
X409391380Y-85345985D02*
X409329476Y-85469795D01*
X409329476Y-85469795D02*
X409267571Y-85531700D01*
X409267571Y-85531700D02*
X409143761Y-85593604D01*
X409143761Y-85593604D02*
X408648523Y-85593604D01*
X408648523Y-85593604D02*
X408648523Y-84293604D01*
X408648523Y-84293604D02*
X409081857Y-84293604D01*
X409081857Y-84293604D02*
X409205666Y-84355509D01*
X409205666Y-84355509D02*
X409267571Y-84417414D01*
X409267571Y-84417414D02*
X409329476Y-84541223D01*
X409329476Y-84541223D02*
X409329476Y-84665033D01*
X409329476Y-84665033D02*
X409267571Y-84788842D01*
X409267571Y-84788842D02*
X409205666Y-84850747D01*
X409205666Y-84850747D02*
X409081857Y-84912652D01*
X409081857Y-84912652D02*
X408648523Y-84912652D01*
D10*
D11*
X409391380Y-135469795D02*
X409329476Y-135531700D01*
X409329476Y-135531700D02*
X409143761Y-135593604D01*
X409143761Y-135593604D02*
X409019952Y-135593604D01*
X409019952Y-135593604D02*
X408834238Y-135531700D01*
X408834238Y-135531700D02*
X408710428Y-135407890D01*
X408710428Y-135407890D02*
X408648523Y-135284080D01*
X408648523Y-135284080D02*
X408586619Y-135036461D01*
X408586619Y-135036461D02*
X408586619Y-134850747D01*
X408586619Y-134850747D02*
X408648523Y-134603128D01*
X408648523Y-134603128D02*
X408710428Y-134479319D01*
X408710428Y-134479319D02*
X408834238Y-134355509D01*
X408834238Y-134355509D02*
X409019952Y-134293604D01*
X409019952Y-134293604D02*
X409143761Y-134293604D01*
X409143761Y-134293604D02*
X409329476Y-134355509D01*
X409329476Y-134355509D02*
X409391380Y-134417414D01*
D10*
D11*
X408648523Y-185593604D02*
X408648523Y-184293604D01*
X408648523Y-184293604D02*
X408958047Y-184293604D01*
X408958047Y-184293604D02*
X409143761Y-184355509D01*
X409143761Y-184355509D02*
X409267571Y-184479319D01*
X409267571Y-184479319D02*
X409329476Y-184603128D01*
X409329476Y-184603128D02*
X409391380Y-184850747D01*
X409391380Y-184850747D02*
X409391380Y-185036461D01*
X409391380Y-185036461D02*
X409329476Y-185284080D01*
X409329476Y-185284080D02*
X409267571Y-185407890D01*
X409267571Y-185407890D02*
X409143761Y-185531700D01*
X409143761Y-185531700D02*
X408958047Y-185593604D01*
X408958047Y-185593604D02*
X408648523Y-185593604D01*
D10*
D11*
X408710428Y-234912652D02*
X409143762Y-234912652D01*
X409329476Y-235593604D02*
X408710428Y-235593604D01*
X408710428Y-235593604D02*
X408710428Y-234293604D01*
X408710428Y-234293604D02*
X409329476Y-234293604D01*
D10*
D11*
X409174714Y-284912652D02*
X408741380Y-284912652D01*
X408741380Y-285593604D02*
X408741380Y-284293604D01*
X408741380Y-284293604D02*
X409360428Y-284293604D01*
D10*
D11*
X323444826Y-280788328D02*
X323444826Y-279288328D01*
X323444826Y-279288328D02*
X323801969Y-279288328D01*
X323801969Y-279288328D02*
X324016255Y-279359757D01*
X324016255Y-279359757D02*
X324159112Y-279502614D01*
X324159112Y-279502614D02*
X324230541Y-279645471D01*
X324230541Y-279645471D02*
X324301969Y-279931185D01*
X324301969Y-279931185D02*
X324301969Y-280145471D01*
X324301969Y-280145471D02*
X324230541Y-280431185D01*
X324230541Y-280431185D02*
X324159112Y-280574042D01*
X324159112Y-280574042D02*
X324016255Y-280716900D01*
X324016255Y-280716900D02*
X323801969Y-280788328D01*
X323801969Y-280788328D02*
X323444826Y-280788328D01*
X325587684Y-280788328D02*
X325587684Y-280002614D01*
X325587684Y-280002614D02*
X325516255Y-279859757D01*
X325516255Y-279859757D02*
X325373398Y-279788328D01*
X325373398Y-279788328D02*
X325087684Y-279788328D01*
X325087684Y-279788328D02*
X324944826Y-279859757D01*
X325587684Y-280716900D02*
X325444826Y-280788328D01*
X325444826Y-280788328D02*
X325087684Y-280788328D01*
X325087684Y-280788328D02*
X324944826Y-280716900D01*
X324944826Y-280716900D02*
X324873398Y-280574042D01*
X324873398Y-280574042D02*
X324873398Y-280431185D01*
X324873398Y-280431185D02*
X324944826Y-280288328D01*
X324944826Y-280288328D02*
X325087684Y-280216900D01*
X325087684Y-280216900D02*
X325444826Y-280216900D01*
X325444826Y-280216900D02*
X325587684Y-280145471D01*
X326087684Y-279788328D02*
X326659112Y-279788328D01*
X326301969Y-279288328D02*
X326301969Y-280574042D01*
X326301969Y-280574042D02*
X326373398Y-280716900D01*
X326373398Y-280716900D02*
X326516255Y-280788328D01*
X326516255Y-280788328D02*
X326659112Y-280788328D01*
X327730541Y-280716900D02*
X327587684Y-280788328D01*
X327587684Y-280788328D02*
X327301970Y-280788328D01*
X327301970Y-280788328D02*
X327159112Y-280716900D01*
X327159112Y-280716900D02*
X327087684Y-280574042D01*
X327087684Y-280574042D02*
X327087684Y-280002614D01*
X327087684Y-280002614D02*
X327159112Y-279859757D01*
X327159112Y-279859757D02*
X327301970Y-279788328D01*
X327301970Y-279788328D02*
X327587684Y-279788328D01*
X327587684Y-279788328D02*
X327730541Y-279859757D01*
X327730541Y-279859757D02*
X327801970Y-280002614D01*
X327801970Y-280002614D02*
X327801970Y-280145471D01*
X327801970Y-280145471D02*
X327087684Y-280288328D01*
X328444826Y-280645471D02*
X328516255Y-280716900D01*
X328516255Y-280716900D02*
X328444826Y-280788328D01*
X328444826Y-280788328D02*
X328373398Y-280716900D01*
X328373398Y-280716900D02*
X328444826Y-280645471D01*
X328444826Y-280645471D02*
X328444826Y-280788328D01*
X328444826Y-279859757D02*
X328516255Y-279931185D01*
X328516255Y-279931185D02*
X328444826Y-280002614D01*
X328444826Y-280002614D02*
X328373398Y-279931185D01*
X328373398Y-279931185D02*
X328444826Y-279859757D01*
X328444826Y-279859757D02*
X328444826Y-280002614D01*
D10*
D11*
X299989000Y-281502200D02*
X407989000Y-281502200D01*
D10*
D11*
X301444826Y-283588328D02*
X301444826Y-282088328D01*
X302301969Y-283588328D02*
X301659112Y-282731185D01*
X302301969Y-282088328D02*
X301444826Y-282945471D01*
X302944826Y-283588328D02*
X302944826Y-282588328D01*
X302944826Y-282088328D02*
X302873398Y-282159757D01*
X302873398Y-282159757D02*
X302944826Y-282231185D01*
X302944826Y-282231185D02*
X303016255Y-282159757D01*
X303016255Y-282159757D02*
X302944826Y-282088328D01*
X302944826Y-282088328D02*
X302944826Y-282231185D01*
X304516255Y-283445471D02*
X304444827Y-283516900D01*
X304444827Y-283516900D02*
X304230541Y-283588328D01*
X304230541Y-283588328D02*
X304087684Y-283588328D01*
X304087684Y-283588328D02*
X303873398Y-283516900D01*
X303873398Y-283516900D02*
X303730541Y-283374042D01*
X303730541Y-283374042D02*
X303659112Y-283231185D01*
X303659112Y-283231185D02*
X303587684Y-282945471D01*
X303587684Y-282945471D02*
X303587684Y-282731185D01*
X303587684Y-282731185D02*
X303659112Y-282445471D01*
X303659112Y-282445471D02*
X303730541Y-282302614D01*
X303730541Y-282302614D02*
X303873398Y-282159757D01*
X303873398Y-282159757D02*
X304087684Y-282088328D01*
X304087684Y-282088328D02*
X304230541Y-282088328D01*
X304230541Y-282088328D02*
X304444827Y-282159757D01*
X304444827Y-282159757D02*
X304516255Y-282231185D01*
X305801970Y-283588328D02*
X305801970Y-282802614D01*
X305801970Y-282802614D02*
X305730541Y-282659757D01*
X305730541Y-282659757D02*
X305587684Y-282588328D01*
X305587684Y-282588328D02*
X305301970Y-282588328D01*
X305301970Y-282588328D02*
X305159112Y-282659757D01*
X305801970Y-283516900D02*
X305659112Y-283588328D01*
X305659112Y-283588328D02*
X305301970Y-283588328D01*
X305301970Y-283588328D02*
X305159112Y-283516900D01*
X305159112Y-283516900D02*
X305087684Y-283374042D01*
X305087684Y-283374042D02*
X305087684Y-283231185D01*
X305087684Y-283231185D02*
X305159112Y-283088328D01*
X305159112Y-283088328D02*
X305301970Y-283016900D01*
X305301970Y-283016900D02*
X305659112Y-283016900D01*
X305659112Y-283016900D02*
X305801970Y-282945471D01*
X307159113Y-283588328D02*
X307159113Y-282088328D01*
X307159113Y-283516900D02*
X307016255Y-283588328D01*
X307016255Y-283588328D02*
X306730541Y-283588328D01*
X306730541Y-283588328D02*
X306587684Y-283516900D01*
X306587684Y-283516900D02*
X306516255Y-283445471D01*
X306516255Y-283445471D02*
X306444827Y-283302614D01*
X306444827Y-283302614D02*
X306444827Y-282874042D01*
X306444827Y-282874042D02*
X306516255Y-282731185D01*
X306516255Y-282731185D02*
X306587684Y-282659757D01*
X306587684Y-282659757D02*
X306730541Y-282588328D01*
X306730541Y-282588328D02*
X307016255Y-282588328D01*
X307016255Y-282588328D02*
X307159113Y-282659757D01*
X309016255Y-282802614D02*
X309516255Y-282802614D01*
X309730541Y-283588328D02*
X309016255Y-283588328D01*
X309016255Y-283588328D02*
X309016255Y-282088328D01*
X309016255Y-282088328D02*
X309730541Y-282088328D01*
X310373398Y-283445471D02*
X310444827Y-283516900D01*
X310444827Y-283516900D02*
X310373398Y-283588328D01*
X310373398Y-283588328D02*
X310301970Y-283516900D01*
X310301970Y-283516900D02*
X310373398Y-283445471D01*
X310373398Y-283445471D02*
X310373398Y-283588328D01*
X311087684Y-283588328D02*
X311087684Y-282088328D01*
X311087684Y-282088328D02*
X311444827Y-282088328D01*
X311444827Y-282088328D02*
X311659113Y-282159757D01*
X311659113Y-282159757D02*
X311801970Y-282302614D01*
X311801970Y-282302614D02*
X311873399Y-282445471D01*
X311873399Y-282445471D02*
X311944827Y-282731185D01*
X311944827Y-282731185D02*
X311944827Y-282945471D01*
X311944827Y-282945471D02*
X311873399Y-283231185D01*
X311873399Y-283231185D02*
X311801970Y-283374042D01*
X311801970Y-283374042D02*
X311659113Y-283516900D01*
X311659113Y-283516900D02*
X311444827Y-283588328D01*
X311444827Y-283588328D02*
X311087684Y-283588328D01*
X312587684Y-283445471D02*
X312659113Y-283516900D01*
X312659113Y-283516900D02*
X312587684Y-283588328D01*
X312587684Y-283588328D02*
X312516256Y-283516900D01*
X312516256Y-283516900D02*
X312587684Y-283445471D01*
X312587684Y-283445471D02*
X312587684Y-283588328D01*
X313230542Y-283159757D02*
X313944828Y-283159757D01*
X313087685Y-283588328D02*
X313587685Y-282088328D01*
X313587685Y-282088328D02*
X314087685Y-283588328D01*
X314587684Y-283445471D02*
X314659113Y-283516900D01*
X314659113Y-283516900D02*
X314587684Y-283588328D01*
X314587684Y-283588328D02*
X314516256Y-283516900D01*
X314516256Y-283516900D02*
X314587684Y-283445471D01*
X314587684Y-283445471D02*
X314587684Y-283588328D01*
X317587684Y-283588328D02*
X317587684Y-282088328D01*
X317730542Y-283016900D02*
X318159113Y-283588328D01*
X318159113Y-282588328D02*
X317587684Y-283159757D01*
X318801970Y-283588328D02*
X318801970Y-282588328D01*
X318801970Y-282088328D02*
X318730542Y-282159757D01*
X318730542Y-282159757D02*
X318801970Y-282231185D01*
X318801970Y-282231185D02*
X318873399Y-282159757D01*
X318873399Y-282159757D02*
X318801970Y-282088328D01*
X318801970Y-282088328D02*
X318801970Y-282231185D01*
X320159114Y-283516900D02*
X320016256Y-283588328D01*
X320016256Y-283588328D02*
X319730542Y-283588328D01*
X319730542Y-283588328D02*
X319587685Y-283516900D01*
X319587685Y-283516900D02*
X319516256Y-283445471D01*
X319516256Y-283445471D02*
X319444828Y-283302614D01*
X319444828Y-283302614D02*
X319444828Y-282874042D01*
X319444828Y-282874042D02*
X319516256Y-282731185D01*
X319516256Y-282731185D02*
X319587685Y-282659757D01*
X319587685Y-282659757D02*
X319730542Y-282588328D01*
X319730542Y-282588328D02*
X320016256Y-282588328D01*
X320016256Y-282588328D02*
X320159114Y-282659757D01*
X321444828Y-283588328D02*
X321444828Y-282802614D01*
X321444828Y-282802614D02*
X321373399Y-282659757D01*
X321373399Y-282659757D02*
X321230542Y-282588328D01*
X321230542Y-282588328D02*
X320944828Y-282588328D01*
X320944828Y-282588328D02*
X320801970Y-282659757D01*
X321444828Y-283516900D02*
X321301970Y-283588328D01*
X321301970Y-283588328D02*
X320944828Y-283588328D01*
X320944828Y-283588328D02*
X320801970Y-283516900D01*
X320801970Y-283516900D02*
X320730542Y-283374042D01*
X320730542Y-283374042D02*
X320730542Y-283231185D01*
X320730542Y-283231185D02*
X320801970Y-283088328D01*
X320801970Y-283088328D02*
X320944828Y-283016900D01*
X320944828Y-283016900D02*
X321301970Y-283016900D01*
X321301970Y-283016900D02*
X321444828Y-282945471D01*
X322801971Y-283588328D02*
X322801971Y-282088328D01*
X322801971Y-283516900D02*
X322659113Y-283588328D01*
X322659113Y-283588328D02*
X322373399Y-283588328D01*
X322373399Y-283588328D02*
X322230542Y-283516900D01*
X322230542Y-283516900D02*
X322159113Y-283445471D01*
X322159113Y-283445471D02*
X322087685Y-283302614D01*
X322087685Y-283302614D02*
X322087685Y-282874042D01*
X322087685Y-282874042D02*
X322159113Y-282731185D01*
X322159113Y-282731185D02*
X322230542Y-282659757D01*
X322230542Y-282659757D02*
X322373399Y-282588328D01*
X322373399Y-282588328D02*
X322659113Y-282588328D01*
X322659113Y-282588328D02*
X322801971Y-282659757D01*
X324516256Y-282088328D02*
X325516256Y-282088328D01*
X325516256Y-282088328D02*
X324873399Y-283588328D01*
X326087684Y-283445471D02*
X326159113Y-283516900D01*
X326159113Y-283516900D02*
X326087684Y-283588328D01*
X326087684Y-283588328D02*
X326016256Y-283516900D01*
X326016256Y-283516900D02*
X326087684Y-283445471D01*
X326087684Y-283445471D02*
X326087684Y-283588328D01*
X327087685Y-282088328D02*
X327230542Y-282088328D01*
X327230542Y-282088328D02*
X327373399Y-282159757D01*
X327373399Y-282159757D02*
X327444828Y-282231185D01*
X327444828Y-282231185D02*
X327516256Y-282374042D01*
X327516256Y-282374042D02*
X327587685Y-282659757D01*
X327587685Y-282659757D02*
X327587685Y-283016900D01*
X327587685Y-283016900D02*
X327516256Y-283302614D01*
X327516256Y-283302614D02*
X327444828Y-283445471D01*
X327444828Y-283445471D02*
X327373399Y-283516900D01*
X327373399Y-283516900D02*
X327230542Y-283588328D01*
X327230542Y-283588328D02*
X327087685Y-283588328D01*
X327087685Y-283588328D02*
X326944828Y-283516900D01*
X326944828Y-283516900D02*
X326873399Y-283445471D01*
X326873399Y-283445471D02*
X326801970Y-283302614D01*
X326801970Y-283302614D02*
X326730542Y-283016900D01*
X326730542Y-283016900D02*
X326730542Y-282659757D01*
X326730542Y-282659757D02*
X326801970Y-282374042D01*
X326801970Y-282374042D02*
X326873399Y-282231185D01*
X326873399Y-282231185D02*
X326944828Y-282159757D01*
X326944828Y-282159757D02*
X327087685Y-282088328D01*
X328230541Y-283445471D02*
X328301970Y-283516900D01*
X328301970Y-283516900D02*
X328230541Y-283588328D01*
X328230541Y-283588328D02*
X328159113Y-283516900D01*
X328159113Y-283516900D02*
X328230541Y-283445471D01*
X328230541Y-283445471D02*
X328230541Y-283588328D01*
X329730542Y-283588328D02*
X328873399Y-283588328D01*
X329301970Y-283588328D02*
X329301970Y-282088328D01*
X329301970Y-282088328D02*
X329159113Y-282302614D01*
X329159113Y-282302614D02*
X329016256Y-282445471D01*
X329016256Y-282445471D02*
X328873399Y-282516900D01*
X330659113Y-282088328D02*
X330801970Y-282088328D01*
X330801970Y-282088328D02*
X330944827Y-282159757D01*
X330944827Y-282159757D02*
X331016256Y-282231185D01*
X331016256Y-282231185D02*
X331087684Y-282374042D01*
X331087684Y-282374042D02*
X331159113Y-282659757D01*
X331159113Y-282659757D02*
X331159113Y-283016900D01*
X331159113Y-283016900D02*
X331087684Y-283302614D01*
X331087684Y-283302614D02*
X331016256Y-283445471D01*
X331016256Y-283445471D02*
X330944827Y-283516900D01*
X330944827Y-283516900D02*
X330801970Y-283588328D01*
X330801970Y-283588328D02*
X330659113Y-283588328D01*
X330659113Y-283588328D02*
X330516256Y-283516900D01*
X330516256Y-283516900D02*
X330444827Y-283445471D01*
X330444827Y-283445471D02*
X330373398Y-283302614D01*
X330373398Y-283302614D02*
X330301970Y-283016900D01*
X330301970Y-283016900D02*
X330301970Y-282659757D01*
X330301970Y-282659757D02*
X330373398Y-282374042D01*
X330373398Y-282374042D02*
X330444827Y-282231185D01*
X330444827Y-282231185D02*
X330516256Y-282159757D01*
X330516256Y-282159757D02*
X330659113Y-282088328D01*
X331801969Y-283016900D02*
X332944827Y-283016900D01*
X333516255Y-282088328D02*
X334516255Y-282088328D01*
X334516255Y-282088328D02*
X333873398Y-283588328D01*
X335087683Y-283445471D02*
X335159112Y-283516900D01*
X335159112Y-283516900D02*
X335087683Y-283588328D01*
X335087683Y-283588328D02*
X335016255Y-283516900D01*
X335016255Y-283516900D02*
X335087683Y-283445471D01*
X335087683Y-283445471D02*
X335087683Y-283588328D01*
X336087684Y-282088328D02*
X336230541Y-282088328D01*
X336230541Y-282088328D02*
X336373398Y-282159757D01*
X336373398Y-282159757D02*
X336444827Y-282231185D01*
X336444827Y-282231185D02*
X336516255Y-282374042D01*
X336516255Y-282374042D02*
X336587684Y-282659757D01*
X336587684Y-282659757D02*
X336587684Y-283016900D01*
X336587684Y-283016900D02*
X336516255Y-283302614D01*
X336516255Y-283302614D02*
X336444827Y-283445471D01*
X336444827Y-283445471D02*
X336373398Y-283516900D01*
X336373398Y-283516900D02*
X336230541Y-283588328D01*
X336230541Y-283588328D02*
X336087684Y-283588328D01*
X336087684Y-283588328D02*
X335944827Y-283516900D01*
X335944827Y-283516900D02*
X335873398Y-283445471D01*
X335873398Y-283445471D02*
X335801969Y-283302614D01*
X335801969Y-283302614D02*
X335730541Y-283016900D01*
X335730541Y-283016900D02*
X335730541Y-282659757D01*
X335730541Y-282659757D02*
X335801969Y-282374042D01*
X335801969Y-282374042D02*
X335873398Y-282231185D01*
X335873398Y-282231185D02*
X335944827Y-282159757D01*
X335944827Y-282159757D02*
X336087684Y-282088328D01*
X337230540Y-283445471D02*
X337301969Y-283516900D01*
X337301969Y-283516900D02*
X337230540Y-283588328D01*
X337230540Y-283588328D02*
X337159112Y-283516900D01*
X337159112Y-283516900D02*
X337230540Y-283445471D01*
X337230540Y-283445471D02*
X337230540Y-283588328D01*
X338730541Y-283588328D02*
X337873398Y-283588328D01*
X338301969Y-283588328D02*
X338301969Y-282088328D01*
X338301969Y-282088328D02*
X338159112Y-282302614D01*
X338159112Y-282302614D02*
X338016255Y-282445471D01*
X338016255Y-282445471D02*
X337873398Y-282516900D01*
X339659112Y-282088328D02*
X339801969Y-282088328D01*
X339801969Y-282088328D02*
X339944826Y-282159757D01*
X339944826Y-282159757D02*
X340016255Y-282231185D01*
X340016255Y-282231185D02*
X340087683Y-282374042D01*
X340087683Y-282374042D02*
X340159112Y-282659757D01*
X340159112Y-282659757D02*
X340159112Y-283016900D01*
X340159112Y-283016900D02*
X340087683Y-283302614D01*
X340087683Y-283302614D02*
X340016255Y-283445471D01*
X340016255Y-283445471D02*
X339944826Y-283516900D01*
X339944826Y-283516900D02*
X339801969Y-283588328D01*
X339801969Y-283588328D02*
X339659112Y-283588328D01*
X339659112Y-283588328D02*
X339516255Y-283516900D01*
X339516255Y-283516900D02*
X339444826Y-283445471D01*
X339444826Y-283445471D02*
X339373397Y-283302614D01*
X339373397Y-283302614D02*
X339301969Y-283016900D01*
X339301969Y-283016900D02*
X339301969Y-282659757D01*
X339301969Y-282659757D02*
X339373397Y-282374042D01*
X339373397Y-282374042D02*
X339444826Y-282231185D01*
X339444826Y-282231185D02*
X339516255Y-282159757D01*
X339516255Y-282159757D02*
X339659112Y-282088328D01*
X340587683Y-283016900D02*
X340659111Y-282945471D01*
X340659111Y-282945471D02*
X340801968Y-282874042D01*
X340801968Y-282874042D02*
X341087683Y-283016900D01*
X341087683Y-283016900D02*
X341230540Y-282945471D01*
X341230540Y-282945471D02*
X341301968Y-282874042D01*
X342516255Y-282588328D02*
X342516255Y-283588328D01*
X341873397Y-282588328D02*
X341873397Y-283374042D01*
X341873397Y-283374042D02*
X341944826Y-283516900D01*
X341944826Y-283516900D02*
X342087683Y-283588328D01*
X342087683Y-283588328D02*
X342301969Y-283588328D01*
X342301969Y-283588328D02*
X342444826Y-283516900D01*
X342444826Y-283516900D02*
X342516255Y-283445471D01*
X343230540Y-283588328D02*
X343230540Y-282088328D01*
X343230540Y-282659757D02*
X343373398Y-282588328D01*
X343373398Y-282588328D02*
X343659112Y-282588328D01*
X343659112Y-282588328D02*
X343801969Y-282659757D01*
X343801969Y-282659757D02*
X343873398Y-282731185D01*
X343873398Y-282731185D02*
X343944826Y-282874042D01*
X343944826Y-282874042D02*
X343944826Y-283302614D01*
X343944826Y-283302614D02*
X343873398Y-283445471D01*
X343873398Y-283445471D02*
X343801969Y-283516900D01*
X343801969Y-283516900D02*
X343659112Y-283588328D01*
X343659112Y-283588328D02*
X343373398Y-283588328D01*
X343373398Y-283588328D02*
X343230540Y-283516900D01*
X345230541Y-282588328D02*
X345230541Y-283588328D01*
X344587683Y-282588328D02*
X344587683Y-283374042D01*
X344587683Y-283374042D02*
X344659112Y-283516900D01*
X344659112Y-283516900D02*
X344801969Y-283588328D01*
X344801969Y-283588328D02*
X345016255Y-283588328D01*
X345016255Y-283588328D02*
X345159112Y-283516900D01*
X345159112Y-283516900D02*
X345230541Y-283445471D01*
X345944826Y-282588328D02*
X345944826Y-283588328D01*
X345944826Y-282731185D02*
X346016255Y-282659757D01*
X346016255Y-282659757D02*
X346159112Y-282588328D01*
X346159112Y-282588328D02*
X346373398Y-282588328D01*
X346373398Y-282588328D02*
X346516255Y-282659757D01*
X346516255Y-282659757D02*
X346587684Y-282802614D01*
X346587684Y-282802614D02*
X346587684Y-283588328D01*
X347087684Y-282588328D02*
X347659112Y-282588328D01*
X347301969Y-282088328D02*
X347301969Y-283374042D01*
X347301969Y-283374042D02*
X347373398Y-283516900D01*
X347373398Y-283516900D02*
X347516255Y-283588328D01*
X347516255Y-283588328D02*
X347659112Y-283588328D01*
X348801970Y-282588328D02*
X348801970Y-283588328D01*
X348159112Y-282588328D02*
X348159112Y-283374042D01*
X348159112Y-283374042D02*
X348230541Y-283516900D01*
X348230541Y-283516900D02*
X348373398Y-283588328D01*
X348373398Y-283588328D02*
X348587684Y-283588328D01*
X348587684Y-283588328D02*
X348730541Y-283516900D01*
X348730541Y-283516900D02*
X348801970Y-283445471D01*
X349444827Y-282231185D02*
X349516255Y-282159757D01*
X349516255Y-282159757D02*
X349659113Y-282088328D01*
X349659113Y-282088328D02*
X350016255Y-282088328D01*
X350016255Y-282088328D02*
X350159113Y-282159757D01*
X350159113Y-282159757D02*
X350230541Y-282231185D01*
X350230541Y-282231185D02*
X350301970Y-282374042D01*
X350301970Y-282374042D02*
X350301970Y-282516900D01*
X350301970Y-282516900D02*
X350230541Y-282731185D01*
X350230541Y-282731185D02*
X349373398Y-283588328D01*
X349373398Y-283588328D02*
X350301970Y-283588328D01*
X350873398Y-282231185D02*
X350944826Y-282159757D01*
X350944826Y-282159757D02*
X351087684Y-282088328D01*
X351087684Y-282088328D02*
X351444826Y-282088328D01*
X351444826Y-282088328D02*
X351587684Y-282159757D01*
X351587684Y-282159757D02*
X351659112Y-282231185D01*
X351659112Y-282231185D02*
X351730541Y-282374042D01*
X351730541Y-282374042D02*
X351730541Y-282516900D01*
X351730541Y-282516900D02*
X351659112Y-282731185D01*
X351659112Y-282731185D02*
X350801969Y-283588328D01*
X350801969Y-283588328D02*
X351730541Y-283588328D01*
X352373397Y-283445471D02*
X352444826Y-283516900D01*
X352444826Y-283516900D02*
X352373397Y-283588328D01*
X352373397Y-283588328D02*
X352301969Y-283516900D01*
X352301969Y-283516900D02*
X352373397Y-283445471D01*
X352373397Y-283445471D02*
X352373397Y-283588328D01*
X353373398Y-282088328D02*
X353516255Y-282088328D01*
X353516255Y-282088328D02*
X353659112Y-282159757D01*
X353659112Y-282159757D02*
X353730541Y-282231185D01*
X353730541Y-282231185D02*
X353801969Y-282374042D01*
X353801969Y-282374042D02*
X353873398Y-282659757D01*
X353873398Y-282659757D02*
X353873398Y-283016900D01*
X353873398Y-283016900D02*
X353801969Y-283302614D01*
X353801969Y-283302614D02*
X353730541Y-283445471D01*
X353730541Y-283445471D02*
X353659112Y-283516900D01*
X353659112Y-283516900D02*
X353516255Y-283588328D01*
X353516255Y-283588328D02*
X353373398Y-283588328D01*
X353373398Y-283588328D02*
X353230541Y-283516900D01*
X353230541Y-283516900D02*
X353159112Y-283445471D01*
X353159112Y-283445471D02*
X353087683Y-283302614D01*
X353087683Y-283302614D02*
X353016255Y-283016900D01*
X353016255Y-283016900D02*
X353016255Y-282659757D01*
X353016255Y-282659757D02*
X353087683Y-282374042D01*
X353087683Y-282374042D02*
X353159112Y-282231185D01*
X353159112Y-282231185D02*
X353230541Y-282159757D01*
X353230541Y-282159757D02*
X353373398Y-282088328D01*
X355159112Y-282588328D02*
X355159112Y-283588328D01*
X354801969Y-282016900D02*
X354444826Y-283088328D01*
X354444826Y-283088328D02*
X355373397Y-283088328D01*
X355944825Y-283445471D02*
X356016254Y-283516900D01*
X356016254Y-283516900D02*
X355944825Y-283588328D01*
X355944825Y-283588328D02*
X355873397Y-283516900D01*
X355873397Y-283516900D02*
X355944825Y-283445471D01*
X355944825Y-283445471D02*
X355944825Y-283588328D01*
X357444826Y-283588328D02*
X356587683Y-283588328D01*
X357016254Y-283588328D02*
X357016254Y-282088328D01*
X357016254Y-282088328D02*
X356873397Y-282302614D01*
X356873397Y-282302614D02*
X356730540Y-282445471D01*
X356730540Y-282445471D02*
X356587683Y-282516900D01*
D10*
D11*
X299989000Y-278502200D02*
X407989000Y-278502200D01*
D10*
D12*
X387400653Y-280780528D02*
X386900653Y-280066242D01*
X386543510Y-280780528D02*
X386543510Y-279280528D01*
X386543510Y-279280528D02*
X387114939Y-279280528D01*
X387114939Y-279280528D02*
X387257796Y-279351957D01*
X387257796Y-279351957D02*
X387329225Y-279423385D01*
X387329225Y-279423385D02*
X387400653Y-279566242D01*
X387400653Y-279566242D02*
X387400653Y-279780528D01*
X387400653Y-279780528D02*
X387329225Y-279923385D01*
X387329225Y-279923385D02*
X387257796Y-279994814D01*
X387257796Y-279994814D02*
X387114939Y-280066242D01*
X387114939Y-280066242D02*
X386543510Y-280066242D01*
X388614939Y-280709100D02*
X388472082Y-280780528D01*
X388472082Y-280780528D02*
X388186368Y-280780528D01*
X388186368Y-280780528D02*
X388043510Y-280709100D01*
X388043510Y-280709100D02*
X387972082Y-280566242D01*
X387972082Y-280566242D02*
X387972082Y-279994814D01*
X387972082Y-279994814D02*
X388043510Y-279851957D01*
X388043510Y-279851957D02*
X388186368Y-279780528D01*
X388186368Y-279780528D02*
X388472082Y-279780528D01*
X388472082Y-279780528D02*
X388614939Y-279851957D01*
X388614939Y-279851957D02*
X388686368Y-279994814D01*
X388686368Y-279994814D02*
X388686368Y-280137671D01*
X388686368Y-280137671D02*
X387972082Y-280280528D01*
X389186367Y-279780528D02*
X389543510Y-280780528D01*
X389543510Y-280780528D02*
X389900653Y-279780528D01*
X390472081Y-280637671D02*
X390543510Y-280709100D01*
X390543510Y-280709100D02*
X390472081Y-280780528D01*
X390472081Y-280780528D02*
X390400653Y-280709100D01*
X390400653Y-280709100D02*
X390472081Y-280637671D01*
X390472081Y-280637671D02*
X390472081Y-280780528D01*
X390472081Y-279851957D02*
X390543510Y-279923385D01*
X390543510Y-279923385D02*
X390472081Y-279994814D01*
X390472081Y-279994814D02*
X390400653Y-279923385D01*
X390400653Y-279923385D02*
X390472081Y-279851957D01*
X390472081Y-279851957D02*
X390472081Y-279994814D01*
D10*
D11*
X301373398Y-280716900D02*
X301587684Y-280788328D01*
X301587684Y-280788328D02*
X301944826Y-280788328D01*
X301944826Y-280788328D02*
X302087684Y-280716900D01*
X302087684Y-280716900D02*
X302159112Y-280645471D01*
X302159112Y-280645471D02*
X302230541Y-280502614D01*
X302230541Y-280502614D02*
X302230541Y-280359757D01*
X302230541Y-280359757D02*
X302159112Y-280216900D01*
X302159112Y-280216900D02*
X302087684Y-280145471D01*
X302087684Y-280145471D02*
X301944826Y-280074042D01*
X301944826Y-280074042D02*
X301659112Y-280002614D01*
X301659112Y-280002614D02*
X301516255Y-279931185D01*
X301516255Y-279931185D02*
X301444826Y-279859757D01*
X301444826Y-279859757D02*
X301373398Y-279716900D01*
X301373398Y-279716900D02*
X301373398Y-279574042D01*
X301373398Y-279574042D02*
X301444826Y-279431185D01*
X301444826Y-279431185D02*
X301516255Y-279359757D01*
X301516255Y-279359757D02*
X301659112Y-279288328D01*
X301659112Y-279288328D02*
X302016255Y-279288328D01*
X302016255Y-279288328D02*
X302230541Y-279359757D01*
X302873397Y-280788328D02*
X302873397Y-279788328D01*
X302873397Y-279288328D02*
X302801969Y-279359757D01*
X302801969Y-279359757D02*
X302873397Y-279431185D01*
X302873397Y-279431185D02*
X302944826Y-279359757D01*
X302944826Y-279359757D02*
X302873397Y-279288328D01*
X302873397Y-279288328D02*
X302873397Y-279431185D01*
X303444826Y-279788328D02*
X304230541Y-279788328D01*
X304230541Y-279788328D02*
X303444826Y-280788328D01*
X303444826Y-280788328D02*
X304230541Y-280788328D01*
X305373398Y-280716900D02*
X305230541Y-280788328D01*
X305230541Y-280788328D02*
X304944827Y-280788328D01*
X304944827Y-280788328D02*
X304801969Y-280716900D01*
X304801969Y-280716900D02*
X304730541Y-280574042D01*
X304730541Y-280574042D02*
X304730541Y-280002614D01*
X304730541Y-280002614D02*
X304801969Y-279859757D01*
X304801969Y-279859757D02*
X304944827Y-279788328D01*
X304944827Y-279788328D02*
X305230541Y-279788328D01*
X305230541Y-279788328D02*
X305373398Y-279859757D01*
X305373398Y-279859757D02*
X305444827Y-280002614D01*
X305444827Y-280002614D02*
X305444827Y-280145471D01*
X305444827Y-280145471D02*
X304730541Y-280288328D01*
X306087683Y-280645471D02*
X306159112Y-280716900D01*
X306159112Y-280716900D02*
X306087683Y-280788328D01*
X306087683Y-280788328D02*
X306016255Y-280716900D01*
X306016255Y-280716900D02*
X306087683Y-280645471D01*
X306087683Y-280645471D02*
X306087683Y-280788328D01*
X306087683Y-279859757D02*
X306159112Y-279931185D01*
X306159112Y-279931185D02*
X306087683Y-280002614D01*
X306087683Y-280002614D02*
X306016255Y-279931185D01*
X306016255Y-279931185D02*
X306087683Y-279859757D01*
X306087683Y-279859757D02*
X306087683Y-280002614D01*
X307873398Y-280359757D02*
X308587684Y-280359757D01*
X307730541Y-280788328D02*
X308230541Y-279288328D01*
X308230541Y-279288328D02*
X308730541Y-280788328D01*
X309087683Y-279288328D02*
X310016255Y-279288328D01*
X310016255Y-279288328D02*
X309516255Y-279859757D01*
X309516255Y-279859757D02*
X309730540Y-279859757D01*
X309730540Y-279859757D02*
X309873398Y-279931185D01*
X309873398Y-279931185D02*
X309944826Y-280002614D01*
X309944826Y-280002614D02*
X310016255Y-280145471D01*
X310016255Y-280145471D02*
X310016255Y-280502614D01*
X310016255Y-280502614D02*
X309944826Y-280645471D01*
X309944826Y-280645471D02*
X309873398Y-280716900D01*
X309873398Y-280716900D02*
X309730540Y-280788328D01*
X309730540Y-280788328D02*
X309301969Y-280788328D01*
X309301969Y-280788328D02*
X309159112Y-280716900D01*
X309159112Y-280716900D02*
X309087683Y-280645471D01*
D10*
D11*
X386444826Y-283588328D02*
X386444826Y-282088328D01*
X387801970Y-283588328D02*
X387801970Y-282088328D01*
X387801970Y-283516900D02*
X387659112Y-283588328D01*
X387659112Y-283588328D02*
X387373398Y-283588328D01*
X387373398Y-283588328D02*
X387230541Y-283516900D01*
X387230541Y-283516900D02*
X387159112Y-283445471D01*
X387159112Y-283445471D02*
X387087684Y-283302614D01*
X387087684Y-283302614D02*
X387087684Y-282874042D01*
X387087684Y-282874042D02*
X387159112Y-282731185D01*
X387159112Y-282731185D02*
X387230541Y-282659757D01*
X387230541Y-282659757D02*
X387373398Y-282588328D01*
X387373398Y-282588328D02*
X387659112Y-282588328D01*
X387659112Y-282588328D02*
X387801970Y-282659757D01*
X388516255Y-283445471D02*
X388587684Y-283516900D01*
X388587684Y-283516900D02*
X388516255Y-283588328D01*
X388516255Y-283588328D02*
X388444827Y-283516900D01*
X388444827Y-283516900D02*
X388516255Y-283445471D01*
X388516255Y-283445471D02*
X388516255Y-283588328D01*
X388516255Y-282659757D02*
X388587684Y-282731185D01*
X388587684Y-282731185D02*
X388516255Y-282802614D01*
X388516255Y-282802614D02*
X388444827Y-282731185D01*
X388444827Y-282731185D02*
X388516255Y-282659757D01*
X388516255Y-282659757D02*
X388516255Y-282802614D01*
X391159113Y-283588328D02*
X390301970Y-283588328D01*
X390730541Y-283588328D02*
X390730541Y-282088328D01*
X390730541Y-282088328D02*
X390587684Y-282302614D01*
X390587684Y-282302614D02*
X390444827Y-282445471D01*
X390444827Y-282445471D02*
X390301970Y-282516900D01*
X392873398Y-282016900D02*
X391587684Y-283945471D01*
X394159113Y-283588328D02*
X393301970Y-283588328D01*
X393730541Y-283588328D02*
X393730541Y-282088328D01*
X393730541Y-282088328D02*
X393587684Y-282302614D01*
X393587684Y-282302614D02*
X393444827Y-282445471D01*
X393444827Y-282445471D02*
X393301970Y-282516900D01*
D10*
D11*
X299989000Y-274502200D02*
X407989000Y-274502200D01*
D10*
D13*
X301680728Y-275206638D02*
X302823585Y-275206638D01*
X302002157Y-277206638D02*
X302252157Y-275206638D01*
X303240252Y-277206638D02*
X303406919Y-275873304D01*
X303490252Y-275206638D02*
X303383109Y-275301876D01*
X303383109Y-275301876D02*
X303466443Y-275397114D01*
X303466443Y-275397114D02*
X303573586Y-275301876D01*
X303573586Y-275301876D02*
X303490252Y-275206638D01*
X303490252Y-275206638D02*
X303466443Y-275397114D01*
X304073586Y-275873304D02*
X304835490Y-275873304D01*
X304442633Y-275206638D02*
X304228348Y-276920923D01*
X304228348Y-276920923D02*
X304299776Y-277111400D01*
X304299776Y-277111400D02*
X304478348Y-277206638D01*
X304478348Y-277206638D02*
X304668824Y-277206638D01*
X305621205Y-277206638D02*
X305442633Y-277111400D01*
X305442633Y-277111400D02*
X305371205Y-276920923D01*
X305371205Y-276920923D02*
X305585490Y-275206638D01*
X307156919Y-277111400D02*
X306954538Y-277206638D01*
X306954538Y-277206638D02*
X306573585Y-277206638D01*
X306573585Y-277206638D02*
X306395014Y-277111400D01*
X306395014Y-277111400D02*
X306323585Y-276920923D01*
X306323585Y-276920923D02*
X306418824Y-276159019D01*
X306418824Y-276159019D02*
X306537871Y-275968542D01*
X306537871Y-275968542D02*
X306740252Y-275873304D01*
X306740252Y-275873304D02*
X307121204Y-275873304D01*
X307121204Y-275873304D02*
X307299776Y-275968542D01*
X307299776Y-275968542D02*
X307371204Y-276159019D01*
X307371204Y-276159019D02*
X307347395Y-276349495D01*
X307347395Y-276349495D02*
X306371204Y-276539971D01*
X308121205Y-277016161D02*
X308204538Y-277111400D01*
X308204538Y-277111400D02*
X308097395Y-277206638D01*
X308097395Y-277206638D02*
X308014062Y-277111400D01*
X308014062Y-277111400D02*
X308121205Y-277016161D01*
X308121205Y-277016161D02*
X308097395Y-277206638D01*
X308252157Y-275968542D02*
X308335490Y-276063780D01*
X308335490Y-276063780D02*
X308228348Y-276159019D01*
X308228348Y-276159019D02*
X308145014Y-276063780D01*
X308145014Y-276063780D02*
X308252157Y-275968542D01*
X308252157Y-275968542D02*
X308228348Y-276159019D01*
D10*
D11*
X301944826Y-272602614D02*
X301444826Y-272602614D01*
X301444826Y-273388328D02*
X301444826Y-271888328D01*
X301444826Y-271888328D02*
X302159112Y-271888328D01*
X302730540Y-273388328D02*
X302730540Y-272388328D01*
X302730540Y-271888328D02*
X302659112Y-271959757D01*
X302659112Y-271959757D02*
X302730540Y-272031185D01*
X302730540Y-272031185D02*
X302801969Y-271959757D01*
X302801969Y-271959757D02*
X302730540Y-271888328D01*
X302730540Y-271888328D02*
X302730540Y-272031185D01*
X303659112Y-273388328D02*
X303516255Y-273316900D01*
X303516255Y-273316900D02*
X303444826Y-273174042D01*
X303444826Y-273174042D02*
X303444826Y-271888328D01*
X304801969Y-273316900D02*
X304659112Y-273388328D01*
X304659112Y-273388328D02*
X304373398Y-273388328D01*
X304373398Y-273388328D02*
X304230540Y-273316900D01*
X304230540Y-273316900D02*
X304159112Y-273174042D01*
X304159112Y-273174042D02*
X304159112Y-272602614D01*
X304159112Y-272602614D02*
X304230540Y-272459757D01*
X304230540Y-272459757D02*
X304373398Y-272388328D01*
X304373398Y-272388328D02*
X304659112Y-272388328D01*
X304659112Y-272388328D02*
X304801969Y-272459757D01*
X304801969Y-272459757D02*
X304873398Y-272602614D01*
X304873398Y-272602614D02*
X304873398Y-272745471D01*
X304873398Y-272745471D02*
X304159112Y-272888328D01*
X305516254Y-273245471D02*
X305587683Y-273316900D01*
X305587683Y-273316900D02*
X305516254Y-273388328D01*
X305516254Y-273388328D02*
X305444826Y-273316900D01*
X305444826Y-273316900D02*
X305516254Y-273245471D01*
X305516254Y-273245471D02*
X305516254Y-273388328D01*
X305516254Y-272459757D02*
X305587683Y-272531185D01*
X305587683Y-272531185D02*
X305516254Y-272602614D01*
X305516254Y-272602614D02*
X305444826Y-272531185D01*
X305444826Y-272531185D02*
X305516254Y-272459757D01*
X305516254Y-272459757D02*
X305516254Y-272602614D01*
X307373397Y-273388328D02*
X307373397Y-271888328D01*
X307373397Y-271888328D02*
X308230540Y-273388328D01*
X308230540Y-273388328D02*
X308230540Y-271888328D01*
X309159112Y-273388328D02*
X309016255Y-273316900D01*
X309016255Y-273316900D02*
X308944826Y-273245471D01*
X308944826Y-273245471D02*
X308873398Y-273102614D01*
X308873398Y-273102614D02*
X308873398Y-272674042D01*
X308873398Y-272674042D02*
X308944826Y-272531185D01*
X308944826Y-272531185D02*
X309016255Y-272459757D01*
X309016255Y-272459757D02*
X309159112Y-272388328D01*
X309159112Y-272388328D02*
X309373398Y-272388328D01*
X309373398Y-272388328D02*
X309516255Y-272459757D01*
X309516255Y-272459757D02*
X309587684Y-272531185D01*
X309587684Y-272531185D02*
X309659112Y-272674042D01*
X309659112Y-272674042D02*
X309659112Y-273102614D01*
X309659112Y-273102614D02*
X309587684Y-273245471D01*
X309587684Y-273245471D02*
X309516255Y-273316900D01*
X309516255Y-273316900D02*
X309373398Y-273388328D01*
X309373398Y-273388328D02*
X309159112Y-273388328D01*
X310301969Y-273388328D02*
X310301969Y-272388328D01*
X310301969Y-272531185D02*
X310373398Y-272459757D01*
X310373398Y-272459757D02*
X310516255Y-272388328D01*
X310516255Y-272388328D02*
X310730541Y-272388328D01*
X310730541Y-272388328D02*
X310873398Y-272459757D01*
X310873398Y-272459757D02*
X310944827Y-272602614D01*
X310944827Y-272602614D02*
X310944827Y-273388328D01*
X310944827Y-272602614D02*
X311016255Y-272459757D01*
X311016255Y-272459757D02*
X311159112Y-272388328D01*
X311159112Y-272388328D02*
X311373398Y-272388328D01*
X311373398Y-272388328D02*
X311516255Y-272459757D01*
X311516255Y-272459757D02*
X311587684Y-272602614D01*
X311587684Y-272602614D02*
X311587684Y-273388328D01*
X312516255Y-273388328D02*
X312373398Y-273316900D01*
X312373398Y-273316900D02*
X312301969Y-273245471D01*
X312301969Y-273245471D02*
X312230541Y-273102614D01*
X312230541Y-273102614D02*
X312230541Y-272674042D01*
X312230541Y-272674042D02*
X312301969Y-272531185D01*
X312301969Y-272531185D02*
X312373398Y-272459757D01*
X312373398Y-272459757D02*
X312516255Y-272388328D01*
X312516255Y-272388328D02*
X312730541Y-272388328D01*
X312730541Y-272388328D02*
X312873398Y-272459757D01*
X312873398Y-272459757D02*
X312944827Y-272531185D01*
X312944827Y-272531185D02*
X313016255Y-272674042D01*
X313016255Y-272674042D02*
X313016255Y-273102614D01*
X313016255Y-273102614D02*
X312944827Y-273245471D01*
X312944827Y-273245471D02*
X312873398Y-273316900D01*
X312873398Y-273316900D02*
X312730541Y-273388328D01*
X312730541Y-273388328D02*
X312516255Y-273388328D01*
X313659112Y-273388328D02*
X313659112Y-271888328D01*
X313659112Y-272459757D02*
X313801970Y-272388328D01*
X313801970Y-272388328D02*
X314087684Y-272388328D01*
X314087684Y-272388328D02*
X314230541Y-272459757D01*
X314230541Y-272459757D02*
X314301970Y-272531185D01*
X314301970Y-272531185D02*
X314373398Y-272674042D01*
X314373398Y-272674042D02*
X314373398Y-273102614D01*
X314373398Y-273102614D02*
X314301970Y-273245471D01*
X314301970Y-273245471D02*
X314230541Y-273316900D01*
X314230541Y-273316900D02*
X314087684Y-273388328D01*
X314087684Y-273388328D02*
X313801970Y-273388328D01*
X313801970Y-273388328D02*
X313659112Y-273316900D01*
X315230541Y-273388328D02*
X315087684Y-273316900D01*
X315087684Y-273316900D02*
X315016255Y-273245471D01*
X315016255Y-273245471D02*
X314944827Y-273102614D01*
X314944827Y-273102614D02*
X314944827Y-272674042D01*
X314944827Y-272674042D02*
X315016255Y-272531185D01*
X315016255Y-272531185D02*
X315087684Y-272459757D01*
X315087684Y-272459757D02*
X315230541Y-272388328D01*
X315230541Y-272388328D02*
X315444827Y-272388328D01*
X315444827Y-272388328D02*
X315587684Y-272459757D01*
X315587684Y-272459757D02*
X315659113Y-272531185D01*
X315659113Y-272531185D02*
X315730541Y-272674042D01*
X315730541Y-272674042D02*
X315730541Y-273102614D01*
X315730541Y-273102614D02*
X315659113Y-273245471D01*
X315659113Y-273245471D02*
X315587684Y-273316900D01*
X315587684Y-273316900D02*
X315444827Y-273388328D01*
X315444827Y-273388328D02*
X315230541Y-273388328D01*
X316159113Y-272388328D02*
X316730541Y-272388328D01*
X316373398Y-271888328D02*
X316373398Y-273174042D01*
X316373398Y-273174042D02*
X316444827Y-273316900D01*
X316444827Y-273316900D02*
X316587684Y-273388328D01*
X316587684Y-273388328D02*
X316730541Y-273388328D01*
X317159113Y-273316900D02*
X317373399Y-273388328D01*
X317373399Y-273388328D02*
X317730541Y-273388328D01*
X317730541Y-273388328D02*
X317873399Y-273316900D01*
X317873399Y-273316900D02*
X317944827Y-273245471D01*
X317944827Y-273245471D02*
X318016256Y-273102614D01*
X318016256Y-273102614D02*
X318016256Y-272959757D01*
X318016256Y-272959757D02*
X317944827Y-272816900D01*
X317944827Y-272816900D02*
X317873399Y-272745471D01*
X317873399Y-272745471D02*
X317730541Y-272674042D01*
X317730541Y-272674042D02*
X317444827Y-272602614D01*
X317444827Y-272602614D02*
X317301970Y-272531185D01*
X317301970Y-272531185D02*
X317230541Y-272459757D01*
X317230541Y-272459757D02*
X317159113Y-272316900D01*
X317159113Y-272316900D02*
X317159113Y-272174042D01*
X317159113Y-272174042D02*
X317230541Y-272031185D01*
X317230541Y-272031185D02*
X317301970Y-271959757D01*
X317301970Y-271959757D02*
X317444827Y-271888328D01*
X317444827Y-271888328D02*
X317801970Y-271888328D01*
X317801970Y-271888328D02*
X318016256Y-271959757D01*
X318659112Y-273388328D02*
X318659112Y-271888328D01*
X319516255Y-273388328D02*
X318873398Y-272531185D01*
X319516255Y-271888328D02*
X318659112Y-272745471D01*
X320159112Y-273245471D02*
X320230541Y-273316900D01*
X320230541Y-273316900D02*
X320159112Y-273388328D01*
X320159112Y-273388328D02*
X320087684Y-273316900D01*
X320087684Y-273316900D02*
X320159112Y-273245471D01*
X320159112Y-273245471D02*
X320159112Y-273388328D01*
X320873398Y-273388328D02*
X320873398Y-271888328D01*
X321016256Y-272816900D02*
X321444827Y-273388328D01*
X321444827Y-272388328D02*
X320873398Y-272959757D01*
X322087684Y-273388328D02*
X322087684Y-272388328D01*
X322087684Y-271888328D02*
X322016256Y-271959757D01*
X322016256Y-271959757D02*
X322087684Y-272031185D01*
X322087684Y-272031185D02*
X322159113Y-271959757D01*
X322159113Y-271959757D02*
X322087684Y-271888328D01*
X322087684Y-271888328D02*
X322087684Y-272031185D01*
X323444828Y-273316900D02*
X323301970Y-273388328D01*
X323301970Y-273388328D02*
X323016256Y-273388328D01*
X323016256Y-273388328D02*
X322873399Y-273316900D01*
X322873399Y-273316900D02*
X322801970Y-273245471D01*
X322801970Y-273245471D02*
X322730542Y-273102614D01*
X322730542Y-273102614D02*
X322730542Y-272674042D01*
X322730542Y-272674042D02*
X322801970Y-272531185D01*
X322801970Y-272531185D02*
X322873399Y-272459757D01*
X322873399Y-272459757D02*
X323016256Y-272388328D01*
X323016256Y-272388328D02*
X323301970Y-272388328D01*
X323301970Y-272388328D02*
X323444828Y-272459757D01*
X324730542Y-273388328D02*
X324730542Y-272602614D01*
X324730542Y-272602614D02*
X324659113Y-272459757D01*
X324659113Y-272459757D02*
X324516256Y-272388328D01*
X324516256Y-272388328D02*
X324230542Y-272388328D01*
X324230542Y-272388328D02*
X324087684Y-272459757D01*
X324730542Y-273316900D02*
X324587684Y-273388328D01*
X324587684Y-273388328D02*
X324230542Y-273388328D01*
X324230542Y-273388328D02*
X324087684Y-273316900D01*
X324087684Y-273316900D02*
X324016256Y-273174042D01*
X324016256Y-273174042D02*
X324016256Y-273031185D01*
X324016256Y-273031185D02*
X324087684Y-272888328D01*
X324087684Y-272888328D02*
X324230542Y-272816900D01*
X324230542Y-272816900D02*
X324587684Y-272816900D01*
X324587684Y-272816900D02*
X324730542Y-272745471D01*
X326087685Y-273388328D02*
X326087685Y-271888328D01*
X326087685Y-273316900D02*
X325944827Y-273388328D01*
X325944827Y-273388328D02*
X325659113Y-273388328D01*
X325659113Y-273388328D02*
X325516256Y-273316900D01*
X325516256Y-273316900D02*
X325444827Y-273245471D01*
X325444827Y-273245471D02*
X325373399Y-273102614D01*
X325373399Y-273102614D02*
X325373399Y-272674042D01*
X325373399Y-272674042D02*
X325444827Y-272531185D01*
X325444827Y-272531185D02*
X325516256Y-272459757D01*
X325516256Y-272459757D02*
X325659113Y-272388328D01*
X325659113Y-272388328D02*
X325944827Y-272388328D01*
X325944827Y-272388328D02*
X326087685Y-272459757D01*
X326444828Y-273531185D02*
X327587685Y-273531185D01*
X327944827Y-272388328D02*
X327944827Y-273888328D01*
X327944827Y-272459757D02*
X328087685Y-272388328D01*
X328087685Y-272388328D02*
X328373399Y-272388328D01*
X328373399Y-272388328D02*
X328516256Y-272459757D01*
X328516256Y-272459757D02*
X328587685Y-272531185D01*
X328587685Y-272531185D02*
X328659113Y-272674042D01*
X328659113Y-272674042D02*
X328659113Y-273102614D01*
X328659113Y-273102614D02*
X328587685Y-273245471D01*
X328587685Y-273245471D02*
X328516256Y-273316900D01*
X328516256Y-273316900D02*
X328373399Y-273388328D01*
X328373399Y-273388328D02*
X328087685Y-273388328D01*
X328087685Y-273388328D02*
X327944827Y-273316900D01*
X329944828Y-273316900D02*
X329801970Y-273388328D01*
X329801970Y-273388328D02*
X329516256Y-273388328D01*
X329516256Y-273388328D02*
X329373399Y-273316900D01*
X329373399Y-273316900D02*
X329301970Y-273245471D01*
X329301970Y-273245471D02*
X329230542Y-273102614D01*
X329230542Y-273102614D02*
X329230542Y-272674042D01*
X329230542Y-272674042D02*
X329301970Y-272531185D01*
X329301970Y-272531185D02*
X329373399Y-272459757D01*
X329373399Y-272459757D02*
X329516256Y-272388328D01*
X329516256Y-272388328D02*
X329801970Y-272388328D01*
X329801970Y-272388328D02*
X329944828Y-272459757D01*
X330587684Y-273388328D02*
X330587684Y-271888328D01*
X330587684Y-272459757D02*
X330730542Y-272388328D01*
X330730542Y-272388328D02*
X331016256Y-272388328D01*
X331016256Y-272388328D02*
X331159113Y-272459757D01*
X331159113Y-272459757D02*
X331230542Y-272531185D01*
X331230542Y-272531185D02*
X331301970Y-272674042D01*
X331301970Y-272674042D02*
X331301970Y-273102614D01*
X331301970Y-273102614D02*
X331230542Y-273245471D01*
X331230542Y-273245471D02*
X331159113Y-273316900D01*
X331159113Y-273316900D02*
X331016256Y-273388328D01*
X331016256Y-273388328D02*
X330730542Y-273388328D01*
X330730542Y-273388328D02*
X330587684Y-273316900D01*
D10*
D11*
X299989000Y-268502200D02*
X407989000Y-268502200D01*
D10*
D11*
X301373398Y-270616900D02*
X301587684Y-270688328D01*
X301587684Y-270688328D02*
X301944826Y-270688328D01*
X301944826Y-270688328D02*
X302087684Y-270616900D01*
X302087684Y-270616900D02*
X302159112Y-270545471D01*
X302159112Y-270545471D02*
X302230541Y-270402614D01*
X302230541Y-270402614D02*
X302230541Y-270259757D01*
X302230541Y-270259757D02*
X302159112Y-270116900D01*
X302159112Y-270116900D02*
X302087684Y-270045471D01*
X302087684Y-270045471D02*
X301944826Y-269974042D01*
X301944826Y-269974042D02*
X301659112Y-269902614D01*
X301659112Y-269902614D02*
X301516255Y-269831185D01*
X301516255Y-269831185D02*
X301444826Y-269759757D01*
X301444826Y-269759757D02*
X301373398Y-269616900D01*
X301373398Y-269616900D02*
X301373398Y-269474042D01*
X301373398Y-269474042D02*
X301444826Y-269331185D01*
X301444826Y-269331185D02*
X301516255Y-269259757D01*
X301516255Y-269259757D02*
X301659112Y-269188328D01*
X301659112Y-269188328D02*
X302016255Y-269188328D01*
X302016255Y-269188328D02*
X302230541Y-269259757D01*
X302873397Y-270688328D02*
X302873397Y-269188328D01*
X303516255Y-270688328D02*
X303516255Y-269902614D01*
X303516255Y-269902614D02*
X303444826Y-269759757D01*
X303444826Y-269759757D02*
X303301969Y-269688328D01*
X303301969Y-269688328D02*
X303087683Y-269688328D01*
X303087683Y-269688328D02*
X302944826Y-269759757D01*
X302944826Y-269759757D02*
X302873397Y-269831185D01*
X304801969Y-270616900D02*
X304659112Y-270688328D01*
X304659112Y-270688328D02*
X304373398Y-270688328D01*
X304373398Y-270688328D02*
X304230540Y-270616900D01*
X304230540Y-270616900D02*
X304159112Y-270474042D01*
X304159112Y-270474042D02*
X304159112Y-269902614D01*
X304159112Y-269902614D02*
X304230540Y-269759757D01*
X304230540Y-269759757D02*
X304373398Y-269688328D01*
X304373398Y-269688328D02*
X304659112Y-269688328D01*
X304659112Y-269688328D02*
X304801969Y-269759757D01*
X304801969Y-269759757D02*
X304873398Y-269902614D01*
X304873398Y-269902614D02*
X304873398Y-270045471D01*
X304873398Y-270045471D02*
X304159112Y-270188328D01*
X306087683Y-270616900D02*
X305944826Y-270688328D01*
X305944826Y-270688328D02*
X305659112Y-270688328D01*
X305659112Y-270688328D02*
X305516254Y-270616900D01*
X305516254Y-270616900D02*
X305444826Y-270474042D01*
X305444826Y-270474042D02*
X305444826Y-269902614D01*
X305444826Y-269902614D02*
X305516254Y-269759757D01*
X305516254Y-269759757D02*
X305659112Y-269688328D01*
X305659112Y-269688328D02*
X305944826Y-269688328D01*
X305944826Y-269688328D02*
X306087683Y-269759757D01*
X306087683Y-269759757D02*
X306159112Y-269902614D01*
X306159112Y-269902614D02*
X306159112Y-270045471D01*
X306159112Y-270045471D02*
X305444826Y-270188328D01*
X306587683Y-269688328D02*
X307159111Y-269688328D01*
X306801968Y-269188328D02*
X306801968Y-270474042D01*
X306801968Y-270474042D02*
X306873397Y-270616900D01*
X306873397Y-270616900D02*
X307016254Y-270688328D01*
X307016254Y-270688328D02*
X307159111Y-270688328D01*
X307659111Y-270545471D02*
X307730540Y-270616900D01*
X307730540Y-270616900D02*
X307659111Y-270688328D01*
X307659111Y-270688328D02*
X307587683Y-270616900D01*
X307587683Y-270616900D02*
X307659111Y-270545471D01*
X307659111Y-270545471D02*
X307659111Y-270688328D01*
X307659111Y-269759757D02*
X307730540Y-269831185D01*
X307730540Y-269831185D02*
X307659111Y-269902614D01*
X307659111Y-269902614D02*
X307587683Y-269831185D01*
X307587683Y-269831185D02*
X307659111Y-269759757D01*
X307659111Y-269759757D02*
X307659111Y-269902614D01*
D10*
D12*
D10*
D11*
D10*
D11*
D10*
D11*
D10*
D11*
D10*
D11*
X319989000Y-278502200D02*
X319989000Y-281502200D01*
D10*
D11*
X383989000Y-278502200D02*
X383989000Y-285002200D01*
%TO.C,U2*%
D14*
X181114000Y-96275000D02*
X181116000Y-96275000D01*
X181119000Y-96276000D01*
X181121000Y-96276000D01*
X181124000Y-96277000D01*
X181126000Y-96278000D01*
X181129000Y-96279000D01*
X181131000Y-96281000D01*
X181133000Y-96282000D01*
X181135000Y-96284000D01*
X181137000Y-96285000D01*
X181139000Y-96287000D01*
X181141000Y-96289000D01*
X181143000Y-96291000D01*
X181145000Y-96293000D01*
X181146000Y-96295000D01*
X181148000Y-96297000D01*
X181149000Y-96299000D01*
X181151000Y-96301000D01*
X181152000Y-96304000D01*
X181153000Y-96306000D01*
X181154000Y-96309000D01*
X181154000Y-96311000D01*
X181155000Y-96314000D01*
X181155000Y-96316000D01*
X181156000Y-96319000D01*
X181156000Y-96321000D01*
X181156000Y-96324000D01*
X181156000Y-97224000D01*
X181156000Y-97227000D01*
X181156000Y-97229000D01*
X181155000Y-97232000D01*
X181155000Y-97234000D01*
X181154000Y-97237000D01*
X181154000Y-97239000D01*
X181153000Y-97242000D01*
X181152000Y-97244000D01*
X181151000Y-97247000D01*
X181149000Y-97249000D01*
X181148000Y-97251000D01*
X181146000Y-97253000D01*
X181145000Y-97255000D01*
X181143000Y-97257000D01*
X181141000Y-97259000D01*
X181139000Y-97261000D01*
X181137000Y-97263000D01*
X181135000Y-97264000D01*
X181133000Y-97266000D01*
X181131000Y-97267000D01*
X181129000Y-97269000D01*
X181126000Y-97270000D01*
X181124000Y-97271000D01*
X181121000Y-97272000D01*
X181119000Y-97272000D01*
X181116000Y-97273000D01*
X181114000Y-97273000D01*
X181111000Y-97274000D01*
X181109000Y-97274000D01*
X181106000Y-97274000D01*
X180686000Y-97274000D01*
X180683000Y-97274000D01*
X180681000Y-97274000D01*
X180678000Y-97273000D01*
X180676000Y-97273000D01*
X180673000Y-97272000D01*
X180671000Y-97272000D01*
X180668000Y-97271000D01*
X180666000Y-97270000D01*
X180663000Y-97269000D01*
X180661000Y-97267000D01*
X180659000Y-97266000D01*
X180657000Y-97264000D01*
X180655000Y-97263000D01*
X180653000Y-97261000D01*
X180651000Y-97259000D01*
X180649000Y-97257000D01*
X180647000Y-97255000D01*
X180646000Y-97253000D01*
X180644000Y-97251000D01*
X180643000Y-97249000D01*
X180641000Y-97247000D01*
X180640000Y-97244000D01*
X180639000Y-97242000D01*
X180638000Y-97239000D01*
X180638000Y-97237000D01*
X180637000Y-97234000D01*
X180637000Y-97232000D01*
X180636000Y-97229000D01*
X180636000Y-97227000D01*
X180636000Y-97224000D01*
X180636000Y-96324000D01*
X180636000Y-96321000D01*
X180636000Y-96319000D01*
X180637000Y-96316000D01*
X180637000Y-96314000D01*
X180638000Y-96311000D01*
X180638000Y-96309000D01*
X180639000Y-96306000D01*
X180640000Y-96304000D01*
X180641000Y-96301000D01*
X180643000Y-96299000D01*
X180644000Y-96297000D01*
X180646000Y-96295000D01*
X180647000Y-96293000D01*
X180649000Y-96291000D01*
X180651000Y-96289000D01*
X180653000Y-96287000D01*
X180655000Y-96285000D01*
X180657000Y-96284000D01*
X180659000Y-96282000D01*
X180661000Y-96281000D01*
X180663000Y-96279000D01*
X180666000Y-96278000D01*
X180668000Y-96277000D01*
X180671000Y-96276000D01*
X180673000Y-96276000D01*
X180676000Y-96275000D01*
X180678000Y-96275000D01*
X180681000Y-96274000D01*
X180683000Y-96274000D01*
X180686000Y-96274000D01*
X181106000Y-96274000D01*
X181109000Y-96274000D01*
X181111000Y-96274000D01*
X181114000Y-96275000D01*
G36*
X181114000Y-96275000D02*
G01*
X181116000Y-96275000D01*
X181119000Y-96276000D01*
X181121000Y-96276000D01*
X181124000Y-96277000D01*
X181126000Y-96278000D01*
X181129000Y-96279000D01*
X181131000Y-96281000D01*
X181133000Y-96282000D01*
X181135000Y-96284000D01*
X181137000Y-96285000D01*
X181139000Y-96287000D01*
X181141000Y-96289000D01*
X181143000Y-96291000D01*
X181145000Y-96293000D01*
X181146000Y-96295000D01*
X181148000Y-96297000D01*
X181149000Y-96299000D01*
X181151000Y-96301000D01*
X181152000Y-96304000D01*
X181153000Y-96306000D01*
X181154000Y-96309000D01*
X181154000Y-96311000D01*
X181155000Y-96314000D01*
X181155000Y-96316000D01*
X181156000Y-96319000D01*
X181156000Y-96321000D01*
X181156000Y-96324000D01*
X181156000Y-97224000D01*
X181156000Y-97227000D01*
X181156000Y-97229000D01*
X181155000Y-97232000D01*
X181155000Y-97234000D01*
X181154000Y-97237000D01*
X181154000Y-97239000D01*
X181153000Y-97242000D01*
X181152000Y-97244000D01*
X181151000Y-97247000D01*
X181149000Y-97249000D01*
X181148000Y-97251000D01*
X181146000Y-97253000D01*
X181145000Y-97255000D01*
X181143000Y-97257000D01*
X181141000Y-97259000D01*
X181139000Y-97261000D01*
X181137000Y-97263000D01*
X181135000Y-97264000D01*
X181133000Y-97266000D01*
X181131000Y-97267000D01*
X181129000Y-97269000D01*
X181126000Y-97270000D01*
X181124000Y-97271000D01*
X181121000Y-97272000D01*
X181119000Y-97272000D01*
X181116000Y-97273000D01*
X181114000Y-97273000D01*
X181111000Y-97274000D01*
X181109000Y-97274000D01*
X181106000Y-97274000D01*
X180686000Y-97274000D01*
X180683000Y-97274000D01*
X180681000Y-97274000D01*
X180678000Y-97273000D01*
X180676000Y-97273000D01*
X180673000Y-97272000D01*
X180671000Y-97272000D01*
X180668000Y-97271000D01*
X180666000Y-97270000D01*
X180663000Y-97269000D01*
X180661000Y-97267000D01*
X180659000Y-97266000D01*
X180657000Y-97264000D01*
X180655000Y-97263000D01*
X180653000Y-97261000D01*
X180651000Y-97259000D01*
X180649000Y-97257000D01*
X180647000Y-97255000D01*
X180646000Y-97253000D01*
X180644000Y-97251000D01*
X180643000Y-97249000D01*
X180641000Y-97247000D01*
X180640000Y-97244000D01*
X180639000Y-97242000D01*
X180638000Y-97239000D01*
X180638000Y-97237000D01*
X180637000Y-97234000D01*
X180637000Y-97232000D01*
X180636000Y-97229000D01*
X180636000Y-97227000D01*
X180636000Y-97224000D01*
X180636000Y-96324000D01*
X180636000Y-96321000D01*
X180636000Y-96319000D01*
X180637000Y-96316000D01*
X180637000Y-96314000D01*
X180638000Y-96311000D01*
X180638000Y-96309000D01*
X180639000Y-96306000D01*
X180640000Y-96304000D01*
X180641000Y-96301000D01*
X180643000Y-96299000D01*
X180644000Y-96297000D01*
X180646000Y-96295000D01*
X180647000Y-96293000D01*
X180649000Y-96291000D01*
X180651000Y-96289000D01*
X180653000Y-96287000D01*
X180655000Y-96285000D01*
X180657000Y-96284000D01*
X180659000Y-96282000D01*
X180661000Y-96281000D01*
X180663000Y-96279000D01*
X180666000Y-96278000D01*
X180668000Y-96277000D01*
X180671000Y-96276000D01*
X180673000Y-96276000D01*
X180676000Y-96275000D01*
X180678000Y-96275000D01*
X180681000Y-96274000D01*
X180683000Y-96274000D01*
X180686000Y-96274000D01*
X181106000Y-96274000D01*
X181109000Y-96274000D01*
X181111000Y-96274000D01*
X181114000Y-96275000D01*
G37*
X180394000Y-96275000D02*
X180396000Y-96275000D01*
X180399000Y-96276000D01*
X180401000Y-96276000D01*
X180404000Y-96277000D01*
X180406000Y-96278000D01*
X180409000Y-96279000D01*
X180411000Y-96281000D01*
X180413000Y-96282000D01*
X180415000Y-96284000D01*
X180417000Y-96285000D01*
X180419000Y-96287000D01*
X180421000Y-96289000D01*
X180423000Y-96291000D01*
X180425000Y-96293000D01*
X180426000Y-96295000D01*
X180428000Y-96297000D01*
X180429000Y-96299000D01*
X180431000Y-96301000D01*
X180432000Y-96304000D01*
X180433000Y-96306000D01*
X180434000Y-96309000D01*
X180434000Y-96311000D01*
X180435000Y-96314000D01*
X180435000Y-96316000D01*
X180436000Y-96319000D01*
X180436000Y-96321000D01*
X180436000Y-96324000D01*
X180436000Y-96474000D01*
X180436000Y-96477000D01*
X180436000Y-96479000D01*
X180435000Y-96482000D01*
X180435000Y-96484000D01*
X180434000Y-96487000D01*
X180434000Y-96489000D01*
X180433000Y-96492000D01*
X180432000Y-96494000D01*
X180431000Y-96497000D01*
X180429000Y-96499000D01*
X180428000Y-96501000D01*
X180426000Y-96503000D01*
X180425000Y-96505000D01*
X180423000Y-96507000D01*
X180421000Y-96509000D01*
X180419000Y-96511000D01*
X180417000Y-96513000D01*
X180415000Y-96514000D01*
X180413000Y-96516000D01*
X180411000Y-96517000D01*
X180409000Y-96519000D01*
X180406000Y-96520000D01*
X180404000Y-96521000D01*
X180401000Y-96522000D01*
X180399000Y-96522000D01*
X180396000Y-96523000D01*
X180394000Y-96523000D01*
X180391000Y-96524000D01*
X180389000Y-96524000D01*
X180386000Y-96524000D01*
X180206000Y-96524000D01*
X180203000Y-96524000D01*
X180201000Y-96524000D01*
X180198000Y-96523000D01*
X180196000Y-96523000D01*
X180193000Y-96522000D01*
X180191000Y-96522000D01*
X180188000Y-96521000D01*
X180186000Y-96520000D01*
X180183000Y-96519000D01*
X180181000Y-96517000D01*
X180179000Y-96516000D01*
X180177000Y-96514000D01*
X180175000Y-96513000D01*
X180173000Y-96511000D01*
X180171000Y-96509000D01*
X180169000Y-96507000D01*
X180167000Y-96505000D01*
X180166000Y-96503000D01*
X180164000Y-96501000D01*
X180163000Y-96499000D01*
X180161000Y-96497000D01*
X180160000Y-96494000D01*
X180159000Y-96492000D01*
X180158000Y-96489000D01*
X180158000Y-96487000D01*
X180157000Y-96484000D01*
X180157000Y-96482000D01*
X180156000Y-96479000D01*
X180156000Y-96477000D01*
X180156000Y-96474000D01*
X180156000Y-96324000D01*
X180156000Y-96321000D01*
X180156000Y-96319000D01*
X180157000Y-96316000D01*
X180157000Y-96314000D01*
X180158000Y-96311000D01*
X180158000Y-96309000D01*
X180159000Y-96306000D01*
X180160000Y-96304000D01*
X180161000Y-96301000D01*
X180163000Y-96299000D01*
X180164000Y-96297000D01*
X180166000Y-96295000D01*
X180167000Y-96293000D01*
X180169000Y-96291000D01*
X180171000Y-96289000D01*
X180173000Y-96287000D01*
X180175000Y-96285000D01*
X180177000Y-96284000D01*
X180179000Y-96282000D01*
X180181000Y-96281000D01*
X180183000Y-96279000D01*
X180186000Y-96278000D01*
X180188000Y-96277000D01*
X180191000Y-96276000D01*
X180193000Y-96276000D01*
X180196000Y-96275000D01*
X180198000Y-96275000D01*
X180201000Y-96274000D01*
X180203000Y-96274000D01*
X180206000Y-96274000D01*
X180386000Y-96274000D01*
X180389000Y-96274000D01*
X180391000Y-96274000D01*
X180394000Y-96275000D01*
G36*
X180394000Y-96275000D02*
G01*
X180396000Y-96275000D01*
X180399000Y-96276000D01*
X180401000Y-96276000D01*
X180404000Y-96277000D01*
X180406000Y-96278000D01*
X180409000Y-96279000D01*
X180411000Y-96281000D01*
X180413000Y-96282000D01*
X180415000Y-96284000D01*
X180417000Y-96285000D01*
X180419000Y-96287000D01*
X180421000Y-96289000D01*
X180423000Y-96291000D01*
X180425000Y-96293000D01*
X180426000Y-96295000D01*
X180428000Y-96297000D01*
X180429000Y-96299000D01*
X180431000Y-96301000D01*
X180432000Y-96304000D01*
X180433000Y-96306000D01*
X180434000Y-96309000D01*
X180434000Y-96311000D01*
X180435000Y-96314000D01*
X180435000Y-96316000D01*
X180436000Y-96319000D01*
X180436000Y-96321000D01*
X180436000Y-96324000D01*
X180436000Y-96474000D01*
X180436000Y-96477000D01*
X180436000Y-96479000D01*
X180435000Y-96482000D01*
X180435000Y-96484000D01*
X180434000Y-96487000D01*
X180434000Y-96489000D01*
X180433000Y-96492000D01*
X180432000Y-96494000D01*
X180431000Y-96497000D01*
X180429000Y-96499000D01*
X180428000Y-96501000D01*
X180426000Y-96503000D01*
X180425000Y-96505000D01*
X180423000Y-96507000D01*
X180421000Y-96509000D01*
X180419000Y-96511000D01*
X180417000Y-96513000D01*
X180415000Y-96514000D01*
X180413000Y-96516000D01*
X180411000Y-96517000D01*
X180409000Y-96519000D01*
X180406000Y-96520000D01*
X180404000Y-96521000D01*
X180401000Y-96522000D01*
X180399000Y-96522000D01*
X180396000Y-96523000D01*
X180394000Y-96523000D01*
X180391000Y-96524000D01*
X180389000Y-96524000D01*
X180386000Y-96524000D01*
X180206000Y-96524000D01*
X180203000Y-96524000D01*
X180201000Y-96524000D01*
X180198000Y-96523000D01*
X180196000Y-96523000D01*
X180193000Y-96522000D01*
X180191000Y-96522000D01*
X180188000Y-96521000D01*
X180186000Y-96520000D01*
X180183000Y-96519000D01*
X180181000Y-96517000D01*
X180179000Y-96516000D01*
X180177000Y-96514000D01*
X180175000Y-96513000D01*
X180173000Y-96511000D01*
X180171000Y-96509000D01*
X180169000Y-96507000D01*
X180167000Y-96505000D01*
X180166000Y-96503000D01*
X180164000Y-96501000D01*
X180163000Y-96499000D01*
X180161000Y-96497000D01*
X180160000Y-96494000D01*
X180159000Y-96492000D01*
X180158000Y-96489000D01*
X180158000Y-96487000D01*
X180157000Y-96484000D01*
X180157000Y-96482000D01*
X180156000Y-96479000D01*
X180156000Y-96477000D01*
X180156000Y-96474000D01*
X180156000Y-96324000D01*
X180156000Y-96321000D01*
X180156000Y-96319000D01*
X180157000Y-96316000D01*
X180157000Y-96314000D01*
X180158000Y-96311000D01*
X180158000Y-96309000D01*
X180159000Y-96306000D01*
X180160000Y-96304000D01*
X180161000Y-96301000D01*
X180163000Y-96299000D01*
X180164000Y-96297000D01*
X180166000Y-96295000D01*
X180167000Y-96293000D01*
X180169000Y-96291000D01*
X180171000Y-96289000D01*
X180173000Y-96287000D01*
X180175000Y-96285000D01*
X180177000Y-96284000D01*
X180179000Y-96282000D01*
X180181000Y-96281000D01*
X180183000Y-96279000D01*
X180186000Y-96278000D01*
X180188000Y-96277000D01*
X180191000Y-96276000D01*
X180193000Y-96276000D01*
X180196000Y-96275000D01*
X180198000Y-96275000D01*
X180201000Y-96274000D01*
X180203000Y-96274000D01*
X180206000Y-96274000D01*
X180386000Y-96274000D01*
X180389000Y-96274000D01*
X180391000Y-96274000D01*
X180394000Y-96275000D01*
G37*
X182514000Y-96250000D02*
X182516000Y-96250000D01*
X182519000Y-96251000D01*
X182521000Y-96251000D01*
X182524000Y-96252000D01*
X182526000Y-96253000D01*
X182529000Y-96254000D01*
X182531000Y-96256000D01*
X182533000Y-96257000D01*
X182535000Y-96259000D01*
X182537000Y-96260000D01*
X182539000Y-96262000D01*
X182541000Y-96264000D01*
X182543000Y-96266000D01*
X182545000Y-96268000D01*
X182546000Y-96270000D01*
X182548000Y-96272000D01*
X182549000Y-96274000D01*
X182551000Y-96276000D01*
X182552000Y-96279000D01*
X182553000Y-96281000D01*
X182554000Y-96284000D01*
X182554000Y-96286000D01*
X182555000Y-96289000D01*
X182555000Y-96291000D01*
X182556000Y-96294000D01*
X182556000Y-96296000D01*
X182556000Y-96299000D01*
X182556000Y-96549000D01*
X182556000Y-96552000D01*
X182556000Y-96554000D01*
X182555000Y-96557000D01*
X182555000Y-96559000D01*
X182554000Y-96562000D01*
X182554000Y-96564000D01*
X182553000Y-96567000D01*
X182552000Y-96569000D01*
X182551000Y-96572000D01*
X182549000Y-96574000D01*
X182548000Y-96576000D01*
X182546000Y-96578000D01*
X182545000Y-96580000D01*
X182543000Y-96582000D01*
X182541000Y-96584000D01*
X182539000Y-96586000D01*
X182537000Y-96588000D01*
X182535000Y-96589000D01*
X182533000Y-96591000D01*
X182531000Y-96592000D01*
X182529000Y-96594000D01*
X182526000Y-96595000D01*
X182524000Y-96596000D01*
X182521000Y-96597000D01*
X182519000Y-96597000D01*
X182516000Y-96598000D01*
X182514000Y-96598000D01*
X182511000Y-96599000D01*
X182509000Y-96599000D01*
X182506000Y-96599000D01*
X181686000Y-96599000D01*
X181683000Y-96599000D01*
X181681000Y-96599000D01*
X181678000Y-96598000D01*
X181676000Y-96598000D01*
X181673000Y-96597000D01*
X181671000Y-96597000D01*
X181668000Y-96596000D01*
X181666000Y-96595000D01*
X181663000Y-96594000D01*
X181661000Y-96592000D01*
X181659000Y-96591000D01*
X181657000Y-96589000D01*
X181655000Y-96588000D01*
X181653000Y-96586000D01*
X181651000Y-96584000D01*
X181649000Y-96582000D01*
X181647000Y-96580000D01*
X181646000Y-96578000D01*
X181644000Y-96576000D01*
X181643000Y-96574000D01*
X181641000Y-96572000D01*
X181640000Y-96569000D01*
X181639000Y-96567000D01*
X181638000Y-96564000D01*
X181638000Y-96562000D01*
X181637000Y-96559000D01*
X181637000Y-96557000D01*
X181636000Y-96554000D01*
X181636000Y-96552000D01*
X181636000Y-96549000D01*
X181636000Y-96299000D01*
X181636000Y-96296000D01*
X181636000Y-96294000D01*
X181637000Y-96291000D01*
X181637000Y-96289000D01*
X181638000Y-96286000D01*
X181638000Y-96284000D01*
X181639000Y-96281000D01*
X181640000Y-96279000D01*
X181641000Y-96276000D01*
X181643000Y-96274000D01*
X181644000Y-96272000D01*
X181646000Y-96270000D01*
X181647000Y-96268000D01*
X181649000Y-96266000D01*
X181651000Y-96264000D01*
X181653000Y-96262000D01*
X181655000Y-96260000D01*
X181657000Y-96259000D01*
X181659000Y-96257000D01*
X181661000Y-96256000D01*
X181663000Y-96254000D01*
X181666000Y-96253000D01*
X181668000Y-96252000D01*
X181671000Y-96251000D01*
X181673000Y-96251000D01*
X181676000Y-96250000D01*
X181678000Y-96250000D01*
X181681000Y-96249000D01*
X181683000Y-96249000D01*
X181686000Y-96249000D01*
X182506000Y-96249000D01*
X182509000Y-96249000D01*
X182511000Y-96249000D01*
X182514000Y-96250000D01*
G36*
X182514000Y-96250000D02*
G01*
X182516000Y-96250000D01*
X182519000Y-96251000D01*
X182521000Y-96251000D01*
X182524000Y-96252000D01*
X182526000Y-96253000D01*
X182529000Y-96254000D01*
X182531000Y-96256000D01*
X182533000Y-96257000D01*
X182535000Y-96259000D01*
X182537000Y-96260000D01*
X182539000Y-96262000D01*
X182541000Y-96264000D01*
X182543000Y-96266000D01*
X182545000Y-96268000D01*
X182546000Y-96270000D01*
X182548000Y-96272000D01*
X182549000Y-96274000D01*
X182551000Y-96276000D01*
X182552000Y-96279000D01*
X182553000Y-96281000D01*
X182554000Y-96284000D01*
X182554000Y-96286000D01*
X182555000Y-96289000D01*
X182555000Y-96291000D01*
X182556000Y-96294000D01*
X182556000Y-96296000D01*
X182556000Y-96299000D01*
X182556000Y-96549000D01*
X182556000Y-96552000D01*
X182556000Y-96554000D01*
X182555000Y-96557000D01*
X182555000Y-96559000D01*
X182554000Y-96562000D01*
X182554000Y-96564000D01*
X182553000Y-96567000D01*
X182552000Y-96569000D01*
X182551000Y-96572000D01*
X182549000Y-96574000D01*
X182548000Y-96576000D01*
X182546000Y-96578000D01*
X182545000Y-96580000D01*
X182543000Y-96582000D01*
X182541000Y-96584000D01*
X182539000Y-96586000D01*
X182537000Y-96588000D01*
X182535000Y-96589000D01*
X182533000Y-96591000D01*
X182531000Y-96592000D01*
X182529000Y-96594000D01*
X182526000Y-96595000D01*
X182524000Y-96596000D01*
X182521000Y-96597000D01*
X182519000Y-96597000D01*
X182516000Y-96598000D01*
X182514000Y-96598000D01*
X182511000Y-96599000D01*
X182509000Y-96599000D01*
X182506000Y-96599000D01*
X181686000Y-96599000D01*
X181683000Y-96599000D01*
X181681000Y-96599000D01*
X181678000Y-96598000D01*
X181676000Y-96598000D01*
X181673000Y-96597000D01*
X181671000Y-96597000D01*
X181668000Y-96596000D01*
X181666000Y-96595000D01*
X181663000Y-96594000D01*
X181661000Y-96592000D01*
X181659000Y-96591000D01*
X181657000Y-96589000D01*
X181655000Y-96588000D01*
X181653000Y-96586000D01*
X181651000Y-96584000D01*
X181649000Y-96582000D01*
X181647000Y-96580000D01*
X181646000Y-96578000D01*
X181644000Y-96576000D01*
X181643000Y-96574000D01*
X181641000Y-96572000D01*
X181640000Y-96569000D01*
X181639000Y-96567000D01*
X181638000Y-96564000D01*
X181638000Y-96562000D01*
X181637000Y-96559000D01*
X181637000Y-96557000D01*
X181636000Y-96554000D01*
X181636000Y-96552000D01*
X181636000Y-96549000D01*
X181636000Y-96299000D01*
X181636000Y-96296000D01*
X181636000Y-96294000D01*
X181637000Y-96291000D01*
X181637000Y-96289000D01*
X181638000Y-96286000D01*
X181638000Y-96284000D01*
X181639000Y-96281000D01*
X181640000Y-96279000D01*
X181641000Y-96276000D01*
X181643000Y-96274000D01*
X181644000Y-96272000D01*
X181646000Y-96270000D01*
X181647000Y-96268000D01*
X181649000Y-96266000D01*
X181651000Y-96264000D01*
X181653000Y-96262000D01*
X181655000Y-96260000D01*
X181657000Y-96259000D01*
X181659000Y-96257000D01*
X181661000Y-96256000D01*
X181663000Y-96254000D01*
X181666000Y-96253000D01*
X181668000Y-96252000D01*
X181671000Y-96251000D01*
X181673000Y-96251000D01*
X181676000Y-96250000D01*
X181678000Y-96250000D01*
X181681000Y-96249000D01*
X181683000Y-96249000D01*
X181686000Y-96249000D01*
X182506000Y-96249000D01*
X182509000Y-96249000D01*
X182511000Y-96249000D01*
X182514000Y-96250000D01*
G37*
X180394000Y-97025000D02*
X180396000Y-97025000D01*
X180399000Y-97026000D01*
X180401000Y-97026000D01*
X180404000Y-97027000D01*
X180406000Y-97028000D01*
X180409000Y-97029000D01*
X180411000Y-97031000D01*
X180413000Y-97032000D01*
X180415000Y-97034000D01*
X180417000Y-97035000D01*
X180419000Y-97037000D01*
X180421000Y-97039000D01*
X180423000Y-97041000D01*
X180425000Y-97043000D01*
X180426000Y-97045000D01*
X180428000Y-97047000D01*
X180429000Y-97049000D01*
X180431000Y-97051000D01*
X180432000Y-97054000D01*
X180433000Y-97056000D01*
X180434000Y-97059000D01*
X180434000Y-97061000D01*
X180435000Y-97064000D01*
X180435000Y-97066000D01*
X180436000Y-97069000D01*
X180436000Y-97071000D01*
X180436000Y-97074000D01*
X180436000Y-97224000D01*
X180436000Y-97227000D01*
X180436000Y-97229000D01*
X180435000Y-97232000D01*
X180435000Y-97234000D01*
X180434000Y-97237000D01*
X180434000Y-97239000D01*
X180433000Y-97242000D01*
X180432000Y-97244000D01*
X180431000Y-97247000D01*
X180429000Y-97249000D01*
X180428000Y-97251000D01*
X180426000Y-97253000D01*
X180425000Y-97255000D01*
X180423000Y-97257000D01*
X180421000Y-97259000D01*
X180419000Y-97261000D01*
X180417000Y-97263000D01*
X180415000Y-97264000D01*
X180413000Y-97266000D01*
X180411000Y-97267000D01*
X180409000Y-97269000D01*
X180406000Y-97270000D01*
X180404000Y-97271000D01*
X180401000Y-97272000D01*
X180399000Y-97272000D01*
X180396000Y-97273000D01*
X180394000Y-97273000D01*
X180391000Y-97274000D01*
X180389000Y-97274000D01*
X180386000Y-97274000D01*
X180206000Y-97274000D01*
X180203000Y-97274000D01*
X180201000Y-97274000D01*
X180198000Y-97273000D01*
X180196000Y-97273000D01*
X180193000Y-97272000D01*
X180191000Y-97272000D01*
X180188000Y-97271000D01*
X180186000Y-97270000D01*
X180183000Y-97269000D01*
X180181000Y-97267000D01*
X180179000Y-97266000D01*
X180177000Y-97264000D01*
X180175000Y-97263000D01*
X180173000Y-97261000D01*
X180171000Y-97259000D01*
X180169000Y-97257000D01*
X180167000Y-97255000D01*
X180166000Y-97253000D01*
X180164000Y-97251000D01*
X180163000Y-97249000D01*
X180161000Y-97247000D01*
X180160000Y-97244000D01*
X180159000Y-97242000D01*
X180158000Y-97239000D01*
X180158000Y-97237000D01*
X180157000Y-97234000D01*
X180157000Y-97232000D01*
X180156000Y-97229000D01*
X180156000Y-97227000D01*
X180156000Y-97224000D01*
X180156000Y-97074000D01*
X180156000Y-97071000D01*
X180156000Y-97069000D01*
X180157000Y-97066000D01*
X180157000Y-97064000D01*
X180158000Y-97061000D01*
X180158000Y-97059000D01*
X180159000Y-97056000D01*
X180160000Y-97054000D01*
X180161000Y-97051000D01*
X180163000Y-97049000D01*
X180164000Y-97047000D01*
X180166000Y-97045000D01*
X180167000Y-97043000D01*
X180169000Y-97041000D01*
X180171000Y-97039000D01*
X180173000Y-97037000D01*
X180175000Y-97035000D01*
X180177000Y-97034000D01*
X180179000Y-97032000D01*
X180181000Y-97031000D01*
X180183000Y-97029000D01*
X180186000Y-97028000D01*
X180188000Y-97027000D01*
X180191000Y-97026000D01*
X180193000Y-97026000D01*
X180196000Y-97025000D01*
X180198000Y-97025000D01*
X180201000Y-97024000D01*
X180203000Y-97024000D01*
X180206000Y-97024000D01*
X180386000Y-97024000D01*
X180389000Y-97024000D01*
X180391000Y-97024000D01*
X180394000Y-97025000D01*
G36*
X180394000Y-97025000D02*
G01*
X180396000Y-97025000D01*
X180399000Y-97026000D01*
X180401000Y-97026000D01*
X180404000Y-97027000D01*
X180406000Y-97028000D01*
X180409000Y-97029000D01*
X180411000Y-97031000D01*
X180413000Y-97032000D01*
X180415000Y-97034000D01*
X180417000Y-97035000D01*
X180419000Y-97037000D01*
X180421000Y-97039000D01*
X180423000Y-97041000D01*
X180425000Y-97043000D01*
X180426000Y-97045000D01*
X180428000Y-97047000D01*
X180429000Y-97049000D01*
X180431000Y-97051000D01*
X180432000Y-97054000D01*
X180433000Y-97056000D01*
X180434000Y-97059000D01*
X180434000Y-97061000D01*
X180435000Y-97064000D01*
X180435000Y-97066000D01*
X180436000Y-97069000D01*
X180436000Y-97071000D01*
X180436000Y-97074000D01*
X180436000Y-97224000D01*
X180436000Y-97227000D01*
X180436000Y-97229000D01*
X180435000Y-97232000D01*
X180435000Y-97234000D01*
X180434000Y-97237000D01*
X180434000Y-97239000D01*
X180433000Y-97242000D01*
X180432000Y-97244000D01*
X180431000Y-97247000D01*
X180429000Y-97249000D01*
X180428000Y-97251000D01*
X180426000Y-97253000D01*
X180425000Y-97255000D01*
X180423000Y-97257000D01*
X180421000Y-97259000D01*
X180419000Y-97261000D01*
X180417000Y-97263000D01*
X180415000Y-97264000D01*
X180413000Y-97266000D01*
X180411000Y-97267000D01*
X180409000Y-97269000D01*
X180406000Y-97270000D01*
X180404000Y-97271000D01*
X180401000Y-97272000D01*
X180399000Y-97272000D01*
X180396000Y-97273000D01*
X180394000Y-97273000D01*
X180391000Y-97274000D01*
X180389000Y-97274000D01*
X180386000Y-97274000D01*
X180206000Y-97274000D01*
X180203000Y-97274000D01*
X180201000Y-97274000D01*
X180198000Y-97273000D01*
X180196000Y-97273000D01*
X180193000Y-97272000D01*
X180191000Y-97272000D01*
X180188000Y-97271000D01*
X180186000Y-97270000D01*
X180183000Y-97269000D01*
X180181000Y-97267000D01*
X180179000Y-97266000D01*
X180177000Y-97264000D01*
X180175000Y-97263000D01*
X180173000Y-97261000D01*
X180171000Y-97259000D01*
X180169000Y-97257000D01*
X180167000Y-97255000D01*
X180166000Y-97253000D01*
X180164000Y-97251000D01*
X180163000Y-97249000D01*
X180161000Y-97247000D01*
X180160000Y-97244000D01*
X180159000Y-97242000D01*
X180158000Y-97239000D01*
X180158000Y-97237000D01*
X180157000Y-97234000D01*
X180157000Y-97232000D01*
X180156000Y-97229000D01*
X180156000Y-97227000D01*
X180156000Y-97224000D01*
X180156000Y-97074000D01*
X180156000Y-97071000D01*
X180156000Y-97069000D01*
X180157000Y-97066000D01*
X180157000Y-97064000D01*
X180158000Y-97061000D01*
X180158000Y-97059000D01*
X180159000Y-97056000D01*
X180160000Y-97054000D01*
X180161000Y-97051000D01*
X180163000Y-97049000D01*
X180164000Y-97047000D01*
X180166000Y-97045000D01*
X180167000Y-97043000D01*
X180169000Y-97041000D01*
X180171000Y-97039000D01*
X180173000Y-97037000D01*
X180175000Y-97035000D01*
X180177000Y-97034000D01*
X180179000Y-97032000D01*
X180181000Y-97031000D01*
X180183000Y-97029000D01*
X180186000Y-97028000D01*
X180188000Y-97027000D01*
X180191000Y-97026000D01*
X180193000Y-97026000D01*
X180196000Y-97025000D01*
X180198000Y-97025000D01*
X180201000Y-97024000D01*
X180203000Y-97024000D01*
X180206000Y-97024000D01*
X180386000Y-97024000D01*
X180389000Y-97024000D01*
X180391000Y-97024000D01*
X180394000Y-97025000D01*
G37*
X182514000Y-96950000D02*
X182516000Y-96950000D01*
X182519000Y-96951000D01*
X182521000Y-96951000D01*
X182524000Y-96952000D01*
X182526000Y-96953000D01*
X182529000Y-96954000D01*
X182531000Y-96956000D01*
X182533000Y-96957000D01*
X182535000Y-96959000D01*
X182537000Y-96960000D01*
X182539000Y-96962000D01*
X182541000Y-96964000D01*
X182543000Y-96966000D01*
X182545000Y-96968000D01*
X182546000Y-96970000D01*
X182548000Y-96972000D01*
X182549000Y-96974000D01*
X182551000Y-96976000D01*
X182552000Y-96979000D01*
X182553000Y-96981000D01*
X182554000Y-96984000D01*
X182554000Y-96986000D01*
X182555000Y-96989000D01*
X182555000Y-96991000D01*
X182556000Y-96994000D01*
X182556000Y-96996000D01*
X182556000Y-96999000D01*
X182556000Y-97249000D01*
X182556000Y-97252000D01*
X182556000Y-97254000D01*
X182555000Y-97257000D01*
X182555000Y-97259000D01*
X182554000Y-97262000D01*
X182554000Y-97264000D01*
X182553000Y-97267000D01*
X182552000Y-97269000D01*
X182551000Y-97272000D01*
X182549000Y-97274000D01*
X182548000Y-97276000D01*
X182546000Y-97278000D01*
X182545000Y-97280000D01*
X182543000Y-97282000D01*
X182541000Y-97284000D01*
X182539000Y-97286000D01*
X182537000Y-97288000D01*
X182535000Y-97289000D01*
X182533000Y-97291000D01*
X182531000Y-97292000D01*
X182529000Y-97294000D01*
X182526000Y-97295000D01*
X182524000Y-97296000D01*
X182521000Y-97297000D01*
X182519000Y-97297000D01*
X182516000Y-97298000D01*
X182514000Y-97298000D01*
X182511000Y-97299000D01*
X182509000Y-97299000D01*
X182506000Y-97299000D01*
X181686000Y-97299000D01*
X181683000Y-97299000D01*
X181681000Y-97299000D01*
X181678000Y-97298000D01*
X181676000Y-97298000D01*
X181673000Y-97297000D01*
X181671000Y-97297000D01*
X181668000Y-97296000D01*
X181666000Y-97295000D01*
X181663000Y-97294000D01*
X181661000Y-97292000D01*
X181659000Y-97291000D01*
X181657000Y-97289000D01*
X181655000Y-97288000D01*
X181653000Y-97286000D01*
X181651000Y-97284000D01*
X181649000Y-97282000D01*
X181647000Y-97280000D01*
X181646000Y-97278000D01*
X181644000Y-97276000D01*
X181643000Y-97274000D01*
X181641000Y-97272000D01*
X181640000Y-97269000D01*
X181639000Y-97267000D01*
X181638000Y-97264000D01*
X181638000Y-97262000D01*
X181637000Y-97259000D01*
X181637000Y-97257000D01*
X181636000Y-97254000D01*
X181636000Y-97252000D01*
X181636000Y-97249000D01*
X181636000Y-96999000D01*
X181636000Y-96996000D01*
X181636000Y-96994000D01*
X181637000Y-96991000D01*
X181637000Y-96989000D01*
X181638000Y-96986000D01*
X181638000Y-96984000D01*
X181639000Y-96981000D01*
X181640000Y-96979000D01*
X181641000Y-96976000D01*
X181643000Y-96974000D01*
X181644000Y-96972000D01*
X181646000Y-96970000D01*
X181647000Y-96968000D01*
X181649000Y-96966000D01*
X181651000Y-96964000D01*
X181653000Y-96962000D01*
X181655000Y-96960000D01*
X181657000Y-96959000D01*
X181659000Y-96957000D01*
X181661000Y-96956000D01*
X181663000Y-96954000D01*
X181666000Y-96953000D01*
X181668000Y-96952000D01*
X181671000Y-96951000D01*
X181673000Y-96951000D01*
X181676000Y-96950000D01*
X181678000Y-96950000D01*
X181681000Y-96949000D01*
X181683000Y-96949000D01*
X181686000Y-96949000D01*
X182506000Y-96949000D01*
X182509000Y-96949000D01*
X182511000Y-96949000D01*
X182514000Y-96950000D01*
G36*
X182514000Y-96950000D02*
G01*
X182516000Y-96950000D01*
X182519000Y-96951000D01*
X182521000Y-96951000D01*
X182524000Y-96952000D01*
X182526000Y-96953000D01*
X182529000Y-96954000D01*
X182531000Y-96956000D01*
X182533000Y-96957000D01*
X182535000Y-96959000D01*
X182537000Y-96960000D01*
X182539000Y-96962000D01*
X182541000Y-96964000D01*
X182543000Y-96966000D01*
X182545000Y-96968000D01*
X182546000Y-96970000D01*
X182548000Y-96972000D01*
X182549000Y-96974000D01*
X182551000Y-96976000D01*
X182552000Y-96979000D01*
X182553000Y-96981000D01*
X182554000Y-96984000D01*
X182554000Y-96986000D01*
X182555000Y-96989000D01*
X182555000Y-96991000D01*
X182556000Y-96994000D01*
X182556000Y-96996000D01*
X182556000Y-96999000D01*
X182556000Y-97249000D01*
X182556000Y-97252000D01*
X182556000Y-97254000D01*
X182555000Y-97257000D01*
X182555000Y-97259000D01*
X182554000Y-97262000D01*
X182554000Y-97264000D01*
X182553000Y-97267000D01*
X182552000Y-97269000D01*
X182551000Y-97272000D01*
X182549000Y-97274000D01*
X182548000Y-97276000D01*
X182546000Y-97278000D01*
X182545000Y-97280000D01*
X182543000Y-97282000D01*
X182541000Y-97284000D01*
X182539000Y-97286000D01*
X182537000Y-97288000D01*
X182535000Y-97289000D01*
X182533000Y-97291000D01*
X182531000Y-97292000D01*
X182529000Y-97294000D01*
X182526000Y-97295000D01*
X182524000Y-97296000D01*
X182521000Y-97297000D01*
X182519000Y-97297000D01*
X182516000Y-97298000D01*
X182514000Y-97298000D01*
X182511000Y-97299000D01*
X182509000Y-97299000D01*
X182506000Y-97299000D01*
X181686000Y-97299000D01*
X181683000Y-97299000D01*
X181681000Y-97299000D01*
X181678000Y-97298000D01*
X181676000Y-97298000D01*
X181673000Y-97297000D01*
X181671000Y-97297000D01*
X181668000Y-97296000D01*
X181666000Y-97295000D01*
X181663000Y-97294000D01*
X181661000Y-97292000D01*
X181659000Y-97291000D01*
X181657000Y-97289000D01*
X181655000Y-97288000D01*
X181653000Y-97286000D01*
X181651000Y-97284000D01*
X181649000Y-97282000D01*
X181647000Y-97280000D01*
X181646000Y-97278000D01*
X181644000Y-97276000D01*
X181643000Y-97274000D01*
X181641000Y-97272000D01*
X181640000Y-97269000D01*
X181639000Y-97267000D01*
X181638000Y-97264000D01*
X181638000Y-97262000D01*
X181637000Y-97259000D01*
X181637000Y-97257000D01*
X181636000Y-97254000D01*
X181636000Y-97252000D01*
X181636000Y-97249000D01*
X181636000Y-96999000D01*
X181636000Y-96996000D01*
X181636000Y-96994000D01*
X181637000Y-96991000D01*
X181637000Y-96989000D01*
X181638000Y-96986000D01*
X181638000Y-96984000D01*
X181639000Y-96981000D01*
X181640000Y-96979000D01*
X181641000Y-96976000D01*
X181643000Y-96974000D01*
X181644000Y-96972000D01*
X181646000Y-96970000D01*
X181647000Y-96968000D01*
X181649000Y-96966000D01*
X181651000Y-96964000D01*
X181653000Y-96962000D01*
X181655000Y-96960000D01*
X181657000Y-96959000D01*
X181659000Y-96957000D01*
X181661000Y-96956000D01*
X181663000Y-96954000D01*
X181666000Y-96953000D01*
X181668000Y-96952000D01*
X181671000Y-96951000D01*
X181673000Y-96951000D01*
X181676000Y-96950000D01*
X181678000Y-96950000D01*
X181681000Y-96949000D01*
X181683000Y-96949000D01*
X181686000Y-96949000D01*
X182506000Y-96949000D01*
X182509000Y-96949000D01*
X182511000Y-96949000D01*
X182514000Y-96950000D01*
G37*
%TD*%
D15*
%TO.C,U17*%
X220085500Y-120970000D03*
X220085500Y-121920000D03*
X220085500Y-122870000D03*
X217810500Y-122870000D03*
X217810500Y-121920000D03*
X217810500Y-120970000D03*
%TD*%
D16*
%TO.C,C18*%
X176530000Y-101572000D03*
X176530000Y-100612000D03*
%TD*%
D17*
%TO.C,R63*%
X228600000Y-90741000D03*
X228600000Y-89091000D03*
%TD*%
D18*
%TO.C,R29*%
X193294000Y-182776500D03*
X193294000Y-180951500D03*
%TD*%
D19*
%TO.C,R46*%
X177800000Y-92215000D03*
X177800000Y-90665000D03*
%TD*%
D20*
%TO.C,C8*%
X170955000Y-126492000D03*
X169405000Y-126492000D03*
%TD*%
D21*
%TO.C,R38*%
X200343000Y-127762000D03*
X201993000Y-127762000D03*
%TD*%
D22*
%TO.C,R27*%
X190396500Y-187960000D03*
X188571500Y-187960000D03*
%TD*%
D23*
%TO.C,R67*%
X177546000Y-139383000D03*
X177546000Y-141033000D03*
%TD*%
D24*
%TO.C,R21*%
X237744000Y-187809500D03*
X237744000Y-189634500D03*
%TD*%
D25*
%TO.C,D24*%
X197533500Y-94742000D03*
X195658500Y-94742000D03*
%TD*%
D26*
%TO.C,C27*%
X202692000Y-101551000D03*
X202692000Y-98601000D03*
%TD*%
D17*
%TO.C,R64*%
X228600000Y-94805000D03*
X228600000Y-93155000D03*
%TD*%
D19*
%TO.C,R66*%
X216916000Y-89167000D03*
X216916000Y-87617000D03*
%TD*%
D27*
%TO.C,Q3*%
X193426500Y-115250000D03*
X193426500Y-114300000D03*
X193426500Y-113350000D03*
X195701500Y-113350000D03*
X195701500Y-114300000D03*
X195701500Y-115250000D03*
%TD*%
D28*
%TO.C,Q6*%
X205818500Y-105598000D03*
X205818500Y-103698000D03*
X207693500Y-104648000D03*
%TD*%
D18*
%TO.C,R15*%
X168910000Y-181506500D03*
X168910000Y-179681500D03*
%TD*%
D29*
%TO.C,J8*%
X202490000Y-85325000D03*
X203290000Y-85325000D03*
D30*
X204490000Y-85325000D03*
X205490000Y-85325000D03*
X205990000Y-85325000D03*
X206990000Y-85325000D03*
D29*
X208190000Y-85325000D03*
X208990000Y-85325000D03*
X208990000Y-85325000D03*
X208190000Y-85325000D03*
D30*
X207490000Y-85325000D03*
X206490000Y-85325000D03*
X204990000Y-85325000D03*
X203990000Y-85325000D03*
D29*
X203290000Y-85325000D03*
X202490000Y-85325000D03*
%TD*%
D21*
%TO.C,R39*%
X200343000Y-131064000D03*
X201993000Y-131064000D03*
%TD*%
D31*
%TO.C,U7*%
X244278000Y-180467000D03*
X244278000Y-181737000D03*
X244278000Y-183007000D03*
X244278000Y-184277000D03*
X239338000Y-184277000D03*
X239338000Y-183007000D03*
X239338000Y-181737000D03*
X239338000Y-180467000D03*
%TD*%
D27*
%TO.C,U16*%
X201046500Y-120330000D03*
X201046500Y-119380000D03*
X201046500Y-118430000D03*
X203321500Y-118430000D03*
X203321500Y-119380000D03*
X203321500Y-120330000D03*
%TD*%
D23*
%TO.C,R44*%
X215392000Y-130239000D03*
X215392000Y-131889000D03*
%TD*%
D19*
%TO.C,R45*%
X186182000Y-98311000D03*
X186182000Y-96761000D03*
%TD*%
D32*
%TO.C,Q7*%
X219188000Y-99466000D03*
X221488000Y-99466000D03*
D33*
X221488000Y-105766000D03*
D32*
X223788000Y-99466000D03*
%TD*%
D34*
%TO.C,Q5*%
X217876000Y-112903000D03*
X217876000Y-114173000D03*
X217876000Y-115443000D03*
X217876000Y-116713000D03*
X210876000Y-116713000D03*
X210876000Y-115443000D03*
X210876000Y-114173000D03*
X210876000Y-112903000D03*
%TD*%
D19*
%TO.C,R61*%
X216916000Y-92723000D03*
X216916000Y-91173000D03*
%TD*%
D24*
%TO.C,R35*%
X160274000Y-160885500D03*
X160274000Y-162710500D03*
%TD*%
D18*
%TO.C,R22*%
X247904000Y-185316500D03*
X247904000Y-183491500D03*
%TD*%
D35*
%TO.C,C20*%
X183134000Y-90744000D03*
X183134000Y-92644000D03*
%TD*%
D19*
%TO.C,R53*%
X224028000Y-123203000D03*
X224028000Y-121653000D03*
%TD*%
D24*
%TO.C,R24*%
X192532000Y-187809500D03*
X192532000Y-189634500D03*
%TD*%
D22*
%TO.C,R26*%
X186586500Y-187960000D03*
X184761500Y-187960000D03*
%TD*%
D24*
%TO.C,R19*%
X157226000Y-167743500D03*
X157226000Y-169568500D03*
%TD*%
D22*
%TO.C,R23*%
X245260500Y-187706000D03*
X243435500Y-187706000D03*
%TD*%
D36*
%TO.C,C21*%
X181356000Y-91214000D03*
X181356000Y-92174000D03*
%TD*%
D18*
%TO.C,R30*%
X169926000Y-161186500D03*
X169926000Y-159361500D03*
%TD*%
D37*
%TO.C,D27*%
X224536000Y-84406500D03*
X224536000Y-86281500D03*
%TD*%
D24*
%TO.C,R4*%
X226568000Y-179935500D03*
X226568000Y-181760500D03*
%TD*%
%TO.C,R16*%
X200152000Y-183999500D03*
X200152000Y-185824500D03*
%TD*%
%TO.C,R33*%
X169926000Y-163171500D03*
X169926000Y-164996500D03*
%TD*%
D27*
%TO.C,Q4*%
X193426500Y-120330000D03*
X193426500Y-119380000D03*
X193426500Y-118430000D03*
X195701500Y-118430000D03*
X195701500Y-119380000D03*
X195701500Y-120330000D03*
%TD*%
D38*
%TO.C,C26*%
X200660000Y-89457000D03*
X200660000Y-92407000D03*
%TD*%
D39*
%TO.C,U20*%
X228244000Y-107964000D03*
X228244000Y-105664000D03*
D40*
X234544000Y-105664000D03*
D39*
X228244000Y-103364000D03*
%TD*%
D41*
%TO.C,C30*%
X255257000Y-122174000D03*
X256807000Y-122174000D03*
%TD*%
D42*
%TO.C,U13*%
X196990000Y-153088000D03*
X196990000Y-151818000D03*
X196990000Y-150548000D03*
X196990000Y-149278000D03*
X196990000Y-148008000D03*
X196990000Y-146738000D03*
X196990000Y-145468000D03*
X196990000Y-144198000D03*
X196990000Y-142928000D03*
X196990000Y-141658000D03*
X196990000Y-140388000D03*
X196990000Y-139118000D03*
X196990000Y-137848000D03*
X196990000Y-136578000D03*
D43*
X200025000Y-135328000D03*
X201295000Y-135328000D03*
X202565000Y-135328000D03*
X203835000Y-135328000D03*
X205105000Y-135328000D03*
X206375000Y-135328000D03*
X207645000Y-135328000D03*
X208915000Y-135328000D03*
X210185000Y-135328000D03*
X211455000Y-135328000D03*
D42*
X214490000Y-136578000D03*
X214490000Y-137848000D03*
X214490000Y-139118000D03*
X214490000Y-140388000D03*
X214490000Y-141658000D03*
X214490000Y-142928000D03*
X214490000Y-144198000D03*
X214490000Y-145468000D03*
X214490000Y-146738000D03*
X214490000Y-148008000D03*
X214490000Y-149278000D03*
X214490000Y-150548000D03*
X214490000Y-151818000D03*
X214490000Y-153088000D03*
D44*
X202840000Y-146768000D03*
X204240000Y-146768000D03*
X205640000Y-146768000D03*
X202840000Y-145368000D03*
X204240000Y-145368000D03*
X205640000Y-145368000D03*
X202840000Y-143968000D03*
X204240000Y-143968000D03*
X205640000Y-143968000D03*
%TD*%
D20*
%TO.C,C29*%
X175273000Y-126492000D03*
X173723000Y-126492000D03*
%TD*%
D45*
%TO.C,Q1*%
X205480000Y-128190500D03*
X205480000Y-130090500D03*
X203460000Y-129140500D03*
%TD*%
D20*
%TO.C,R58*%
X197371000Y-92456000D03*
X195821000Y-92456000D03*
%TD*%
D46*
%TO.C,R41*%
X221805000Y-144272000D03*
X220155000Y-144272000D03*
%TD*%
D47*
%TO.C,R55*%
X199136000Y-119621000D03*
X199136000Y-121171000D03*
%TD*%
D16*
%TO.C,C24*%
X205232000Y-115288000D03*
X205232000Y-114328000D03*
%TD*%
D48*
%TO.C,D25*%
X211836000Y-99862000D03*
X211836000Y-104862000D03*
%TD*%
D17*
%TO.C,R43*%
X215392000Y-128841000D03*
X215392000Y-127191000D03*
%TD*%
D45*
%TO.C,Q2*%
X196602000Y-130236000D03*
X196602000Y-128336000D03*
X198622000Y-129286000D03*
%TD*%
D46*
%TO.C,R6*%
X191325000Y-125984000D03*
X189675000Y-125984000D03*
%TD*%
D24*
%TO.C,R5*%
X245110000Y-172927000D03*
X245110000Y-174752000D03*
%TD*%
D20*
%TO.C,C13*%
X212103000Y-126492000D03*
X210553000Y-126492000D03*
%TD*%
D49*
%TO.C,R49*%
X223458500Y-112776000D03*
X220533500Y-112776000D03*
%TD*%
D18*
%TO.C,R2*%
X241808000Y-174752000D03*
X241808000Y-172927000D03*
%TD*%
D16*
%TO.C,C25*%
X205232000Y-120368000D03*
X205232000Y-119408000D03*
%TD*%
D38*
%TO.C,C16*%
X186436000Y-101649000D03*
X186436000Y-104599000D03*
%TD*%
D20*
%TO.C,C10*%
X191275000Y-129032000D03*
X189725000Y-129032000D03*
%TD*%
D47*
%TO.C,R65*%
X214884000Y-87617000D03*
X214884000Y-89167000D03*
%TD*%
D50*
%TO.C,U12*%
X163703000Y-159582000D03*
X164973000Y-159582000D03*
X166243000Y-159582000D03*
X167513000Y-159582000D03*
X167513000Y-164522000D03*
X166243000Y-164522000D03*
X164973000Y-164522000D03*
X163703000Y-164522000D03*
%TD*%
D47*
%TO.C,R54*%
X199136000Y-114541000D03*
X199136000Y-116091000D03*
%TD*%
D15*
%TO.C,U18*%
X210941500Y-120970000D03*
X210941500Y-121920000D03*
X210941500Y-122870000D03*
X208666500Y-122870000D03*
X208666500Y-121920000D03*
X208666500Y-120970000D03*
%TD*%
D24*
%TO.C,R12*%
X236728000Y-179427500D03*
X236728000Y-181252500D03*
%TD*%
D49*
%TO.C,R50*%
X223458500Y-116332000D03*
X220533500Y-116332000D03*
%TD*%
D18*
%TO.C,R18*%
X154940000Y-169568500D03*
X154940000Y-167743500D03*
%TD*%
D51*
%TO.C,U19*%
X206248000Y-92456000D03*
D52*
X204248000Y-89856000D03*
X205248000Y-89856000D03*
X206248000Y-89856000D03*
X207248000Y-89856000D03*
X208248000Y-89856000D03*
X208248000Y-95056000D03*
X207248000Y-95056000D03*
X206248000Y-95056000D03*
X205248000Y-95056000D03*
X204248000Y-95056000D03*
%TD*%
D39*
%TO.C,U6*%
X177698000Y-114060000D03*
X177698000Y-111760000D03*
D40*
X183998000Y-111760000D03*
D39*
X177698000Y-109460000D03*
%TD*%
D18*
%TO.C,R14*%
X197612000Y-185824500D03*
X197612000Y-183999500D03*
%TD*%
D17*
%TO.C,R40*%
X218440000Y-130365000D03*
X218440000Y-128715000D03*
%TD*%
D53*
%TO.C,IC1*%
X218197000Y-147938000D03*
X218847000Y-147938000D03*
X219497000Y-147938000D03*
X220147000Y-147938000D03*
X220797000Y-147938000D03*
X221447000Y-147938000D03*
X222097000Y-147938000D03*
X222747000Y-147938000D03*
X222747000Y-153814000D03*
X222097000Y-153814000D03*
X221447000Y-153814000D03*
X220797000Y-153814000D03*
X220147000Y-153814000D03*
X219497000Y-153814000D03*
X218847000Y-153814000D03*
X218197000Y-153814000D03*
%TD*%
D22*
%TO.C,R20*%
X241704500Y-187706000D03*
X239879500Y-187706000D03*
%TD*%
D27*
%TO.C,U15*%
X201046500Y-115250000D03*
X201046500Y-114300000D03*
X201046500Y-113350000D03*
X203321500Y-113350000D03*
X203321500Y-114300000D03*
X203321500Y-115250000D03*
%TD*%
D18*
%TO.C,R3*%
X224282000Y-181760500D03*
X224282000Y-179935500D03*
%TD*%
D17*
%TO.C,R37*%
X179832000Y-92265000D03*
X179832000Y-90615000D03*
%TD*%
D19*
%TO.C,C19*%
X182626000Y-102375000D03*
X182626000Y-100825000D03*
%TD*%
D17*
%TO.C,R48*%
X180594000Y-102425000D03*
X180594000Y-100775000D03*
%TD*%
D54*
%TO.C,D26*%
X193040000Y-104862000D03*
X193040000Y-99862000D03*
%TD*%
D55*
%TO.C,U2*%
X180606000Y-95599000D03*
X181106000Y-95599000D03*
X181606000Y-95599000D03*
X182106000Y-95599000D03*
X182106000Y-97949000D03*
X181606000Y-97949000D03*
X181106000Y-97949000D03*
X180606000Y-97949000D03*
%TD*%
D31*
%TO.C,U11*%
X190684000Y-180975000D03*
X190684000Y-182245000D03*
X190684000Y-183515000D03*
X190684000Y-184785000D03*
X185744000Y-184785000D03*
X185744000Y-183515000D03*
X185744000Y-182245000D03*
X185744000Y-180975000D03*
%TD*%
D20*
%TO.C,R59*%
X197371000Y-90424000D03*
X195821000Y-90424000D03*
%TD*%
D16*
%TO.C,C22*%
X207772000Y-112748000D03*
X207772000Y-111788000D03*
%TD*%
D56*
%TO.C,L1*%
X187706000Y-91017000D03*
X187706000Y-93387000D03*
%TD*%
D24*
%TO.C,R28*%
X182626000Y-180697500D03*
X182626000Y-182522500D03*
%TD*%
D57*
%TO.C,C12*%
X190500000Y-176718000D03*
X190500000Y-174818000D03*
%TD*%
%TO.C,R60*%
X202692000Y-105598000D03*
X202692000Y-103698000D03*
%TD*%
D46*
%TO.C,R47*%
X176085000Y-94996000D03*
X174435000Y-94996000D03*
%TD*%
D22*
%TO.C,R13*%
X244244500Y-178054000D03*
X242419500Y-178054000D03*
%TD*%
D47*
%TO.C,R52*%
X212852000Y-121653000D03*
X212852000Y-123203000D03*
%TD*%
D19*
%TO.C,R56*%
X214376000Y-123203000D03*
X214376000Y-121653000D03*
%TD*%
D24*
%TO.C,R17*%
X171196000Y-179681500D03*
X171196000Y-181506500D03*
%TD*%
D58*
%TO.C,U14*%
X211470000Y-129906000D03*
X210170000Y-129906000D03*
X211470000Y-131206000D03*
X210170000Y-131206000D03*
D59*
X209570000Y-128618500D03*
X210070000Y-128618500D03*
X210570000Y-128618500D03*
X211070000Y-128618500D03*
X211570000Y-128618500D03*
X212070000Y-128618500D03*
D60*
X212757500Y-129306000D03*
X212757500Y-129806000D03*
X212757500Y-130306000D03*
X212757500Y-130806000D03*
X212757500Y-131306000D03*
X212757500Y-131806000D03*
D59*
X212070000Y-132493500D03*
X211570000Y-132493500D03*
X211070000Y-132493500D03*
X210570000Y-132493500D03*
X210070000Y-132493500D03*
X209570000Y-132493500D03*
D60*
X208882500Y-131806000D03*
X208882500Y-131306000D03*
X208882500Y-130806000D03*
X208882500Y-130306000D03*
X208882500Y-129806000D03*
X208882500Y-129306000D03*
%TD*%
D26*
%TO.C,C17*%
X178562000Y-103583000D03*
X178562000Y-100633000D03*
%TD*%
D47*
%TO.C,C14*%
X220472000Y-128765000D03*
X220472000Y-130315000D03*
%TD*%
%TO.C,R57*%
X205740000Y-99809000D03*
X205740000Y-101359000D03*
%TD*%
D20*
%TO.C,C11*%
X189751000Y-113792000D03*
X188201000Y-113792000D03*
%TD*%
D41*
%TO.C,C31*%
X154673000Y-123190000D03*
X156223000Y-123190000D03*
%TD*%
D61*
%TO.C,U21*%
X223479000Y-94810500D03*
X222829000Y-94810500D03*
X222179000Y-94810500D03*
X221529000Y-94810500D03*
X221529000Y-89085500D03*
X222179000Y-89085500D03*
X222829000Y-89085500D03*
X223479000Y-89085500D03*
%TD*%
D37*
%TO.C,D23*%
X220980000Y-84406500D03*
X220980000Y-86281500D03*
%TD*%
D62*
%TO.C,U1*%
X174680000Y-132588000D03*
X175840000Y-132588000D03*
D63*
X177535000Y-135450500D03*
X176885000Y-135450500D03*
X176235000Y-135450500D03*
X175585000Y-135450500D03*
X174935000Y-135450500D03*
X174285000Y-135450500D03*
X173635000Y-135450500D03*
X172985000Y-135450500D03*
X172985000Y-129725500D03*
X173635000Y-129725500D03*
X174285000Y-129725500D03*
X174935000Y-129725500D03*
X175585000Y-129725500D03*
X176235000Y-129725500D03*
X176885000Y-129725500D03*
X177535000Y-129725500D03*
%TD*%
D24*
%TO.C,R25*%
X182626000Y-187809500D03*
X182626000Y-189634500D03*
%TD*%
D64*
%TO.C,C15*%
X175740000Y-97536000D03*
X174780000Y-97536000D03*
%TD*%
D16*
%TO.C,C23*%
X207772000Y-116304000D03*
X207772000Y-115344000D03*
%TD*%
D47*
%TO.C,R51*%
X221996000Y-121653000D03*
X221996000Y-123203000D03*
%TD*%
D36*
%TO.C,C28*%
X228600000Y-99596000D03*
X228600000Y-100556000D03*
%TD*%
D17*
%TO.C,R62*%
X227076000Y-86169000D03*
X227076000Y-84519000D03*
%TD*%
M02*
