%TF.GenerationSoftware,KiCad,Pcbnew,7.0.10-7.0.10~ubuntu22.04.1*%
%TF.CreationDate,2024-02-07T11:44:01+07:00*%
%TF.ProjectId,NomobotSK,4e6f6d6f-626f-4745-934b-2e6b69636164,rev?*%
%TF.SameCoordinates,Original*%
%TF.FileFunction,Soldermask,Top*%
%TF.FilePolarity,Negative*%
%FSLAX46Y46*%
G04 Gerber Fmt 4.6, Leading zero omitted, Abs format (unit mm)*
G04 Created by KiCad (PCBNEW 7.0.10-7.0.10~ubuntu22.04.1) date 2024-02-07 11:44:01*
%MOMM*%
%LPD*%
G01*
G04 APERTURE LIST*
G04 Aperture macros list*
%AMRoundRect*
0 Rectangle with rounded corners*
0 $1 Rounding radius*
0 $2 $3 $4 $5 $6 $7 $8 $9 X,Y pos of 4 corners*
0 Add a 4 corners polygon primitive as box body*
4,1,4,$2,$3,$4,$5,$6,$7,$8,$9,$2,$3,0*
0 Add four circle primitives for the rounded corners*
1,1,$1+$1,$2,$3*
1,1,$1+$1,$4,$5*
1,1,$1+$1,$6,$7*
1,1,$1+$1,$8,$9*
0 Add four rect primitives between the rounded corners*
20,1,$1+$1,$2,$3,$4,$5,0*
20,1,$1+$1,$4,$5,$6,$7,0*
20,1,$1+$1,$6,$7,$8,$9,0*
20,1,$1+$1,$8,$9,$2,$3,0*%
%AMHorizOval*
0 Thick line with rounded ends*
0 $1 width*
0 $2 $3 position (X,Y) of the first rounded end (center of the circle)*
0 $4 $5 position (X,Y) of the second rounded end (center of the circle)*
0 Add line between two ends*
20,1,$1,$2,$3,$4,$5,0*
0 Add two circle primitives to create the rounded ends*
1,1,$1,$2,$3*
1,1,$1,$4,$5*%
%AMRotRect*
0 Rectangle, with rotation*
0 The origin of the aperture is its center*
0 $1 length*
0 $2 width*
0 $3 Rotation angle, in degrees counterclockwise*
0 Add horizontal line*
21,1,$1,$2,0,0,$3*%
G04 Aperture macros list end*
%ADD10C,0.100000*%
%ADD11C,0.150000*%
%ADD12C,0.300000*%
%ADD13C,0.400000*%
%ADD14RoundRect,0.243750X0.456250X-0.243750X0.456250X0.243750X-0.456250X0.243750X-0.456250X-0.243750X0*%
%ADD15RoundRect,0.200000X-0.275000X0.200000X-0.275000X-0.200000X0.275000X-0.200000X0.275000X0.200000X0*%
%ADD16RoundRect,0.250000X0.600000X0.725000X-0.600000X0.725000X-0.600000X-0.725000X0.600000X-0.725000X0*%
%ADD17O,1.700000X1.950000*%
%ADD18RotRect,1.500000X0.900000X202.500000*%
%ADD19RotRect,1.500000X0.900000X67.500000*%
%ADD20R,1.600000X1.600000*%
%ADD21O,1.600000X1.600000*%
%ADD22R,1.600000X1.400000*%
%ADD23R,2.000000X2.000000*%
%ADD24C,2.000000*%
%ADD25RotRect,1.500000X0.900000X157.500000*%
%ADD26C,3.200000*%
%ADD27C,2.604000*%
%ADD28RoundRect,0.250000X-0.262500X-0.450000X0.262500X-0.450000X0.262500X0.450000X-0.262500X0.450000X0*%
%ADD29C,1.000000*%
%ADD30R,1.500000X0.900000*%
%ADD31RoundRect,0.250000X1.075000X0.550000X-1.075000X0.550000X-1.075000X-0.550000X1.075000X-0.550000X0*%
%ADD32RoundRect,0.243750X-0.456250X0.243750X-0.456250X-0.243750X0.456250X-0.243750X0.456250X0.243750X0*%
%ADD33RotRect,1.500000X0.900000X115.500000*%
%ADD34R,1.700000X1.700000*%
%ADD35O,1.700000X1.700000*%
%ADD36RoundRect,0.250000X1.500000X0.550000X-1.500000X0.550000X-1.500000X-0.550000X1.500000X-0.550000X0*%
%ADD37RoundRect,0.250000X0.262500X0.450000X-0.262500X0.450000X-0.262500X-0.450000X0.262500X-0.450000X0*%
%ADD38RoundRect,0.225000X-0.225000X-0.250000X0.225000X-0.250000X0.225000X0.250000X-0.225000X0.250000X0*%
%ADD39RoundRect,0.250000X0.250000X0.475000X-0.250000X0.475000X-0.250000X-0.475000X0.250000X-0.475000X0*%
%ADD40RotRect,1.500000X0.900000X292.500000*%
%ADD41RoundRect,0.250000X0.450000X-0.262500X0.450000X0.262500X-0.450000X0.262500X-0.450000X-0.262500X0*%
%ADD42R,1.800000X1.800000*%
%ADD43C,1.800000*%
%ADD44R,0.900000X1.500000*%
%ADD45RoundRect,0.200000X0.200000X0.275000X-0.200000X0.275000X-0.200000X-0.275000X0.200000X-0.275000X0*%
%ADD46RoundRect,0.200000X-0.200000X-0.275000X0.200000X-0.275000X0.200000X0.275000X-0.200000X0.275000X0*%
%ADD47RoundRect,0.218750X0.256250X-0.218750X0.256250X0.218750X-0.256250X0.218750X-0.256250X-0.218750X0*%
%ADD48RoundRect,0.250000X-0.250000X-0.475000X0.250000X-0.475000X0.250000X0.475000X-0.250000X0.475000X0*%
%ADD49HorizOval,1.600000X-0.277785X-0.415735X0.277785X0.415735X0*%
%ADD50RotRect,1.500000X0.900000X225.000000*%
%ADD51RotRect,1.500000X0.900000X315.000000*%
%ADD52RotRect,1.500000X0.900000X337.500000*%
%ADD53RoundRect,0.250000X-0.450000X0.262500X-0.450000X-0.262500X0.450000X-0.262500X0.450000X0.262500X0*%
%ADD54RotRect,1.500000X0.900000X244.500000*%
%ADD55C,1.440000*%
%ADD56RotRect,1.500000X0.900000X135.000000*%
%ADD57RotRect,1.500000X0.900000X45.000000*%
%ADD58R,1.524000X1.524000*%
%ADD59RotRect,1.500000X0.900000X22.500000*%
%ADD60RoundRect,0.250000X-1.500000X-0.550000X1.500000X-0.550000X1.500000X0.550000X-1.500000X0.550000X0*%
%ADD61C,2.500000*%
%ADD62C,1.704000*%
%ADD63C,0.650000*%
%ADD64O,1.000000X1.600000*%
%ADD65O,1.000000X2.100000*%
%ADD66R,2.100000X2.100000*%
%ADD67C,2.100000*%
G04 APERTURE END LIST*
D10*
D11*
X299989000Y-253002200D02*
X407989000Y-253002200D01*
X407989000Y-285002200D01*
X299989000Y-285002200D01*
X299989000Y-253002200D01*
D10*
D11*
X10000000Y-10000000D02*
X409989000Y-10000000D01*
X409989000Y-287002200D01*
X10000000Y-287002200D01*
X10000000Y-10000000D01*
D10*
D11*
X12000000Y-12000000D02*
X407989000Y-12000000D01*
X407989000Y-285002200D01*
X12000000Y-285002200D01*
X12000000Y-12000000D01*
D10*
D11*
X60000000Y-12000000D02*
X60000000Y-10000000D01*
D10*
D11*
X110000000Y-12000000D02*
X110000000Y-10000000D01*
D10*
D11*
X160000000Y-12000000D02*
X160000000Y-10000000D01*
D10*
D11*
X210000000Y-12000000D02*
X210000000Y-10000000D01*
D10*
D11*
X260000000Y-12000000D02*
X260000000Y-10000000D01*
D10*
D11*
X310000000Y-12000000D02*
X310000000Y-10000000D01*
D10*
D11*
X360000000Y-12000000D02*
X360000000Y-10000000D01*
D10*
D11*
X36089160Y-11593604D02*
X35346303Y-11593604D01*
X35717731Y-11593604D02*
X35717731Y-10293604D01*
X35717731Y-10293604D02*
X35593922Y-10479319D01*
X35593922Y-10479319D02*
X35470112Y-10603128D01*
X35470112Y-10603128D02*
X35346303Y-10665033D01*
D10*
D11*
X85346303Y-10417414D02*
X85408207Y-10355509D01*
X85408207Y-10355509D02*
X85532017Y-10293604D01*
X85532017Y-10293604D02*
X85841541Y-10293604D01*
X85841541Y-10293604D02*
X85965350Y-10355509D01*
X85965350Y-10355509D02*
X86027255Y-10417414D01*
X86027255Y-10417414D02*
X86089160Y-10541223D01*
X86089160Y-10541223D02*
X86089160Y-10665033D01*
X86089160Y-10665033D02*
X86027255Y-10850747D01*
X86027255Y-10850747D02*
X85284398Y-11593604D01*
X85284398Y-11593604D02*
X86089160Y-11593604D01*
D10*
D11*
X135284398Y-10293604D02*
X136089160Y-10293604D01*
X136089160Y-10293604D02*
X135655826Y-10788842D01*
X135655826Y-10788842D02*
X135841541Y-10788842D01*
X135841541Y-10788842D02*
X135965350Y-10850747D01*
X135965350Y-10850747D02*
X136027255Y-10912652D01*
X136027255Y-10912652D02*
X136089160Y-11036461D01*
X136089160Y-11036461D02*
X136089160Y-11345985D01*
X136089160Y-11345985D02*
X136027255Y-11469795D01*
X136027255Y-11469795D02*
X135965350Y-11531700D01*
X135965350Y-11531700D02*
X135841541Y-11593604D01*
X135841541Y-11593604D02*
X135470112Y-11593604D01*
X135470112Y-11593604D02*
X135346303Y-11531700D01*
X135346303Y-11531700D02*
X135284398Y-11469795D01*
D10*
D11*
X185965350Y-10726938D02*
X185965350Y-11593604D01*
X185655826Y-10231700D02*
X185346303Y-11160271D01*
X185346303Y-11160271D02*
X186151064Y-11160271D01*
D10*
D11*
X236027255Y-10293604D02*
X235408207Y-10293604D01*
X235408207Y-10293604D02*
X235346303Y-10912652D01*
X235346303Y-10912652D02*
X235408207Y-10850747D01*
X235408207Y-10850747D02*
X235532017Y-10788842D01*
X235532017Y-10788842D02*
X235841541Y-10788842D01*
X235841541Y-10788842D02*
X235965350Y-10850747D01*
X235965350Y-10850747D02*
X236027255Y-10912652D01*
X236027255Y-10912652D02*
X236089160Y-11036461D01*
X236089160Y-11036461D02*
X236089160Y-11345985D01*
X236089160Y-11345985D02*
X236027255Y-11469795D01*
X236027255Y-11469795D02*
X235965350Y-11531700D01*
X235965350Y-11531700D02*
X235841541Y-11593604D01*
X235841541Y-11593604D02*
X235532017Y-11593604D01*
X235532017Y-11593604D02*
X235408207Y-11531700D01*
X235408207Y-11531700D02*
X235346303Y-11469795D01*
D10*
D11*
X285965350Y-10293604D02*
X285717731Y-10293604D01*
X285717731Y-10293604D02*
X285593922Y-10355509D01*
X285593922Y-10355509D02*
X285532017Y-10417414D01*
X285532017Y-10417414D02*
X285408207Y-10603128D01*
X285408207Y-10603128D02*
X285346303Y-10850747D01*
X285346303Y-10850747D02*
X285346303Y-11345985D01*
X285346303Y-11345985D02*
X285408207Y-11469795D01*
X285408207Y-11469795D02*
X285470112Y-11531700D01*
X285470112Y-11531700D02*
X285593922Y-11593604D01*
X285593922Y-11593604D02*
X285841541Y-11593604D01*
X285841541Y-11593604D02*
X285965350Y-11531700D01*
X285965350Y-11531700D02*
X286027255Y-11469795D01*
X286027255Y-11469795D02*
X286089160Y-11345985D01*
X286089160Y-11345985D02*
X286089160Y-11036461D01*
X286089160Y-11036461D02*
X286027255Y-10912652D01*
X286027255Y-10912652D02*
X285965350Y-10850747D01*
X285965350Y-10850747D02*
X285841541Y-10788842D01*
X285841541Y-10788842D02*
X285593922Y-10788842D01*
X285593922Y-10788842D02*
X285470112Y-10850747D01*
X285470112Y-10850747D02*
X285408207Y-10912652D01*
X285408207Y-10912652D02*
X285346303Y-11036461D01*
D10*
D11*
X335284398Y-10293604D02*
X336151064Y-10293604D01*
X336151064Y-10293604D02*
X335593922Y-11593604D01*
D10*
D11*
X385593922Y-10850747D02*
X385470112Y-10788842D01*
X385470112Y-10788842D02*
X385408207Y-10726938D01*
X385408207Y-10726938D02*
X385346303Y-10603128D01*
X385346303Y-10603128D02*
X385346303Y-10541223D01*
X385346303Y-10541223D02*
X385408207Y-10417414D01*
X385408207Y-10417414D02*
X385470112Y-10355509D01*
X385470112Y-10355509D02*
X385593922Y-10293604D01*
X385593922Y-10293604D02*
X385841541Y-10293604D01*
X385841541Y-10293604D02*
X385965350Y-10355509D01*
X385965350Y-10355509D02*
X386027255Y-10417414D01*
X386027255Y-10417414D02*
X386089160Y-10541223D01*
X386089160Y-10541223D02*
X386089160Y-10603128D01*
X386089160Y-10603128D02*
X386027255Y-10726938D01*
X386027255Y-10726938D02*
X385965350Y-10788842D01*
X385965350Y-10788842D02*
X385841541Y-10850747D01*
X385841541Y-10850747D02*
X385593922Y-10850747D01*
X385593922Y-10850747D02*
X385470112Y-10912652D01*
X385470112Y-10912652D02*
X385408207Y-10974557D01*
X385408207Y-10974557D02*
X385346303Y-11098366D01*
X385346303Y-11098366D02*
X385346303Y-11345985D01*
X385346303Y-11345985D02*
X385408207Y-11469795D01*
X385408207Y-11469795D02*
X385470112Y-11531700D01*
X385470112Y-11531700D02*
X385593922Y-11593604D01*
X385593922Y-11593604D02*
X385841541Y-11593604D01*
X385841541Y-11593604D02*
X385965350Y-11531700D01*
X385965350Y-11531700D02*
X386027255Y-11469795D01*
X386027255Y-11469795D02*
X386089160Y-11345985D01*
X386089160Y-11345985D02*
X386089160Y-11098366D01*
X386089160Y-11098366D02*
X386027255Y-10974557D01*
X386027255Y-10974557D02*
X385965350Y-10912652D01*
X385965350Y-10912652D02*
X385841541Y-10850747D01*
D10*
D11*
X60000000Y-285002200D02*
X60000000Y-287002200D01*
D10*
D11*
X110000000Y-285002200D02*
X110000000Y-287002200D01*
D10*
D11*
X160000000Y-285002200D02*
X160000000Y-287002200D01*
D10*
D11*
X210000000Y-285002200D02*
X210000000Y-287002200D01*
D10*
D11*
X260000000Y-285002200D02*
X260000000Y-287002200D01*
D10*
D11*
X310000000Y-285002200D02*
X310000000Y-287002200D01*
D10*
D11*
X360000000Y-285002200D02*
X360000000Y-287002200D01*
D10*
D11*
X36089160Y-286595804D02*
X35346303Y-286595804D01*
X35717731Y-286595804D02*
X35717731Y-285295804D01*
X35717731Y-285295804D02*
X35593922Y-285481519D01*
X35593922Y-285481519D02*
X35470112Y-285605328D01*
X35470112Y-285605328D02*
X35346303Y-285667233D01*
D10*
D11*
X85346303Y-285419614D02*
X85408207Y-285357709D01*
X85408207Y-285357709D02*
X85532017Y-285295804D01*
X85532017Y-285295804D02*
X85841541Y-285295804D01*
X85841541Y-285295804D02*
X85965350Y-285357709D01*
X85965350Y-285357709D02*
X86027255Y-285419614D01*
X86027255Y-285419614D02*
X86089160Y-285543423D01*
X86089160Y-285543423D02*
X86089160Y-285667233D01*
X86089160Y-285667233D02*
X86027255Y-285852947D01*
X86027255Y-285852947D02*
X85284398Y-286595804D01*
X85284398Y-286595804D02*
X86089160Y-286595804D01*
D10*
D11*
X135284398Y-285295804D02*
X136089160Y-285295804D01*
X136089160Y-285295804D02*
X135655826Y-285791042D01*
X135655826Y-285791042D02*
X135841541Y-285791042D01*
X135841541Y-285791042D02*
X135965350Y-285852947D01*
X135965350Y-285852947D02*
X136027255Y-285914852D01*
X136027255Y-285914852D02*
X136089160Y-286038661D01*
X136089160Y-286038661D02*
X136089160Y-286348185D01*
X136089160Y-286348185D02*
X136027255Y-286471995D01*
X136027255Y-286471995D02*
X135965350Y-286533900D01*
X135965350Y-286533900D02*
X135841541Y-286595804D01*
X135841541Y-286595804D02*
X135470112Y-286595804D01*
X135470112Y-286595804D02*
X135346303Y-286533900D01*
X135346303Y-286533900D02*
X135284398Y-286471995D01*
D10*
D11*
X185965350Y-285729138D02*
X185965350Y-286595804D01*
X185655826Y-285233900D02*
X185346303Y-286162471D01*
X185346303Y-286162471D02*
X186151064Y-286162471D01*
D10*
D11*
X236027255Y-285295804D02*
X235408207Y-285295804D01*
X235408207Y-285295804D02*
X235346303Y-285914852D01*
X235346303Y-285914852D02*
X235408207Y-285852947D01*
X235408207Y-285852947D02*
X235532017Y-285791042D01*
X235532017Y-285791042D02*
X235841541Y-285791042D01*
X235841541Y-285791042D02*
X235965350Y-285852947D01*
X235965350Y-285852947D02*
X236027255Y-285914852D01*
X236027255Y-285914852D02*
X236089160Y-286038661D01*
X236089160Y-286038661D02*
X236089160Y-286348185D01*
X236089160Y-286348185D02*
X236027255Y-286471995D01*
X236027255Y-286471995D02*
X235965350Y-286533900D01*
X235965350Y-286533900D02*
X235841541Y-286595804D01*
X235841541Y-286595804D02*
X235532017Y-286595804D01*
X235532017Y-286595804D02*
X235408207Y-286533900D01*
X235408207Y-286533900D02*
X235346303Y-286471995D01*
D10*
D11*
X285965350Y-285295804D02*
X285717731Y-285295804D01*
X285717731Y-285295804D02*
X285593922Y-285357709D01*
X285593922Y-285357709D02*
X285532017Y-285419614D01*
X285532017Y-285419614D02*
X285408207Y-285605328D01*
X285408207Y-285605328D02*
X285346303Y-285852947D01*
X285346303Y-285852947D02*
X285346303Y-286348185D01*
X285346303Y-286348185D02*
X285408207Y-286471995D01*
X285408207Y-286471995D02*
X285470112Y-286533900D01*
X285470112Y-286533900D02*
X285593922Y-286595804D01*
X285593922Y-286595804D02*
X285841541Y-286595804D01*
X285841541Y-286595804D02*
X285965350Y-286533900D01*
X285965350Y-286533900D02*
X286027255Y-286471995D01*
X286027255Y-286471995D02*
X286089160Y-286348185D01*
X286089160Y-286348185D02*
X286089160Y-286038661D01*
X286089160Y-286038661D02*
X286027255Y-285914852D01*
X286027255Y-285914852D02*
X285965350Y-285852947D01*
X285965350Y-285852947D02*
X285841541Y-285791042D01*
X285841541Y-285791042D02*
X285593922Y-285791042D01*
X285593922Y-285791042D02*
X285470112Y-285852947D01*
X285470112Y-285852947D02*
X285408207Y-285914852D01*
X285408207Y-285914852D02*
X285346303Y-286038661D01*
D10*
D11*
X335284398Y-285295804D02*
X336151064Y-285295804D01*
X336151064Y-285295804D02*
X335593922Y-286595804D01*
D10*
D11*
X385593922Y-285852947D02*
X385470112Y-285791042D01*
X385470112Y-285791042D02*
X385408207Y-285729138D01*
X385408207Y-285729138D02*
X385346303Y-285605328D01*
X385346303Y-285605328D02*
X385346303Y-285543423D01*
X385346303Y-285543423D02*
X385408207Y-285419614D01*
X385408207Y-285419614D02*
X385470112Y-285357709D01*
X385470112Y-285357709D02*
X385593922Y-285295804D01*
X385593922Y-285295804D02*
X385841541Y-285295804D01*
X385841541Y-285295804D02*
X385965350Y-285357709D01*
X385965350Y-285357709D02*
X386027255Y-285419614D01*
X386027255Y-285419614D02*
X386089160Y-285543423D01*
X386089160Y-285543423D02*
X386089160Y-285605328D01*
X386089160Y-285605328D02*
X386027255Y-285729138D01*
X386027255Y-285729138D02*
X385965350Y-285791042D01*
X385965350Y-285791042D02*
X385841541Y-285852947D01*
X385841541Y-285852947D02*
X385593922Y-285852947D01*
X385593922Y-285852947D02*
X385470112Y-285914852D01*
X385470112Y-285914852D02*
X385408207Y-285976757D01*
X385408207Y-285976757D02*
X385346303Y-286100566D01*
X385346303Y-286100566D02*
X385346303Y-286348185D01*
X385346303Y-286348185D02*
X385408207Y-286471995D01*
X385408207Y-286471995D02*
X385470112Y-286533900D01*
X385470112Y-286533900D02*
X385593922Y-286595804D01*
X385593922Y-286595804D02*
X385841541Y-286595804D01*
X385841541Y-286595804D02*
X385965350Y-286533900D01*
X385965350Y-286533900D02*
X386027255Y-286471995D01*
X386027255Y-286471995D02*
X386089160Y-286348185D01*
X386089160Y-286348185D02*
X386089160Y-286100566D01*
X386089160Y-286100566D02*
X386027255Y-285976757D01*
X386027255Y-285976757D02*
X385965350Y-285914852D01*
X385965350Y-285914852D02*
X385841541Y-285852947D01*
D10*
D11*
X10000000Y-60000000D02*
X12000000Y-60000000D01*
D10*
D11*
X10000000Y-110000000D02*
X12000000Y-110000000D01*
D10*
D11*
X10000000Y-160000000D02*
X12000000Y-160000000D01*
D10*
D11*
X10000000Y-210000000D02*
X12000000Y-210000000D01*
D10*
D11*
X10000000Y-260000000D02*
X12000000Y-260000000D01*
D10*
D11*
X10690476Y-35222176D02*
X11309523Y-35222176D01*
X10566666Y-35593604D02*
X10999999Y-34293604D01*
X10999999Y-34293604D02*
X11433333Y-35593604D01*
D10*
D11*
X11092857Y-84912652D02*
X11278571Y-84974557D01*
X11278571Y-84974557D02*
X11340476Y-85036461D01*
X11340476Y-85036461D02*
X11402380Y-85160271D01*
X11402380Y-85160271D02*
X11402380Y-85345985D01*
X11402380Y-85345985D02*
X11340476Y-85469795D01*
X11340476Y-85469795D02*
X11278571Y-85531700D01*
X11278571Y-85531700D02*
X11154761Y-85593604D01*
X11154761Y-85593604D02*
X10659523Y-85593604D01*
X10659523Y-85593604D02*
X10659523Y-84293604D01*
X10659523Y-84293604D02*
X11092857Y-84293604D01*
X11092857Y-84293604D02*
X11216666Y-84355509D01*
X11216666Y-84355509D02*
X11278571Y-84417414D01*
X11278571Y-84417414D02*
X11340476Y-84541223D01*
X11340476Y-84541223D02*
X11340476Y-84665033D01*
X11340476Y-84665033D02*
X11278571Y-84788842D01*
X11278571Y-84788842D02*
X11216666Y-84850747D01*
X11216666Y-84850747D02*
X11092857Y-84912652D01*
X11092857Y-84912652D02*
X10659523Y-84912652D01*
D10*
D11*
X11402380Y-135469795D02*
X11340476Y-135531700D01*
X11340476Y-135531700D02*
X11154761Y-135593604D01*
X11154761Y-135593604D02*
X11030952Y-135593604D01*
X11030952Y-135593604D02*
X10845238Y-135531700D01*
X10845238Y-135531700D02*
X10721428Y-135407890D01*
X10721428Y-135407890D02*
X10659523Y-135284080D01*
X10659523Y-135284080D02*
X10597619Y-135036461D01*
X10597619Y-135036461D02*
X10597619Y-134850747D01*
X10597619Y-134850747D02*
X10659523Y-134603128D01*
X10659523Y-134603128D02*
X10721428Y-134479319D01*
X10721428Y-134479319D02*
X10845238Y-134355509D01*
X10845238Y-134355509D02*
X11030952Y-134293604D01*
X11030952Y-134293604D02*
X11154761Y-134293604D01*
X11154761Y-134293604D02*
X11340476Y-134355509D01*
X11340476Y-134355509D02*
X11402380Y-134417414D01*
D10*
D11*
X10659523Y-185593604D02*
X10659523Y-184293604D01*
X10659523Y-184293604D02*
X10969047Y-184293604D01*
X10969047Y-184293604D02*
X11154761Y-184355509D01*
X11154761Y-184355509D02*
X11278571Y-184479319D01*
X11278571Y-184479319D02*
X11340476Y-184603128D01*
X11340476Y-184603128D02*
X11402380Y-184850747D01*
X11402380Y-184850747D02*
X11402380Y-185036461D01*
X11402380Y-185036461D02*
X11340476Y-185284080D01*
X11340476Y-185284080D02*
X11278571Y-185407890D01*
X11278571Y-185407890D02*
X11154761Y-185531700D01*
X11154761Y-185531700D02*
X10969047Y-185593604D01*
X10969047Y-185593604D02*
X10659523Y-185593604D01*
D10*
D11*
X10721428Y-234912652D02*
X11154762Y-234912652D01*
X11340476Y-235593604D02*
X10721428Y-235593604D01*
X10721428Y-235593604D02*
X10721428Y-234293604D01*
X10721428Y-234293604D02*
X11340476Y-234293604D01*
D10*
D11*
X11185714Y-284912652D02*
X10752380Y-284912652D01*
X10752380Y-285593604D02*
X10752380Y-284293604D01*
X10752380Y-284293604D02*
X11371428Y-284293604D01*
D10*
D11*
X409989000Y-60000000D02*
X407989000Y-60000000D01*
D10*
D11*
X409989000Y-110000000D02*
X407989000Y-110000000D01*
D10*
D11*
X409989000Y-160000000D02*
X407989000Y-160000000D01*
D10*
D11*
X409989000Y-210000000D02*
X407989000Y-210000000D01*
D10*
D11*
X409989000Y-260000000D02*
X407989000Y-260000000D01*
D10*
D11*
X408679476Y-35222176D02*
X409298523Y-35222176D01*
X408555666Y-35593604D02*
X408988999Y-34293604D01*
X408988999Y-34293604D02*
X409422333Y-35593604D01*
D10*
D11*
X409081857Y-84912652D02*
X409267571Y-84974557D01*
X409267571Y-84974557D02*
X409329476Y-85036461D01*
X409329476Y-85036461D02*
X409391380Y-85160271D01*
X409391380Y-85160271D02*
X409391380Y-85345985D01*
X409391380Y-85345985D02*
X409329476Y-85469795D01*
X409329476Y-85469795D02*
X409267571Y-85531700D01*
X409267571Y-85531700D02*
X409143761Y-85593604D01*
X409143761Y-85593604D02*
X408648523Y-85593604D01*
X408648523Y-85593604D02*
X408648523Y-84293604D01*
X408648523Y-84293604D02*
X409081857Y-84293604D01*
X409081857Y-84293604D02*
X409205666Y-84355509D01*
X409205666Y-84355509D02*
X409267571Y-84417414D01*
X409267571Y-84417414D02*
X409329476Y-84541223D01*
X409329476Y-84541223D02*
X409329476Y-84665033D01*
X409329476Y-84665033D02*
X409267571Y-84788842D01*
X409267571Y-84788842D02*
X409205666Y-84850747D01*
X409205666Y-84850747D02*
X409081857Y-84912652D01*
X409081857Y-84912652D02*
X408648523Y-84912652D01*
D10*
D11*
X409391380Y-135469795D02*
X409329476Y-135531700D01*
X409329476Y-135531700D02*
X409143761Y-135593604D01*
X409143761Y-135593604D02*
X409019952Y-135593604D01*
X409019952Y-135593604D02*
X408834238Y-135531700D01*
X408834238Y-135531700D02*
X408710428Y-135407890D01*
X408710428Y-135407890D02*
X408648523Y-135284080D01*
X408648523Y-135284080D02*
X408586619Y-135036461D01*
X408586619Y-135036461D02*
X408586619Y-134850747D01*
X408586619Y-134850747D02*
X408648523Y-134603128D01*
X408648523Y-134603128D02*
X408710428Y-134479319D01*
X408710428Y-134479319D02*
X408834238Y-134355509D01*
X408834238Y-134355509D02*
X409019952Y-134293604D01*
X409019952Y-134293604D02*
X409143761Y-134293604D01*
X409143761Y-134293604D02*
X409329476Y-134355509D01*
X409329476Y-134355509D02*
X409391380Y-134417414D01*
D10*
D11*
X408648523Y-185593604D02*
X408648523Y-184293604D01*
X408648523Y-184293604D02*
X408958047Y-184293604D01*
X408958047Y-184293604D02*
X409143761Y-184355509D01*
X409143761Y-184355509D02*
X409267571Y-184479319D01*
X409267571Y-184479319D02*
X409329476Y-184603128D01*
X409329476Y-184603128D02*
X409391380Y-184850747D01*
X409391380Y-184850747D02*
X409391380Y-185036461D01*
X409391380Y-185036461D02*
X409329476Y-185284080D01*
X409329476Y-185284080D02*
X409267571Y-185407890D01*
X409267571Y-185407890D02*
X409143761Y-185531700D01*
X409143761Y-185531700D02*
X408958047Y-185593604D01*
X408958047Y-185593604D02*
X408648523Y-185593604D01*
D10*
D11*
X408710428Y-234912652D02*
X409143762Y-234912652D01*
X409329476Y-235593604D02*
X408710428Y-235593604D01*
X408710428Y-235593604D02*
X408710428Y-234293604D01*
X408710428Y-234293604D02*
X409329476Y-234293604D01*
D10*
D11*
X409174714Y-284912652D02*
X408741380Y-284912652D01*
X408741380Y-285593604D02*
X408741380Y-284293604D01*
X408741380Y-284293604D02*
X409360428Y-284293604D01*
D10*
D11*
X323444826Y-280788328D02*
X323444826Y-279288328D01*
X323444826Y-279288328D02*
X323801969Y-279288328D01*
X323801969Y-279288328D02*
X324016255Y-279359757D01*
X324016255Y-279359757D02*
X324159112Y-279502614D01*
X324159112Y-279502614D02*
X324230541Y-279645471D01*
X324230541Y-279645471D02*
X324301969Y-279931185D01*
X324301969Y-279931185D02*
X324301969Y-280145471D01*
X324301969Y-280145471D02*
X324230541Y-280431185D01*
X324230541Y-280431185D02*
X324159112Y-280574042D01*
X324159112Y-280574042D02*
X324016255Y-280716900D01*
X324016255Y-280716900D02*
X323801969Y-280788328D01*
X323801969Y-280788328D02*
X323444826Y-280788328D01*
X325587684Y-280788328D02*
X325587684Y-280002614D01*
X325587684Y-280002614D02*
X325516255Y-279859757D01*
X325516255Y-279859757D02*
X325373398Y-279788328D01*
X325373398Y-279788328D02*
X325087684Y-279788328D01*
X325087684Y-279788328D02*
X324944826Y-279859757D01*
X325587684Y-280716900D02*
X325444826Y-280788328D01*
X325444826Y-280788328D02*
X325087684Y-280788328D01*
X325087684Y-280788328D02*
X324944826Y-280716900D01*
X324944826Y-280716900D02*
X324873398Y-280574042D01*
X324873398Y-280574042D02*
X324873398Y-280431185D01*
X324873398Y-280431185D02*
X324944826Y-280288328D01*
X324944826Y-280288328D02*
X325087684Y-280216900D01*
X325087684Y-280216900D02*
X325444826Y-280216900D01*
X325444826Y-280216900D02*
X325587684Y-280145471D01*
X326087684Y-279788328D02*
X326659112Y-279788328D01*
X326301969Y-279288328D02*
X326301969Y-280574042D01*
X326301969Y-280574042D02*
X326373398Y-280716900D01*
X326373398Y-280716900D02*
X326516255Y-280788328D01*
X326516255Y-280788328D02*
X326659112Y-280788328D01*
X327730541Y-280716900D02*
X327587684Y-280788328D01*
X327587684Y-280788328D02*
X327301970Y-280788328D01*
X327301970Y-280788328D02*
X327159112Y-280716900D01*
X327159112Y-280716900D02*
X327087684Y-280574042D01*
X327087684Y-280574042D02*
X327087684Y-280002614D01*
X327087684Y-280002614D02*
X327159112Y-279859757D01*
X327159112Y-279859757D02*
X327301970Y-279788328D01*
X327301970Y-279788328D02*
X327587684Y-279788328D01*
X327587684Y-279788328D02*
X327730541Y-279859757D01*
X327730541Y-279859757D02*
X327801970Y-280002614D01*
X327801970Y-280002614D02*
X327801970Y-280145471D01*
X327801970Y-280145471D02*
X327087684Y-280288328D01*
X328444826Y-280645471D02*
X328516255Y-280716900D01*
X328516255Y-280716900D02*
X328444826Y-280788328D01*
X328444826Y-280788328D02*
X328373398Y-280716900D01*
X328373398Y-280716900D02*
X328444826Y-280645471D01*
X328444826Y-280645471D02*
X328444826Y-280788328D01*
X328444826Y-279859757D02*
X328516255Y-279931185D01*
X328516255Y-279931185D02*
X328444826Y-280002614D01*
X328444826Y-280002614D02*
X328373398Y-279931185D01*
X328373398Y-279931185D02*
X328444826Y-279859757D01*
X328444826Y-279859757D02*
X328444826Y-280002614D01*
D10*
D11*
X299989000Y-281502200D02*
X407989000Y-281502200D01*
D10*
D11*
X301444826Y-283588328D02*
X301444826Y-282088328D01*
X302301969Y-283588328D02*
X301659112Y-282731185D01*
X302301969Y-282088328D02*
X301444826Y-282945471D01*
X302944826Y-283588328D02*
X302944826Y-282588328D01*
X302944826Y-282088328D02*
X302873398Y-282159757D01*
X302873398Y-282159757D02*
X302944826Y-282231185D01*
X302944826Y-282231185D02*
X303016255Y-282159757D01*
X303016255Y-282159757D02*
X302944826Y-282088328D01*
X302944826Y-282088328D02*
X302944826Y-282231185D01*
X304516255Y-283445471D02*
X304444827Y-283516900D01*
X304444827Y-283516900D02*
X304230541Y-283588328D01*
X304230541Y-283588328D02*
X304087684Y-283588328D01*
X304087684Y-283588328D02*
X303873398Y-283516900D01*
X303873398Y-283516900D02*
X303730541Y-283374042D01*
X303730541Y-283374042D02*
X303659112Y-283231185D01*
X303659112Y-283231185D02*
X303587684Y-282945471D01*
X303587684Y-282945471D02*
X303587684Y-282731185D01*
X303587684Y-282731185D02*
X303659112Y-282445471D01*
X303659112Y-282445471D02*
X303730541Y-282302614D01*
X303730541Y-282302614D02*
X303873398Y-282159757D01*
X303873398Y-282159757D02*
X304087684Y-282088328D01*
X304087684Y-282088328D02*
X304230541Y-282088328D01*
X304230541Y-282088328D02*
X304444827Y-282159757D01*
X304444827Y-282159757D02*
X304516255Y-282231185D01*
X305801970Y-283588328D02*
X305801970Y-282802614D01*
X305801970Y-282802614D02*
X305730541Y-282659757D01*
X305730541Y-282659757D02*
X305587684Y-282588328D01*
X305587684Y-282588328D02*
X305301970Y-282588328D01*
X305301970Y-282588328D02*
X305159112Y-282659757D01*
X305801970Y-283516900D02*
X305659112Y-283588328D01*
X305659112Y-283588328D02*
X305301970Y-283588328D01*
X305301970Y-283588328D02*
X305159112Y-283516900D01*
X305159112Y-283516900D02*
X305087684Y-283374042D01*
X305087684Y-283374042D02*
X305087684Y-283231185D01*
X305087684Y-283231185D02*
X305159112Y-283088328D01*
X305159112Y-283088328D02*
X305301970Y-283016900D01*
X305301970Y-283016900D02*
X305659112Y-283016900D01*
X305659112Y-283016900D02*
X305801970Y-282945471D01*
X307159113Y-283588328D02*
X307159113Y-282088328D01*
X307159113Y-283516900D02*
X307016255Y-283588328D01*
X307016255Y-283588328D02*
X306730541Y-283588328D01*
X306730541Y-283588328D02*
X306587684Y-283516900D01*
X306587684Y-283516900D02*
X306516255Y-283445471D01*
X306516255Y-283445471D02*
X306444827Y-283302614D01*
X306444827Y-283302614D02*
X306444827Y-282874042D01*
X306444827Y-282874042D02*
X306516255Y-282731185D01*
X306516255Y-282731185D02*
X306587684Y-282659757D01*
X306587684Y-282659757D02*
X306730541Y-282588328D01*
X306730541Y-282588328D02*
X307016255Y-282588328D01*
X307016255Y-282588328D02*
X307159113Y-282659757D01*
X309016255Y-282802614D02*
X309516255Y-282802614D01*
X309730541Y-283588328D02*
X309016255Y-283588328D01*
X309016255Y-283588328D02*
X309016255Y-282088328D01*
X309016255Y-282088328D02*
X309730541Y-282088328D01*
X310373398Y-283445471D02*
X310444827Y-283516900D01*
X310444827Y-283516900D02*
X310373398Y-283588328D01*
X310373398Y-283588328D02*
X310301970Y-283516900D01*
X310301970Y-283516900D02*
X310373398Y-283445471D01*
X310373398Y-283445471D02*
X310373398Y-283588328D01*
X311087684Y-283588328D02*
X311087684Y-282088328D01*
X311087684Y-282088328D02*
X311444827Y-282088328D01*
X311444827Y-282088328D02*
X311659113Y-282159757D01*
X311659113Y-282159757D02*
X311801970Y-282302614D01*
X311801970Y-282302614D02*
X311873399Y-282445471D01*
X311873399Y-282445471D02*
X311944827Y-282731185D01*
X311944827Y-282731185D02*
X311944827Y-282945471D01*
X311944827Y-282945471D02*
X311873399Y-283231185D01*
X311873399Y-283231185D02*
X311801970Y-283374042D01*
X311801970Y-283374042D02*
X311659113Y-283516900D01*
X311659113Y-283516900D02*
X311444827Y-283588328D01*
X311444827Y-283588328D02*
X311087684Y-283588328D01*
X312587684Y-283445471D02*
X312659113Y-283516900D01*
X312659113Y-283516900D02*
X312587684Y-283588328D01*
X312587684Y-283588328D02*
X312516256Y-283516900D01*
X312516256Y-283516900D02*
X312587684Y-283445471D01*
X312587684Y-283445471D02*
X312587684Y-283588328D01*
X313230542Y-283159757D02*
X313944828Y-283159757D01*
X313087685Y-283588328D02*
X313587685Y-282088328D01*
X313587685Y-282088328D02*
X314087685Y-283588328D01*
X314587684Y-283445471D02*
X314659113Y-283516900D01*
X314659113Y-283516900D02*
X314587684Y-283588328D01*
X314587684Y-283588328D02*
X314516256Y-283516900D01*
X314516256Y-283516900D02*
X314587684Y-283445471D01*
X314587684Y-283445471D02*
X314587684Y-283588328D01*
X317587684Y-283588328D02*
X317587684Y-282088328D01*
X317730542Y-283016900D02*
X318159113Y-283588328D01*
X318159113Y-282588328D02*
X317587684Y-283159757D01*
X318801970Y-283588328D02*
X318801970Y-282588328D01*
X318801970Y-282088328D02*
X318730542Y-282159757D01*
X318730542Y-282159757D02*
X318801970Y-282231185D01*
X318801970Y-282231185D02*
X318873399Y-282159757D01*
X318873399Y-282159757D02*
X318801970Y-282088328D01*
X318801970Y-282088328D02*
X318801970Y-282231185D01*
X320159114Y-283516900D02*
X320016256Y-283588328D01*
X320016256Y-283588328D02*
X319730542Y-283588328D01*
X319730542Y-283588328D02*
X319587685Y-283516900D01*
X319587685Y-283516900D02*
X319516256Y-283445471D01*
X319516256Y-283445471D02*
X319444828Y-283302614D01*
X319444828Y-283302614D02*
X319444828Y-282874042D01*
X319444828Y-282874042D02*
X319516256Y-282731185D01*
X319516256Y-282731185D02*
X319587685Y-282659757D01*
X319587685Y-282659757D02*
X319730542Y-282588328D01*
X319730542Y-282588328D02*
X320016256Y-282588328D01*
X320016256Y-282588328D02*
X320159114Y-282659757D01*
X321444828Y-283588328D02*
X321444828Y-282802614D01*
X321444828Y-282802614D02*
X321373399Y-282659757D01*
X321373399Y-282659757D02*
X321230542Y-282588328D01*
X321230542Y-282588328D02*
X320944828Y-282588328D01*
X320944828Y-282588328D02*
X320801970Y-282659757D01*
X321444828Y-283516900D02*
X321301970Y-283588328D01*
X321301970Y-283588328D02*
X320944828Y-283588328D01*
X320944828Y-283588328D02*
X320801970Y-283516900D01*
X320801970Y-283516900D02*
X320730542Y-283374042D01*
X320730542Y-283374042D02*
X320730542Y-283231185D01*
X320730542Y-283231185D02*
X320801970Y-283088328D01*
X320801970Y-283088328D02*
X320944828Y-283016900D01*
X320944828Y-283016900D02*
X321301970Y-283016900D01*
X321301970Y-283016900D02*
X321444828Y-282945471D01*
X322801971Y-283588328D02*
X322801971Y-282088328D01*
X322801971Y-283516900D02*
X322659113Y-283588328D01*
X322659113Y-283588328D02*
X322373399Y-283588328D01*
X322373399Y-283588328D02*
X322230542Y-283516900D01*
X322230542Y-283516900D02*
X322159113Y-283445471D01*
X322159113Y-283445471D02*
X322087685Y-283302614D01*
X322087685Y-283302614D02*
X322087685Y-282874042D01*
X322087685Y-282874042D02*
X322159113Y-282731185D01*
X322159113Y-282731185D02*
X322230542Y-282659757D01*
X322230542Y-282659757D02*
X322373399Y-282588328D01*
X322373399Y-282588328D02*
X322659113Y-282588328D01*
X322659113Y-282588328D02*
X322801971Y-282659757D01*
X324516256Y-282088328D02*
X325516256Y-282088328D01*
X325516256Y-282088328D02*
X324873399Y-283588328D01*
X326087684Y-283445471D02*
X326159113Y-283516900D01*
X326159113Y-283516900D02*
X326087684Y-283588328D01*
X326087684Y-283588328D02*
X326016256Y-283516900D01*
X326016256Y-283516900D02*
X326087684Y-283445471D01*
X326087684Y-283445471D02*
X326087684Y-283588328D01*
X327087685Y-282088328D02*
X327230542Y-282088328D01*
X327230542Y-282088328D02*
X327373399Y-282159757D01*
X327373399Y-282159757D02*
X327444828Y-282231185D01*
X327444828Y-282231185D02*
X327516256Y-282374042D01*
X327516256Y-282374042D02*
X327587685Y-282659757D01*
X327587685Y-282659757D02*
X327587685Y-283016900D01*
X327587685Y-283016900D02*
X327516256Y-283302614D01*
X327516256Y-283302614D02*
X327444828Y-283445471D01*
X327444828Y-283445471D02*
X327373399Y-283516900D01*
X327373399Y-283516900D02*
X327230542Y-283588328D01*
X327230542Y-283588328D02*
X327087685Y-283588328D01*
X327087685Y-283588328D02*
X326944828Y-283516900D01*
X326944828Y-283516900D02*
X326873399Y-283445471D01*
X326873399Y-283445471D02*
X326801970Y-283302614D01*
X326801970Y-283302614D02*
X326730542Y-283016900D01*
X326730542Y-283016900D02*
X326730542Y-282659757D01*
X326730542Y-282659757D02*
X326801970Y-282374042D01*
X326801970Y-282374042D02*
X326873399Y-282231185D01*
X326873399Y-282231185D02*
X326944828Y-282159757D01*
X326944828Y-282159757D02*
X327087685Y-282088328D01*
X328230541Y-283445471D02*
X328301970Y-283516900D01*
X328301970Y-283516900D02*
X328230541Y-283588328D01*
X328230541Y-283588328D02*
X328159113Y-283516900D01*
X328159113Y-283516900D02*
X328230541Y-283445471D01*
X328230541Y-283445471D02*
X328230541Y-283588328D01*
X329730542Y-283588328D02*
X328873399Y-283588328D01*
X329301970Y-283588328D02*
X329301970Y-282088328D01*
X329301970Y-282088328D02*
X329159113Y-282302614D01*
X329159113Y-282302614D02*
X329016256Y-282445471D01*
X329016256Y-282445471D02*
X328873399Y-282516900D01*
X330659113Y-282088328D02*
X330801970Y-282088328D01*
X330801970Y-282088328D02*
X330944827Y-282159757D01*
X330944827Y-282159757D02*
X331016256Y-282231185D01*
X331016256Y-282231185D02*
X331087684Y-282374042D01*
X331087684Y-282374042D02*
X331159113Y-282659757D01*
X331159113Y-282659757D02*
X331159113Y-283016900D01*
X331159113Y-283016900D02*
X331087684Y-283302614D01*
X331087684Y-283302614D02*
X331016256Y-283445471D01*
X331016256Y-283445471D02*
X330944827Y-283516900D01*
X330944827Y-283516900D02*
X330801970Y-283588328D01*
X330801970Y-283588328D02*
X330659113Y-283588328D01*
X330659113Y-283588328D02*
X330516256Y-283516900D01*
X330516256Y-283516900D02*
X330444827Y-283445471D01*
X330444827Y-283445471D02*
X330373398Y-283302614D01*
X330373398Y-283302614D02*
X330301970Y-283016900D01*
X330301970Y-283016900D02*
X330301970Y-282659757D01*
X330301970Y-282659757D02*
X330373398Y-282374042D01*
X330373398Y-282374042D02*
X330444827Y-282231185D01*
X330444827Y-282231185D02*
X330516256Y-282159757D01*
X330516256Y-282159757D02*
X330659113Y-282088328D01*
X331801969Y-283016900D02*
X332944827Y-283016900D01*
X333516255Y-282088328D02*
X334516255Y-282088328D01*
X334516255Y-282088328D02*
X333873398Y-283588328D01*
X335087683Y-283445471D02*
X335159112Y-283516900D01*
X335159112Y-283516900D02*
X335087683Y-283588328D01*
X335087683Y-283588328D02*
X335016255Y-283516900D01*
X335016255Y-283516900D02*
X335087683Y-283445471D01*
X335087683Y-283445471D02*
X335087683Y-283588328D01*
X336087684Y-282088328D02*
X336230541Y-282088328D01*
X336230541Y-282088328D02*
X336373398Y-282159757D01*
X336373398Y-282159757D02*
X336444827Y-282231185D01*
X336444827Y-282231185D02*
X336516255Y-282374042D01*
X336516255Y-282374042D02*
X336587684Y-282659757D01*
X336587684Y-282659757D02*
X336587684Y-283016900D01*
X336587684Y-283016900D02*
X336516255Y-283302614D01*
X336516255Y-283302614D02*
X336444827Y-283445471D01*
X336444827Y-283445471D02*
X336373398Y-283516900D01*
X336373398Y-283516900D02*
X336230541Y-283588328D01*
X336230541Y-283588328D02*
X336087684Y-283588328D01*
X336087684Y-283588328D02*
X335944827Y-283516900D01*
X335944827Y-283516900D02*
X335873398Y-283445471D01*
X335873398Y-283445471D02*
X335801969Y-283302614D01*
X335801969Y-283302614D02*
X335730541Y-283016900D01*
X335730541Y-283016900D02*
X335730541Y-282659757D01*
X335730541Y-282659757D02*
X335801969Y-282374042D01*
X335801969Y-282374042D02*
X335873398Y-282231185D01*
X335873398Y-282231185D02*
X335944827Y-282159757D01*
X335944827Y-282159757D02*
X336087684Y-282088328D01*
X337230540Y-283445471D02*
X337301969Y-283516900D01*
X337301969Y-283516900D02*
X337230540Y-283588328D01*
X337230540Y-283588328D02*
X337159112Y-283516900D01*
X337159112Y-283516900D02*
X337230540Y-283445471D01*
X337230540Y-283445471D02*
X337230540Y-283588328D01*
X338730541Y-283588328D02*
X337873398Y-283588328D01*
X338301969Y-283588328D02*
X338301969Y-282088328D01*
X338301969Y-282088328D02*
X338159112Y-282302614D01*
X338159112Y-282302614D02*
X338016255Y-282445471D01*
X338016255Y-282445471D02*
X337873398Y-282516900D01*
X339659112Y-282088328D02*
X339801969Y-282088328D01*
X339801969Y-282088328D02*
X339944826Y-282159757D01*
X339944826Y-282159757D02*
X340016255Y-282231185D01*
X340016255Y-282231185D02*
X340087683Y-282374042D01*
X340087683Y-282374042D02*
X340159112Y-282659757D01*
X340159112Y-282659757D02*
X340159112Y-283016900D01*
X340159112Y-283016900D02*
X340087683Y-283302614D01*
X340087683Y-283302614D02*
X340016255Y-283445471D01*
X340016255Y-283445471D02*
X339944826Y-283516900D01*
X339944826Y-283516900D02*
X339801969Y-283588328D01*
X339801969Y-283588328D02*
X339659112Y-283588328D01*
X339659112Y-283588328D02*
X339516255Y-283516900D01*
X339516255Y-283516900D02*
X339444826Y-283445471D01*
X339444826Y-283445471D02*
X339373397Y-283302614D01*
X339373397Y-283302614D02*
X339301969Y-283016900D01*
X339301969Y-283016900D02*
X339301969Y-282659757D01*
X339301969Y-282659757D02*
X339373397Y-282374042D01*
X339373397Y-282374042D02*
X339444826Y-282231185D01*
X339444826Y-282231185D02*
X339516255Y-282159757D01*
X339516255Y-282159757D02*
X339659112Y-282088328D01*
X340587683Y-283016900D02*
X340659111Y-282945471D01*
X340659111Y-282945471D02*
X340801968Y-282874042D01*
X340801968Y-282874042D02*
X341087683Y-283016900D01*
X341087683Y-283016900D02*
X341230540Y-282945471D01*
X341230540Y-282945471D02*
X341301968Y-282874042D01*
X342516255Y-282588328D02*
X342516255Y-283588328D01*
X341873397Y-282588328D02*
X341873397Y-283374042D01*
X341873397Y-283374042D02*
X341944826Y-283516900D01*
X341944826Y-283516900D02*
X342087683Y-283588328D01*
X342087683Y-283588328D02*
X342301969Y-283588328D01*
X342301969Y-283588328D02*
X342444826Y-283516900D01*
X342444826Y-283516900D02*
X342516255Y-283445471D01*
X343230540Y-283588328D02*
X343230540Y-282088328D01*
X343230540Y-282659757D02*
X343373398Y-282588328D01*
X343373398Y-282588328D02*
X343659112Y-282588328D01*
X343659112Y-282588328D02*
X343801969Y-282659757D01*
X343801969Y-282659757D02*
X343873398Y-282731185D01*
X343873398Y-282731185D02*
X343944826Y-282874042D01*
X343944826Y-282874042D02*
X343944826Y-283302614D01*
X343944826Y-283302614D02*
X343873398Y-283445471D01*
X343873398Y-283445471D02*
X343801969Y-283516900D01*
X343801969Y-283516900D02*
X343659112Y-283588328D01*
X343659112Y-283588328D02*
X343373398Y-283588328D01*
X343373398Y-283588328D02*
X343230540Y-283516900D01*
X345230541Y-282588328D02*
X345230541Y-283588328D01*
X344587683Y-282588328D02*
X344587683Y-283374042D01*
X344587683Y-283374042D02*
X344659112Y-283516900D01*
X344659112Y-283516900D02*
X344801969Y-283588328D01*
X344801969Y-283588328D02*
X345016255Y-283588328D01*
X345016255Y-283588328D02*
X345159112Y-283516900D01*
X345159112Y-283516900D02*
X345230541Y-283445471D01*
X345944826Y-282588328D02*
X345944826Y-283588328D01*
X345944826Y-282731185D02*
X346016255Y-282659757D01*
X346016255Y-282659757D02*
X346159112Y-282588328D01*
X346159112Y-282588328D02*
X346373398Y-282588328D01*
X346373398Y-282588328D02*
X346516255Y-282659757D01*
X346516255Y-282659757D02*
X346587684Y-282802614D01*
X346587684Y-282802614D02*
X346587684Y-283588328D01*
X347087684Y-282588328D02*
X347659112Y-282588328D01*
X347301969Y-282088328D02*
X347301969Y-283374042D01*
X347301969Y-283374042D02*
X347373398Y-283516900D01*
X347373398Y-283516900D02*
X347516255Y-283588328D01*
X347516255Y-283588328D02*
X347659112Y-283588328D01*
X348801970Y-282588328D02*
X348801970Y-283588328D01*
X348159112Y-282588328D02*
X348159112Y-283374042D01*
X348159112Y-283374042D02*
X348230541Y-283516900D01*
X348230541Y-283516900D02*
X348373398Y-283588328D01*
X348373398Y-283588328D02*
X348587684Y-283588328D01*
X348587684Y-283588328D02*
X348730541Y-283516900D01*
X348730541Y-283516900D02*
X348801970Y-283445471D01*
X349444827Y-282231185D02*
X349516255Y-282159757D01*
X349516255Y-282159757D02*
X349659113Y-282088328D01*
X349659113Y-282088328D02*
X350016255Y-282088328D01*
X350016255Y-282088328D02*
X350159113Y-282159757D01*
X350159113Y-282159757D02*
X350230541Y-282231185D01*
X350230541Y-282231185D02*
X350301970Y-282374042D01*
X350301970Y-282374042D02*
X350301970Y-282516900D01*
X350301970Y-282516900D02*
X350230541Y-282731185D01*
X350230541Y-282731185D02*
X349373398Y-283588328D01*
X349373398Y-283588328D02*
X350301970Y-283588328D01*
X350873398Y-282231185D02*
X350944826Y-282159757D01*
X350944826Y-282159757D02*
X351087684Y-282088328D01*
X351087684Y-282088328D02*
X351444826Y-282088328D01*
X351444826Y-282088328D02*
X351587684Y-282159757D01*
X351587684Y-282159757D02*
X351659112Y-282231185D01*
X351659112Y-282231185D02*
X351730541Y-282374042D01*
X351730541Y-282374042D02*
X351730541Y-282516900D01*
X351730541Y-282516900D02*
X351659112Y-282731185D01*
X351659112Y-282731185D02*
X350801969Y-283588328D01*
X350801969Y-283588328D02*
X351730541Y-283588328D01*
X352373397Y-283445471D02*
X352444826Y-283516900D01*
X352444826Y-283516900D02*
X352373397Y-283588328D01*
X352373397Y-283588328D02*
X352301969Y-283516900D01*
X352301969Y-283516900D02*
X352373397Y-283445471D01*
X352373397Y-283445471D02*
X352373397Y-283588328D01*
X353373398Y-282088328D02*
X353516255Y-282088328D01*
X353516255Y-282088328D02*
X353659112Y-282159757D01*
X353659112Y-282159757D02*
X353730541Y-282231185D01*
X353730541Y-282231185D02*
X353801969Y-282374042D01*
X353801969Y-282374042D02*
X353873398Y-282659757D01*
X353873398Y-282659757D02*
X353873398Y-283016900D01*
X353873398Y-283016900D02*
X353801969Y-283302614D01*
X353801969Y-283302614D02*
X353730541Y-283445471D01*
X353730541Y-283445471D02*
X353659112Y-283516900D01*
X353659112Y-283516900D02*
X353516255Y-283588328D01*
X353516255Y-283588328D02*
X353373398Y-283588328D01*
X353373398Y-283588328D02*
X353230541Y-283516900D01*
X353230541Y-283516900D02*
X353159112Y-283445471D01*
X353159112Y-283445471D02*
X353087683Y-283302614D01*
X353087683Y-283302614D02*
X353016255Y-283016900D01*
X353016255Y-283016900D02*
X353016255Y-282659757D01*
X353016255Y-282659757D02*
X353087683Y-282374042D01*
X353087683Y-282374042D02*
X353159112Y-282231185D01*
X353159112Y-282231185D02*
X353230541Y-282159757D01*
X353230541Y-282159757D02*
X353373398Y-282088328D01*
X355159112Y-282588328D02*
X355159112Y-283588328D01*
X354801969Y-282016900D02*
X354444826Y-283088328D01*
X354444826Y-283088328D02*
X355373397Y-283088328D01*
X355944825Y-283445471D02*
X356016254Y-283516900D01*
X356016254Y-283516900D02*
X355944825Y-283588328D01*
X355944825Y-283588328D02*
X355873397Y-283516900D01*
X355873397Y-283516900D02*
X355944825Y-283445471D01*
X355944825Y-283445471D02*
X355944825Y-283588328D01*
X357444826Y-283588328D02*
X356587683Y-283588328D01*
X357016254Y-283588328D02*
X357016254Y-282088328D01*
X357016254Y-282088328D02*
X356873397Y-282302614D01*
X356873397Y-282302614D02*
X356730540Y-282445471D01*
X356730540Y-282445471D02*
X356587683Y-282516900D01*
D10*
D11*
X299989000Y-278502200D02*
X407989000Y-278502200D01*
D10*
D12*
X387400653Y-280780528D02*
X386900653Y-280066242D01*
X386543510Y-280780528D02*
X386543510Y-279280528D01*
X386543510Y-279280528D02*
X387114939Y-279280528D01*
X387114939Y-279280528D02*
X387257796Y-279351957D01*
X387257796Y-279351957D02*
X387329225Y-279423385D01*
X387329225Y-279423385D02*
X387400653Y-279566242D01*
X387400653Y-279566242D02*
X387400653Y-279780528D01*
X387400653Y-279780528D02*
X387329225Y-279923385D01*
X387329225Y-279923385D02*
X387257796Y-279994814D01*
X387257796Y-279994814D02*
X387114939Y-280066242D01*
X387114939Y-280066242D02*
X386543510Y-280066242D01*
X388614939Y-280709100D02*
X388472082Y-280780528D01*
X388472082Y-280780528D02*
X388186368Y-280780528D01*
X388186368Y-280780528D02*
X388043510Y-280709100D01*
X388043510Y-280709100D02*
X387972082Y-280566242D01*
X387972082Y-280566242D02*
X387972082Y-279994814D01*
X387972082Y-279994814D02*
X388043510Y-279851957D01*
X388043510Y-279851957D02*
X388186368Y-279780528D01*
X388186368Y-279780528D02*
X388472082Y-279780528D01*
X388472082Y-279780528D02*
X388614939Y-279851957D01*
X388614939Y-279851957D02*
X388686368Y-279994814D01*
X388686368Y-279994814D02*
X388686368Y-280137671D01*
X388686368Y-280137671D02*
X387972082Y-280280528D01*
X389186367Y-279780528D02*
X389543510Y-280780528D01*
X389543510Y-280780528D02*
X389900653Y-279780528D01*
X390472081Y-280637671D02*
X390543510Y-280709100D01*
X390543510Y-280709100D02*
X390472081Y-280780528D01*
X390472081Y-280780528D02*
X390400653Y-280709100D01*
X390400653Y-280709100D02*
X390472081Y-280637671D01*
X390472081Y-280637671D02*
X390472081Y-280780528D01*
X390472081Y-279851957D02*
X390543510Y-279923385D01*
X390543510Y-279923385D02*
X390472081Y-279994814D01*
X390472081Y-279994814D02*
X390400653Y-279923385D01*
X390400653Y-279923385D02*
X390472081Y-279851957D01*
X390472081Y-279851957D02*
X390472081Y-279994814D01*
D10*
D11*
X301373398Y-280716900D02*
X301587684Y-280788328D01*
X301587684Y-280788328D02*
X301944826Y-280788328D01*
X301944826Y-280788328D02*
X302087684Y-280716900D01*
X302087684Y-280716900D02*
X302159112Y-280645471D01*
X302159112Y-280645471D02*
X302230541Y-280502614D01*
X302230541Y-280502614D02*
X302230541Y-280359757D01*
X302230541Y-280359757D02*
X302159112Y-280216900D01*
X302159112Y-280216900D02*
X302087684Y-280145471D01*
X302087684Y-280145471D02*
X301944826Y-280074042D01*
X301944826Y-280074042D02*
X301659112Y-280002614D01*
X301659112Y-280002614D02*
X301516255Y-279931185D01*
X301516255Y-279931185D02*
X301444826Y-279859757D01*
X301444826Y-279859757D02*
X301373398Y-279716900D01*
X301373398Y-279716900D02*
X301373398Y-279574042D01*
X301373398Y-279574042D02*
X301444826Y-279431185D01*
X301444826Y-279431185D02*
X301516255Y-279359757D01*
X301516255Y-279359757D02*
X301659112Y-279288328D01*
X301659112Y-279288328D02*
X302016255Y-279288328D01*
X302016255Y-279288328D02*
X302230541Y-279359757D01*
X302873397Y-280788328D02*
X302873397Y-279788328D01*
X302873397Y-279288328D02*
X302801969Y-279359757D01*
X302801969Y-279359757D02*
X302873397Y-279431185D01*
X302873397Y-279431185D02*
X302944826Y-279359757D01*
X302944826Y-279359757D02*
X302873397Y-279288328D01*
X302873397Y-279288328D02*
X302873397Y-279431185D01*
X303444826Y-279788328D02*
X304230541Y-279788328D01*
X304230541Y-279788328D02*
X303444826Y-280788328D01*
X303444826Y-280788328D02*
X304230541Y-280788328D01*
X305373398Y-280716900D02*
X305230541Y-280788328D01*
X305230541Y-280788328D02*
X304944827Y-280788328D01*
X304944827Y-280788328D02*
X304801969Y-280716900D01*
X304801969Y-280716900D02*
X304730541Y-280574042D01*
X304730541Y-280574042D02*
X304730541Y-280002614D01*
X304730541Y-280002614D02*
X304801969Y-279859757D01*
X304801969Y-279859757D02*
X304944827Y-279788328D01*
X304944827Y-279788328D02*
X305230541Y-279788328D01*
X305230541Y-279788328D02*
X305373398Y-279859757D01*
X305373398Y-279859757D02*
X305444827Y-280002614D01*
X305444827Y-280002614D02*
X305444827Y-280145471D01*
X305444827Y-280145471D02*
X304730541Y-280288328D01*
X306087683Y-280645471D02*
X306159112Y-280716900D01*
X306159112Y-280716900D02*
X306087683Y-280788328D01*
X306087683Y-280788328D02*
X306016255Y-280716900D01*
X306016255Y-280716900D02*
X306087683Y-280645471D01*
X306087683Y-280645471D02*
X306087683Y-280788328D01*
X306087683Y-279859757D02*
X306159112Y-279931185D01*
X306159112Y-279931185D02*
X306087683Y-280002614D01*
X306087683Y-280002614D02*
X306016255Y-279931185D01*
X306016255Y-279931185D02*
X306087683Y-279859757D01*
X306087683Y-279859757D02*
X306087683Y-280002614D01*
X307873398Y-280359757D02*
X308587684Y-280359757D01*
X307730541Y-280788328D02*
X308230541Y-279288328D01*
X308230541Y-279288328D02*
X308730541Y-280788328D01*
X309087683Y-279288328D02*
X310016255Y-279288328D01*
X310016255Y-279288328D02*
X309516255Y-279859757D01*
X309516255Y-279859757D02*
X309730540Y-279859757D01*
X309730540Y-279859757D02*
X309873398Y-279931185D01*
X309873398Y-279931185D02*
X309944826Y-280002614D01*
X309944826Y-280002614D02*
X310016255Y-280145471D01*
X310016255Y-280145471D02*
X310016255Y-280502614D01*
X310016255Y-280502614D02*
X309944826Y-280645471D01*
X309944826Y-280645471D02*
X309873398Y-280716900D01*
X309873398Y-280716900D02*
X309730540Y-280788328D01*
X309730540Y-280788328D02*
X309301969Y-280788328D01*
X309301969Y-280788328D02*
X309159112Y-280716900D01*
X309159112Y-280716900D02*
X309087683Y-280645471D01*
D10*
D11*
X386444826Y-283588328D02*
X386444826Y-282088328D01*
X387801970Y-283588328D02*
X387801970Y-282088328D01*
X387801970Y-283516900D02*
X387659112Y-283588328D01*
X387659112Y-283588328D02*
X387373398Y-283588328D01*
X387373398Y-283588328D02*
X387230541Y-283516900D01*
X387230541Y-283516900D02*
X387159112Y-283445471D01*
X387159112Y-283445471D02*
X387087684Y-283302614D01*
X387087684Y-283302614D02*
X387087684Y-282874042D01*
X387087684Y-282874042D02*
X387159112Y-282731185D01*
X387159112Y-282731185D02*
X387230541Y-282659757D01*
X387230541Y-282659757D02*
X387373398Y-282588328D01*
X387373398Y-282588328D02*
X387659112Y-282588328D01*
X387659112Y-282588328D02*
X387801970Y-282659757D01*
X388516255Y-283445471D02*
X388587684Y-283516900D01*
X388587684Y-283516900D02*
X388516255Y-283588328D01*
X388516255Y-283588328D02*
X388444827Y-283516900D01*
X388444827Y-283516900D02*
X388516255Y-283445471D01*
X388516255Y-283445471D02*
X388516255Y-283588328D01*
X388516255Y-282659757D02*
X388587684Y-282731185D01*
X388587684Y-282731185D02*
X388516255Y-282802614D01*
X388516255Y-282802614D02*
X388444827Y-282731185D01*
X388444827Y-282731185D02*
X388516255Y-282659757D01*
X388516255Y-282659757D02*
X388516255Y-282802614D01*
X391159113Y-283588328D02*
X390301970Y-283588328D01*
X390730541Y-283588328D02*
X390730541Y-282088328D01*
X390730541Y-282088328D02*
X390587684Y-282302614D01*
X390587684Y-282302614D02*
X390444827Y-282445471D01*
X390444827Y-282445471D02*
X390301970Y-282516900D01*
X392873398Y-282016900D02*
X391587684Y-283945471D01*
X394159113Y-283588328D02*
X393301970Y-283588328D01*
X393730541Y-283588328D02*
X393730541Y-282088328D01*
X393730541Y-282088328D02*
X393587684Y-282302614D01*
X393587684Y-282302614D02*
X393444827Y-282445471D01*
X393444827Y-282445471D02*
X393301970Y-282516900D01*
D10*
D11*
X299989000Y-274502200D02*
X407989000Y-274502200D01*
D10*
D13*
X301680728Y-275206638D02*
X302823585Y-275206638D01*
X302002157Y-277206638D02*
X302252157Y-275206638D01*
X303240252Y-277206638D02*
X303406919Y-275873304D01*
X303490252Y-275206638D02*
X303383109Y-275301876D01*
X303383109Y-275301876D02*
X303466443Y-275397114D01*
X303466443Y-275397114D02*
X303573586Y-275301876D01*
X303573586Y-275301876D02*
X303490252Y-275206638D01*
X303490252Y-275206638D02*
X303466443Y-275397114D01*
X304073586Y-275873304D02*
X304835490Y-275873304D01*
X304442633Y-275206638D02*
X304228348Y-276920923D01*
X304228348Y-276920923D02*
X304299776Y-277111400D01*
X304299776Y-277111400D02*
X304478348Y-277206638D01*
X304478348Y-277206638D02*
X304668824Y-277206638D01*
X305621205Y-277206638D02*
X305442633Y-277111400D01*
X305442633Y-277111400D02*
X305371205Y-276920923D01*
X305371205Y-276920923D02*
X305585490Y-275206638D01*
X307156919Y-277111400D02*
X306954538Y-277206638D01*
X306954538Y-277206638D02*
X306573585Y-277206638D01*
X306573585Y-277206638D02*
X306395014Y-277111400D01*
X306395014Y-277111400D02*
X306323585Y-276920923D01*
X306323585Y-276920923D02*
X306418824Y-276159019D01*
X306418824Y-276159019D02*
X306537871Y-275968542D01*
X306537871Y-275968542D02*
X306740252Y-275873304D01*
X306740252Y-275873304D02*
X307121204Y-275873304D01*
X307121204Y-275873304D02*
X307299776Y-275968542D01*
X307299776Y-275968542D02*
X307371204Y-276159019D01*
X307371204Y-276159019D02*
X307347395Y-276349495D01*
X307347395Y-276349495D02*
X306371204Y-276539971D01*
X308121205Y-277016161D02*
X308204538Y-277111400D01*
X308204538Y-277111400D02*
X308097395Y-277206638D01*
X308097395Y-277206638D02*
X308014062Y-277111400D01*
X308014062Y-277111400D02*
X308121205Y-277016161D01*
X308121205Y-277016161D02*
X308097395Y-277206638D01*
X308252157Y-275968542D02*
X308335490Y-276063780D01*
X308335490Y-276063780D02*
X308228348Y-276159019D01*
X308228348Y-276159019D02*
X308145014Y-276063780D01*
X308145014Y-276063780D02*
X308252157Y-275968542D01*
X308252157Y-275968542D02*
X308228348Y-276159019D01*
D10*
D11*
X301944826Y-272602614D02*
X301444826Y-272602614D01*
X301444826Y-273388328D02*
X301444826Y-271888328D01*
X301444826Y-271888328D02*
X302159112Y-271888328D01*
X302730540Y-273388328D02*
X302730540Y-272388328D01*
X302730540Y-271888328D02*
X302659112Y-271959757D01*
X302659112Y-271959757D02*
X302730540Y-272031185D01*
X302730540Y-272031185D02*
X302801969Y-271959757D01*
X302801969Y-271959757D02*
X302730540Y-271888328D01*
X302730540Y-271888328D02*
X302730540Y-272031185D01*
X303659112Y-273388328D02*
X303516255Y-273316900D01*
X303516255Y-273316900D02*
X303444826Y-273174042D01*
X303444826Y-273174042D02*
X303444826Y-271888328D01*
X304801969Y-273316900D02*
X304659112Y-273388328D01*
X304659112Y-273388328D02*
X304373398Y-273388328D01*
X304373398Y-273388328D02*
X304230540Y-273316900D01*
X304230540Y-273316900D02*
X304159112Y-273174042D01*
X304159112Y-273174042D02*
X304159112Y-272602614D01*
X304159112Y-272602614D02*
X304230540Y-272459757D01*
X304230540Y-272459757D02*
X304373398Y-272388328D01*
X304373398Y-272388328D02*
X304659112Y-272388328D01*
X304659112Y-272388328D02*
X304801969Y-272459757D01*
X304801969Y-272459757D02*
X304873398Y-272602614D01*
X304873398Y-272602614D02*
X304873398Y-272745471D01*
X304873398Y-272745471D02*
X304159112Y-272888328D01*
X305516254Y-273245471D02*
X305587683Y-273316900D01*
X305587683Y-273316900D02*
X305516254Y-273388328D01*
X305516254Y-273388328D02*
X305444826Y-273316900D01*
X305444826Y-273316900D02*
X305516254Y-273245471D01*
X305516254Y-273245471D02*
X305516254Y-273388328D01*
X305516254Y-272459757D02*
X305587683Y-272531185D01*
X305587683Y-272531185D02*
X305516254Y-272602614D01*
X305516254Y-272602614D02*
X305444826Y-272531185D01*
X305444826Y-272531185D02*
X305516254Y-272459757D01*
X305516254Y-272459757D02*
X305516254Y-272602614D01*
X307373397Y-273388328D02*
X307373397Y-271888328D01*
X307373397Y-271888328D02*
X308230540Y-273388328D01*
X308230540Y-273388328D02*
X308230540Y-271888328D01*
X309159112Y-273388328D02*
X309016255Y-273316900D01*
X309016255Y-273316900D02*
X308944826Y-273245471D01*
X308944826Y-273245471D02*
X308873398Y-273102614D01*
X308873398Y-273102614D02*
X308873398Y-272674042D01*
X308873398Y-272674042D02*
X308944826Y-272531185D01*
X308944826Y-272531185D02*
X309016255Y-272459757D01*
X309016255Y-272459757D02*
X309159112Y-272388328D01*
X309159112Y-272388328D02*
X309373398Y-272388328D01*
X309373398Y-272388328D02*
X309516255Y-272459757D01*
X309516255Y-272459757D02*
X309587684Y-272531185D01*
X309587684Y-272531185D02*
X309659112Y-272674042D01*
X309659112Y-272674042D02*
X309659112Y-273102614D01*
X309659112Y-273102614D02*
X309587684Y-273245471D01*
X309587684Y-273245471D02*
X309516255Y-273316900D01*
X309516255Y-273316900D02*
X309373398Y-273388328D01*
X309373398Y-273388328D02*
X309159112Y-273388328D01*
X310301969Y-273388328D02*
X310301969Y-272388328D01*
X310301969Y-272531185D02*
X310373398Y-272459757D01*
X310373398Y-272459757D02*
X310516255Y-272388328D01*
X310516255Y-272388328D02*
X310730541Y-272388328D01*
X310730541Y-272388328D02*
X310873398Y-272459757D01*
X310873398Y-272459757D02*
X310944827Y-272602614D01*
X310944827Y-272602614D02*
X310944827Y-273388328D01*
X310944827Y-272602614D02*
X311016255Y-272459757D01*
X311016255Y-272459757D02*
X311159112Y-272388328D01*
X311159112Y-272388328D02*
X311373398Y-272388328D01*
X311373398Y-272388328D02*
X311516255Y-272459757D01*
X311516255Y-272459757D02*
X311587684Y-272602614D01*
X311587684Y-272602614D02*
X311587684Y-273388328D01*
X312516255Y-273388328D02*
X312373398Y-273316900D01*
X312373398Y-273316900D02*
X312301969Y-273245471D01*
X312301969Y-273245471D02*
X312230541Y-273102614D01*
X312230541Y-273102614D02*
X312230541Y-272674042D01*
X312230541Y-272674042D02*
X312301969Y-272531185D01*
X312301969Y-272531185D02*
X312373398Y-272459757D01*
X312373398Y-272459757D02*
X312516255Y-272388328D01*
X312516255Y-272388328D02*
X312730541Y-272388328D01*
X312730541Y-272388328D02*
X312873398Y-272459757D01*
X312873398Y-272459757D02*
X312944827Y-272531185D01*
X312944827Y-272531185D02*
X313016255Y-272674042D01*
X313016255Y-272674042D02*
X313016255Y-273102614D01*
X313016255Y-273102614D02*
X312944827Y-273245471D01*
X312944827Y-273245471D02*
X312873398Y-273316900D01*
X312873398Y-273316900D02*
X312730541Y-273388328D01*
X312730541Y-273388328D02*
X312516255Y-273388328D01*
X313659112Y-273388328D02*
X313659112Y-271888328D01*
X313659112Y-272459757D02*
X313801970Y-272388328D01*
X313801970Y-272388328D02*
X314087684Y-272388328D01*
X314087684Y-272388328D02*
X314230541Y-272459757D01*
X314230541Y-272459757D02*
X314301970Y-272531185D01*
X314301970Y-272531185D02*
X314373398Y-272674042D01*
X314373398Y-272674042D02*
X314373398Y-273102614D01*
X314373398Y-273102614D02*
X314301970Y-273245471D01*
X314301970Y-273245471D02*
X314230541Y-273316900D01*
X314230541Y-273316900D02*
X314087684Y-273388328D01*
X314087684Y-273388328D02*
X313801970Y-273388328D01*
X313801970Y-273388328D02*
X313659112Y-273316900D01*
X315230541Y-273388328D02*
X315087684Y-273316900D01*
X315087684Y-273316900D02*
X315016255Y-273245471D01*
X315016255Y-273245471D02*
X314944827Y-273102614D01*
X314944827Y-273102614D02*
X314944827Y-272674042D01*
X314944827Y-272674042D02*
X315016255Y-272531185D01*
X315016255Y-272531185D02*
X315087684Y-272459757D01*
X315087684Y-272459757D02*
X315230541Y-272388328D01*
X315230541Y-272388328D02*
X315444827Y-272388328D01*
X315444827Y-272388328D02*
X315587684Y-272459757D01*
X315587684Y-272459757D02*
X315659113Y-272531185D01*
X315659113Y-272531185D02*
X315730541Y-272674042D01*
X315730541Y-272674042D02*
X315730541Y-273102614D01*
X315730541Y-273102614D02*
X315659113Y-273245471D01*
X315659113Y-273245471D02*
X315587684Y-273316900D01*
X315587684Y-273316900D02*
X315444827Y-273388328D01*
X315444827Y-273388328D02*
X315230541Y-273388328D01*
X316159113Y-272388328D02*
X316730541Y-272388328D01*
X316373398Y-271888328D02*
X316373398Y-273174042D01*
X316373398Y-273174042D02*
X316444827Y-273316900D01*
X316444827Y-273316900D02*
X316587684Y-273388328D01*
X316587684Y-273388328D02*
X316730541Y-273388328D01*
X317159113Y-273316900D02*
X317373399Y-273388328D01*
X317373399Y-273388328D02*
X317730541Y-273388328D01*
X317730541Y-273388328D02*
X317873399Y-273316900D01*
X317873399Y-273316900D02*
X317944827Y-273245471D01*
X317944827Y-273245471D02*
X318016256Y-273102614D01*
X318016256Y-273102614D02*
X318016256Y-272959757D01*
X318016256Y-272959757D02*
X317944827Y-272816900D01*
X317944827Y-272816900D02*
X317873399Y-272745471D01*
X317873399Y-272745471D02*
X317730541Y-272674042D01*
X317730541Y-272674042D02*
X317444827Y-272602614D01*
X317444827Y-272602614D02*
X317301970Y-272531185D01*
X317301970Y-272531185D02*
X317230541Y-272459757D01*
X317230541Y-272459757D02*
X317159113Y-272316900D01*
X317159113Y-272316900D02*
X317159113Y-272174042D01*
X317159113Y-272174042D02*
X317230541Y-272031185D01*
X317230541Y-272031185D02*
X317301970Y-271959757D01*
X317301970Y-271959757D02*
X317444827Y-271888328D01*
X317444827Y-271888328D02*
X317801970Y-271888328D01*
X317801970Y-271888328D02*
X318016256Y-271959757D01*
X318659112Y-273388328D02*
X318659112Y-271888328D01*
X319516255Y-273388328D02*
X318873398Y-272531185D01*
X319516255Y-271888328D02*
X318659112Y-272745471D01*
X320159112Y-273245471D02*
X320230541Y-273316900D01*
X320230541Y-273316900D02*
X320159112Y-273388328D01*
X320159112Y-273388328D02*
X320087684Y-273316900D01*
X320087684Y-273316900D02*
X320159112Y-273245471D01*
X320159112Y-273245471D02*
X320159112Y-273388328D01*
X320873398Y-273388328D02*
X320873398Y-271888328D01*
X321016256Y-272816900D02*
X321444827Y-273388328D01*
X321444827Y-272388328D02*
X320873398Y-272959757D01*
X322087684Y-273388328D02*
X322087684Y-272388328D01*
X322087684Y-271888328D02*
X322016256Y-271959757D01*
X322016256Y-271959757D02*
X322087684Y-272031185D01*
X322087684Y-272031185D02*
X322159113Y-271959757D01*
X322159113Y-271959757D02*
X322087684Y-271888328D01*
X322087684Y-271888328D02*
X322087684Y-272031185D01*
X323444828Y-273316900D02*
X323301970Y-273388328D01*
X323301970Y-273388328D02*
X323016256Y-273388328D01*
X323016256Y-273388328D02*
X322873399Y-273316900D01*
X322873399Y-273316900D02*
X322801970Y-273245471D01*
X322801970Y-273245471D02*
X322730542Y-273102614D01*
X322730542Y-273102614D02*
X322730542Y-272674042D01*
X322730542Y-272674042D02*
X322801970Y-272531185D01*
X322801970Y-272531185D02*
X322873399Y-272459757D01*
X322873399Y-272459757D02*
X323016256Y-272388328D01*
X323016256Y-272388328D02*
X323301970Y-272388328D01*
X323301970Y-272388328D02*
X323444828Y-272459757D01*
X324730542Y-273388328D02*
X324730542Y-272602614D01*
X324730542Y-272602614D02*
X324659113Y-272459757D01*
X324659113Y-272459757D02*
X324516256Y-272388328D01*
X324516256Y-272388328D02*
X324230542Y-272388328D01*
X324230542Y-272388328D02*
X324087684Y-272459757D01*
X324730542Y-273316900D02*
X324587684Y-273388328D01*
X324587684Y-273388328D02*
X324230542Y-273388328D01*
X324230542Y-273388328D02*
X324087684Y-273316900D01*
X324087684Y-273316900D02*
X324016256Y-273174042D01*
X324016256Y-273174042D02*
X324016256Y-273031185D01*
X324016256Y-273031185D02*
X324087684Y-272888328D01*
X324087684Y-272888328D02*
X324230542Y-272816900D01*
X324230542Y-272816900D02*
X324587684Y-272816900D01*
X324587684Y-272816900D02*
X324730542Y-272745471D01*
X326087685Y-273388328D02*
X326087685Y-271888328D01*
X326087685Y-273316900D02*
X325944827Y-273388328D01*
X325944827Y-273388328D02*
X325659113Y-273388328D01*
X325659113Y-273388328D02*
X325516256Y-273316900D01*
X325516256Y-273316900D02*
X325444827Y-273245471D01*
X325444827Y-273245471D02*
X325373399Y-273102614D01*
X325373399Y-273102614D02*
X325373399Y-272674042D01*
X325373399Y-272674042D02*
X325444827Y-272531185D01*
X325444827Y-272531185D02*
X325516256Y-272459757D01*
X325516256Y-272459757D02*
X325659113Y-272388328D01*
X325659113Y-272388328D02*
X325944827Y-272388328D01*
X325944827Y-272388328D02*
X326087685Y-272459757D01*
X326444828Y-273531185D02*
X327587685Y-273531185D01*
X327944827Y-272388328D02*
X327944827Y-273888328D01*
X327944827Y-272459757D02*
X328087685Y-272388328D01*
X328087685Y-272388328D02*
X328373399Y-272388328D01*
X328373399Y-272388328D02*
X328516256Y-272459757D01*
X328516256Y-272459757D02*
X328587685Y-272531185D01*
X328587685Y-272531185D02*
X328659113Y-272674042D01*
X328659113Y-272674042D02*
X328659113Y-273102614D01*
X328659113Y-273102614D02*
X328587685Y-273245471D01*
X328587685Y-273245471D02*
X328516256Y-273316900D01*
X328516256Y-273316900D02*
X328373399Y-273388328D01*
X328373399Y-273388328D02*
X328087685Y-273388328D01*
X328087685Y-273388328D02*
X327944827Y-273316900D01*
X329944828Y-273316900D02*
X329801970Y-273388328D01*
X329801970Y-273388328D02*
X329516256Y-273388328D01*
X329516256Y-273388328D02*
X329373399Y-273316900D01*
X329373399Y-273316900D02*
X329301970Y-273245471D01*
X329301970Y-273245471D02*
X329230542Y-273102614D01*
X329230542Y-273102614D02*
X329230542Y-272674042D01*
X329230542Y-272674042D02*
X329301970Y-272531185D01*
X329301970Y-272531185D02*
X329373399Y-272459757D01*
X329373399Y-272459757D02*
X329516256Y-272388328D01*
X329516256Y-272388328D02*
X329801970Y-272388328D01*
X329801970Y-272388328D02*
X329944828Y-272459757D01*
X330587684Y-273388328D02*
X330587684Y-271888328D01*
X330587684Y-272459757D02*
X330730542Y-272388328D01*
X330730542Y-272388328D02*
X331016256Y-272388328D01*
X331016256Y-272388328D02*
X331159113Y-272459757D01*
X331159113Y-272459757D02*
X331230542Y-272531185D01*
X331230542Y-272531185D02*
X331301970Y-272674042D01*
X331301970Y-272674042D02*
X331301970Y-273102614D01*
X331301970Y-273102614D02*
X331230542Y-273245471D01*
X331230542Y-273245471D02*
X331159113Y-273316900D01*
X331159113Y-273316900D02*
X331016256Y-273388328D01*
X331016256Y-273388328D02*
X330730542Y-273388328D01*
X330730542Y-273388328D02*
X330587684Y-273316900D01*
D10*
D11*
X299989000Y-268502200D02*
X407989000Y-268502200D01*
D10*
D11*
X301373398Y-270616900D02*
X301587684Y-270688328D01*
X301587684Y-270688328D02*
X301944826Y-270688328D01*
X301944826Y-270688328D02*
X302087684Y-270616900D01*
X302087684Y-270616900D02*
X302159112Y-270545471D01*
X302159112Y-270545471D02*
X302230541Y-270402614D01*
X302230541Y-270402614D02*
X302230541Y-270259757D01*
X302230541Y-270259757D02*
X302159112Y-270116900D01*
X302159112Y-270116900D02*
X302087684Y-270045471D01*
X302087684Y-270045471D02*
X301944826Y-269974042D01*
X301944826Y-269974042D02*
X301659112Y-269902614D01*
X301659112Y-269902614D02*
X301516255Y-269831185D01*
X301516255Y-269831185D02*
X301444826Y-269759757D01*
X301444826Y-269759757D02*
X301373398Y-269616900D01*
X301373398Y-269616900D02*
X301373398Y-269474042D01*
X301373398Y-269474042D02*
X301444826Y-269331185D01*
X301444826Y-269331185D02*
X301516255Y-269259757D01*
X301516255Y-269259757D02*
X301659112Y-269188328D01*
X301659112Y-269188328D02*
X302016255Y-269188328D01*
X302016255Y-269188328D02*
X302230541Y-269259757D01*
X302873397Y-270688328D02*
X302873397Y-269188328D01*
X303516255Y-270688328D02*
X303516255Y-269902614D01*
X303516255Y-269902614D02*
X303444826Y-269759757D01*
X303444826Y-269759757D02*
X303301969Y-269688328D01*
X303301969Y-269688328D02*
X303087683Y-269688328D01*
X303087683Y-269688328D02*
X302944826Y-269759757D01*
X302944826Y-269759757D02*
X302873397Y-269831185D01*
X304801969Y-270616900D02*
X304659112Y-270688328D01*
X304659112Y-270688328D02*
X304373398Y-270688328D01*
X304373398Y-270688328D02*
X304230540Y-270616900D01*
X304230540Y-270616900D02*
X304159112Y-270474042D01*
X304159112Y-270474042D02*
X304159112Y-269902614D01*
X304159112Y-269902614D02*
X304230540Y-269759757D01*
X304230540Y-269759757D02*
X304373398Y-269688328D01*
X304373398Y-269688328D02*
X304659112Y-269688328D01*
X304659112Y-269688328D02*
X304801969Y-269759757D01*
X304801969Y-269759757D02*
X304873398Y-269902614D01*
X304873398Y-269902614D02*
X304873398Y-270045471D01*
X304873398Y-270045471D02*
X304159112Y-270188328D01*
X306087683Y-270616900D02*
X305944826Y-270688328D01*
X305944826Y-270688328D02*
X305659112Y-270688328D01*
X305659112Y-270688328D02*
X305516254Y-270616900D01*
X305516254Y-270616900D02*
X305444826Y-270474042D01*
X305444826Y-270474042D02*
X305444826Y-269902614D01*
X305444826Y-269902614D02*
X305516254Y-269759757D01*
X305516254Y-269759757D02*
X305659112Y-269688328D01*
X305659112Y-269688328D02*
X305944826Y-269688328D01*
X305944826Y-269688328D02*
X306087683Y-269759757D01*
X306087683Y-269759757D02*
X306159112Y-269902614D01*
X306159112Y-269902614D02*
X306159112Y-270045471D01*
X306159112Y-270045471D02*
X305444826Y-270188328D01*
X306587683Y-269688328D02*
X307159111Y-269688328D01*
X306801968Y-269188328D02*
X306801968Y-270474042D01*
X306801968Y-270474042D02*
X306873397Y-270616900D01*
X306873397Y-270616900D02*
X307016254Y-270688328D01*
X307016254Y-270688328D02*
X307159111Y-270688328D01*
X307659111Y-270545471D02*
X307730540Y-270616900D01*
X307730540Y-270616900D02*
X307659111Y-270688328D01*
X307659111Y-270688328D02*
X307587683Y-270616900D01*
X307587683Y-270616900D02*
X307659111Y-270545471D01*
X307659111Y-270545471D02*
X307659111Y-270688328D01*
X307659111Y-269759757D02*
X307730540Y-269831185D01*
X307730540Y-269831185D02*
X307659111Y-269902614D01*
X307659111Y-269902614D02*
X307587683Y-269831185D01*
X307587683Y-269831185D02*
X307659111Y-269759757D01*
X307659111Y-269759757D02*
X307659111Y-269902614D01*
D10*
D12*
D10*
D11*
D10*
D11*
D10*
D11*
D10*
D11*
D10*
D11*
X319989000Y-278502200D02*
X319989000Y-281502200D01*
D10*
D11*
X383989000Y-278502200D02*
X383989000Y-285002200D01*
D14*
%TO.C,D21*%
X156464000Y-175689500D03*
X156464000Y-173814500D03*
%TD*%
D15*
%TO.C,R42*%
X192532000Y-179515000D03*
X192532000Y-181165000D03*
%TD*%
D16*
%TO.C,J2*%
X246848000Y-158288000D03*
D17*
X244348000Y-158288000D03*
X241848000Y-158288000D03*
%TD*%
D18*
%TO.C,D8*%
X188721333Y-93550827D03*
X187458477Y-90502024D03*
X182931467Y-92377173D03*
X184194323Y-95425976D03*
%TD*%
D19*
%TO.C,D14*%
X251385624Y-162617277D03*
X254434427Y-163880133D03*
X256309576Y-159353123D03*
X253260773Y-158090267D03*
%TD*%
D20*
%TO.C,SW5*%
X240580500Y-115570000D03*
D21*
X240580500Y-118110000D03*
X240580500Y-120650000D03*
X240580500Y-123190000D03*
X240580500Y-125730000D03*
X240580500Y-128270000D03*
X248200500Y-128270000D03*
X248200500Y-125730000D03*
X248200500Y-123190000D03*
X248200500Y-120650000D03*
X248200500Y-118110000D03*
X248200500Y-115570000D03*
%TD*%
D22*
%TO.C,SW3*%
X175324000Y-108494000D03*
X183324000Y-108494000D03*
X175324000Y-112994000D03*
X183324000Y-112994000D03*
%TD*%
D20*
%TO.C,SW1*%
X184361500Y-168153000D03*
D21*
X184361500Y-165613000D03*
X176741500Y-165613000D03*
X176741500Y-168153000D03*
%TD*%
D23*
%TO.C,BZ1*%
X164348000Y-121793000D03*
D24*
X171948000Y-121793000D03*
%TD*%
D25*
%TO.C,D10*%
X227285677Y-95425976D03*
X228548533Y-92377173D03*
X224021523Y-90502024D03*
X222758667Y-93550827D03*
%TD*%
D26*
%TO.C,BT1*%
X216010000Y-107760000D03*
X196710000Y-107760000D03*
X216010000Y-163380000D03*
X196710000Y-163380000D03*
D27*
X216010000Y-98970000D03*
X216010000Y-171870000D03*
X196710000Y-98970000D03*
X196710000Y-171870000D03*
%TD*%
D28*
%TO.C,R68*%
X217527500Y-188468000D03*
X219352500Y-188468000D03*
%TD*%
D29*
%TO.C,TP4*%
X165100000Y-162052000D03*
%TD*%
D14*
%TO.C,D20*%
X171704000Y-185087500D03*
X171704000Y-183212500D03*
%TD*%
D30*
%TO.C,D1*%
X203290000Y-191491600D03*
X203290000Y-194791600D03*
X208190000Y-194791600D03*
X208190000Y-191491600D03*
%TD*%
D31*
%TO.C,C1*%
X245769000Y-136144000D03*
X242419000Y-136144000D03*
%TD*%
D20*
%TO.C,SW7*%
X229023500Y-150378000D03*
D21*
X229023500Y-152918000D03*
X229023500Y-155458000D03*
X229023500Y-157998000D03*
X236643500Y-157998000D03*
X236643500Y-155458000D03*
X236643500Y-152918000D03*
X236643500Y-150378000D03*
%TD*%
D32*
%TO.C,D22*%
X185928000Y-179402500D03*
X185928000Y-181277500D03*
%TD*%
D33*
%TO.C,D12*%
X253413086Y-124079677D03*
X256391618Y-122658991D03*
X254282114Y-118236323D03*
X251303582Y-119657009D03*
%TD*%
D14*
%TO.C,D17*%
X255270000Y-175943500D03*
X255270000Y-174068500D03*
%TD*%
D34*
%TO.C,J1*%
X229616000Y-120147000D03*
D35*
X229616000Y-122687000D03*
X229616000Y-125227000D03*
X229616000Y-127767000D03*
X229616000Y-130307000D03*
X229616000Y-132847000D03*
X229616000Y-135387000D03*
X229616000Y-137927000D03*
X229616000Y-140467000D03*
X229616000Y-143007000D03*
%TD*%
D29*
%TO.C,TP1*%
X214376000Y-189738000D03*
%TD*%
D36*
%TO.C,C7*%
X235972000Y-100076000D03*
X230372000Y-100076000D03*
%TD*%
D37*
%TO.C,R9*%
X172616500Y-113284000D03*
X170791500Y-113284000D03*
%TD*%
D29*
%TO.C,TP6*%
X173228000Y-162052000D03*
%TD*%
D38*
%TO.C,C32*%
X213601000Y-83850000D03*
X215151000Y-83850000D03*
%TD*%
D34*
%TO.C,J7*%
X180594000Y-120401000D03*
D35*
X180594000Y-122941000D03*
X180594000Y-125481000D03*
X180594000Y-128021000D03*
X180594000Y-130561000D03*
X180594000Y-133101000D03*
X180594000Y-135641000D03*
X180594000Y-138181000D03*
X180594000Y-140721000D03*
X180594000Y-143261000D03*
%TD*%
D39*
%TO.C,C2*%
X155890000Y-153416000D03*
X153990000Y-153416000D03*
%TD*%
D34*
%TO.C,J5*%
X232283000Y-120147000D03*
D35*
X232283000Y-122687000D03*
X232283000Y-125227000D03*
X232283000Y-127767000D03*
X232283000Y-130307000D03*
X232283000Y-132847000D03*
X232283000Y-135387000D03*
X232283000Y-137927000D03*
X232283000Y-140467000D03*
X232283000Y-143007000D03*
%TD*%
D40*
%TO.C,D4*%
X158219227Y-158090267D03*
X155170424Y-159353123D03*
X157045573Y-163880133D03*
X160094376Y-162617277D03*
%TD*%
D41*
%TO.C,R31*%
X197612000Y-186586500D03*
X197612000Y-184761500D03*
%TD*%
D30*
%TO.C,D9*%
X208190000Y-90651600D03*
X208190000Y-87351600D03*
X203290000Y-87351600D03*
X203290000Y-90651600D03*
%TD*%
D42*
%TO.C,D30*%
X208788000Y-199136000D03*
D43*
X211328000Y-199136000D03*
%TD*%
D44*
%TO.C,D13*%
X256160000Y-143521600D03*
X259460000Y-143521600D03*
X259460000Y-138621600D03*
X256160000Y-138621600D03*
%TD*%
D28*
%TO.C,R70*%
X217527500Y-184912000D03*
X219352500Y-184912000D03*
%TD*%
D45*
%TO.C,R71*%
X215201000Y-86360000D03*
X213551000Y-86360000D03*
%TD*%
D46*
%TO.C,R1*%
X210503000Y-191516000D03*
X212153000Y-191516000D03*
%TD*%
D42*
%TO.C,D28*%
X200152000Y-199136000D03*
D43*
X202692000Y-199136000D03*
%TD*%
D41*
%TO.C,R34*%
X156464000Y-171854500D03*
X156464000Y-170029500D03*
%TD*%
D47*
%TO.C,D29*%
X192532000Y-177571500D03*
X192532000Y-175996500D03*
%TD*%
D22*
%TO.C,SW2*%
X248856000Y-146522000D03*
X240856000Y-146522000D03*
X248856000Y-142022000D03*
X240856000Y-142022000D03*
%TD*%
D20*
%TO.C,SW8*%
X184361500Y-158232000D03*
D21*
X184361500Y-155692000D03*
X184361500Y-153152000D03*
X184361500Y-150612000D03*
X176741500Y-150612000D03*
X176741500Y-153152000D03*
X176741500Y-155692000D03*
X176741500Y-158232000D03*
%TD*%
D48*
%TO.C,C6*%
X194122000Y-191008000D03*
X196022000Y-191008000D03*
%TD*%
D49*
%TO.C,S1*%
X235276946Y-89281263D03*
X239268000Y-91948000D03*
X243259054Y-94614737D03*
%TD*%
D37*
%TO.C,R7*%
X172616500Y-109728000D03*
X170791500Y-109728000D03*
%TD*%
D50*
%TO.C,D7*%
X171859938Y-103675915D03*
X169526485Y-101342462D03*
X166061662Y-104807285D03*
X168395115Y-107140738D03*
%TD*%
D51*
%TO.C,D3*%
X168344315Y-174951662D03*
X166010862Y-177285115D03*
X169475685Y-180749938D03*
X171809138Y-178416485D03*
%TD*%
D16*
%TO.C,J3*%
X246848000Y-152700000D03*
D17*
X244348000Y-152700000D03*
X241848000Y-152700000D03*
%TD*%
D52*
%TO.C,D2*%
X184194323Y-186717224D03*
X182931467Y-189766027D03*
X187458477Y-191641176D03*
X188721333Y-188592373D03*
%TD*%
D37*
%TO.C,R69*%
X200048500Y-191008000D03*
X198223500Y-191008000D03*
%TD*%
D14*
%TO.C,D19*%
X201168000Y-186865500D03*
X201168000Y-184990500D03*
%TD*%
D29*
%TO.C,TP5*%
X170180000Y-162052000D03*
%TD*%
D44*
%TO.C,D5*%
X155320000Y-138621600D03*
X152020000Y-138621600D03*
X152020000Y-143521600D03*
X155320000Y-143521600D03*
%TD*%
D53*
%TO.C,R32*%
X168402000Y-183237500D03*
X168402000Y-185062500D03*
%TD*%
D48*
%TO.C,C5*%
X246954000Y-109220000D03*
X248854000Y-109220000D03*
%TD*%
D54*
%TO.C,D6*%
X160176418Y-119657009D03*
X157197886Y-118236323D03*
X155088382Y-122658991D03*
X158066914Y-124079677D03*
%TD*%
D55*
%TO.C,RV1*%
X183144000Y-175260000D03*
X180604000Y-175260000D03*
X178064000Y-175260000D03*
%TD*%
D39*
%TO.C,C3*%
X256982000Y-152400000D03*
X255082000Y-152400000D03*
%TD*%
D56*
%TO.C,D11*%
X243135685Y-107140738D03*
X245469138Y-104807285D03*
X242004315Y-101342462D03*
X239670862Y-103675915D03*
%TD*%
D29*
%TO.C,TP3*%
X167640000Y-162052000D03*
%TD*%
D53*
%TO.C,R11*%
X240792000Y-183237500D03*
X240792000Y-185062500D03*
%TD*%
D41*
%TO.C,R8*%
X240792000Y-111656500D03*
X240792000Y-109831500D03*
%TD*%
D15*
%TO.C,R36*%
X188976000Y-179515000D03*
X188976000Y-181165000D03*
%TD*%
D22*
%TO.C,SW4*%
X229397500Y-107478000D03*
X237397500Y-107478000D03*
X229397500Y-111978000D03*
X237397500Y-111978000D03*
%TD*%
D34*
%TO.C,J6*%
X183261000Y-120401000D03*
D35*
X183261000Y-122941000D03*
X183261000Y-125481000D03*
X183261000Y-128021000D03*
X183261000Y-130561000D03*
X183261000Y-133101000D03*
X183261000Y-135641000D03*
X183261000Y-138181000D03*
X183261000Y-140721000D03*
X183261000Y-143261000D03*
%TD*%
D48*
%TO.C,C4*%
X162626000Y-111760000D03*
X164526000Y-111760000D03*
%TD*%
D41*
%TO.C,R10*%
X255270000Y-171854500D03*
X255270000Y-170029500D03*
%TD*%
D57*
%TO.C,D15*%
X239670862Y-178467285D03*
X242004315Y-180800738D03*
X245469138Y-177335915D03*
X243135685Y-175002462D03*
%TD*%
D58*
%TO.C,J9*%
X199562400Y-179350400D03*
X200712400Y-176160400D03*
X202102400Y-179350400D03*
X203252400Y-176160400D03*
X204642400Y-179350400D03*
X205792400Y-176160400D03*
X207182400Y-179350400D03*
X208332400Y-176160400D03*
X209722400Y-179350400D03*
X210872400Y-176160400D03*
X212262400Y-179350400D03*
%TD*%
D20*
%TO.C,SW6*%
X229108000Y-164973000D03*
D21*
X229108000Y-167513000D03*
X229108000Y-170053000D03*
X229108000Y-172593000D03*
X229108000Y-175133000D03*
X236728000Y-175133000D03*
X236728000Y-172593000D03*
X236728000Y-170053000D03*
X236728000Y-167513000D03*
X236728000Y-164973000D03*
%TD*%
D59*
%TO.C,D16*%
X222758667Y-188592373D03*
X224021523Y-191641176D03*
X228548533Y-189766027D03*
X227285677Y-186717224D03*
%TD*%
D60*
%TO.C,C9*%
X176016000Y-100584000D03*
X181616000Y-100584000D03*
%TD*%
D16*
%TO.C,J4*%
X246888000Y-163876000D03*
D17*
X244388000Y-163876000D03*
X241888000Y-163876000D03*
%TD*%
D14*
%TO.C,D18*%
X236728000Y-185087500D03*
X236728000Y-183212500D03*
%TD*%
D29*
%TO.C,U3*%
X252894000Y-172388000D03*
D61*
X252344000Y-177038000D03*
X248544000Y-177038000D03*
D62*
X249174000Y-179788000D03*
X251714000Y-179788000D03*
X249174000Y-174288000D03*
X251714000Y-174288000D03*
%TD*%
D63*
%TO.C,J8*%
X202850000Y-83880000D03*
X208630000Y-83880000D03*
D64*
X201420000Y-80230000D03*
D65*
X201420000Y-84410000D03*
D64*
X210060000Y-80230000D03*
D65*
X210060000Y-84410000D03*
%TD*%
D29*
%TO.C,U9*%
X178980000Y-179754000D03*
D61*
X178430000Y-184404000D03*
X174630000Y-184404000D03*
D62*
X175260000Y-187154000D03*
X177800000Y-187154000D03*
X175260000Y-181654000D03*
X177800000Y-181654000D03*
%TD*%
D29*
%TO.C,U4*%
X234225000Y-179500000D03*
D61*
X233675000Y-184150000D03*
X229875000Y-184150000D03*
D62*
X230505000Y-186900000D03*
X233045000Y-186900000D03*
X230505000Y-181400000D03*
X233045000Y-181400000D03*
%TD*%
D29*
%TO.C,U10*%
X163486000Y-172388000D03*
D61*
X162936000Y-177038000D03*
X159136000Y-177038000D03*
D62*
X159766000Y-179788000D03*
X162306000Y-179788000D03*
X159766000Y-174288000D03*
X162306000Y-174288000D03*
%TD*%
D66*
%TO.C,M1*%
X254762000Y-128016000D03*
D67*
X257302000Y-128016000D03*
%TD*%
D29*
%TO.C,U8*%
X208190000Y-181405000D03*
D61*
X207640000Y-186055000D03*
X203840000Y-186055000D03*
D62*
X204470000Y-188805000D03*
X207010000Y-188805000D03*
X204470000Y-183305000D03*
X207010000Y-183305000D03*
%TD*%
D66*
%TO.C,M2*%
X154178000Y-128524000D03*
D67*
X156718000Y-128524000D03*
%TD*%
M02*
